<svg xmlns="http://www.w3.org/2000/svg" xmlns:xlink="http://www.w3.org/1999/xlink" viewBox="0 0 46.42 95.75">
  <defs>
    <style>
      .cls-1 {
        fill: #d4d2ce;
      }

      .cls-1, .cls-10, .cls-11, .cls-12, .cls-13, .cls-14, .cls-15, .cls-16, .cls-17, .cls-18, .cls-19, .cls-2, .cls-20, .cls-21, .cls-22, .cls-23, .cls-24, .cls-25, .cls-26, .cls-27, .cls-28, .cls-29, .cls-3, .cls-30, .cls-31, .cls-32, .cls-4, .cls-5, .cls-6, .cls-7, .cls-8, .cls-9 {
        fill-rule: evenodd;
      }

      .cls-2 {
        fill: #d2d0cc;
      }

      .cls-3 {
        fill: #d0ceca;
      }

      .cls-4 {
        fill: #ceccc8;
      }

      .cls-5 {
        fill: #ccc9c5;
      }

      .cls-6 {
        fill: #cac7c3;
      }

      .cls-7 {
        fill: #c7c5c1;
      }

      .cls-8 {
        fill: #c5c3bf;
      }

      .cls-9 {
        fill: #c3c1bd;
      }

      .cls-10 {
        fill: #c1bfbb;
      }

      .cls-11 {
        fill: #bfbdb9;
      }

      .cls-12 {
        fill: #bdbab6;
      }

      .cls-13 {
        fill: #bbb8b4;
      }

      .cls-14 {
        fill: #b9b6b2;
      }

      .cls-15 {
        fill: #b7b4b0;
      }

      .cls-16 {
        fill: #b5b2ae;
      }

      .cls-17 {
        fill: #b2b0ac;
      }

      .cls-18 {
        fill: #b0aeaa;
      }

      .cls-19 {
        fill: #aeaba7;
      }

      .cls-20 {
        fill: #aca9a5;
      }

      .cls-21 {
        fill: #aaa7a3;
      }

      .cls-22 {
        fill: #a8a5a1;
      }

      .cls-23 {
        fill: #e4dfd8;
      }

      .cls-24 {
        fill: #beb9b1;
      }

      .cls-25 {
        fill: #fff;
      }

      .cls-26 {
        fill: #cfcac3;
      }

      .cls-27 {
        fill: #fffdf8;
      }

      .cls-28 {
        fill: #8b8c88;
      }

      .cls-29 {
        fill: url(#GradientFill_231);
      }

      .cls-30 {
        fill: url(#GradientFill_232);
      }

      .cls-31 {
        fill: url(#GradientFill_231-2);
      }

      .cls-32 {
        fill: url(#GradientFill_232-2);
      }
    </style>
    <linearGradient id="GradientFill_231" data-name="GradientFill 231" x1="7.31" y1="95.97" x2="16.06" y2="46.38" gradientUnits="userSpaceOnUse">
      <stop offset="0" stop-color="#c5bfb8"/>
      <stop offset="1" stop-color="#a29f98"/>
    </linearGradient>
    <linearGradient id="GradientFill_232" data-name="GradientFill 232" x1="19.95" y1="50.13" x2="12.3" y2="78.67" gradientUnits="userSpaceOnUse">
      <stop offset="0" stop-color="#959590"/>
      <stop offset="1" stop-color="#b6b4b2"/>
    </linearGradient>
    <linearGradient id="GradientFill_231-2" x1="-1.63" y1="90.8" x2="7.11" y2="41.21" xlink:href="#GradientFill_231"/>
    <linearGradient id="GradientFill_232-2" x1="10.31" y1="47.56" x2="2.67" y2="76.07" xlink:href="#GradientFill_232"/>
  </defs>
  <title>building1</title>
  <g id="Layer_2" data-name="Layer 2">
    <g id="Layer_2-2" data-name="Layer 2">
      <g>
        <g>
          <path class="cls-1" d="M25.38,70,46.22,82a.38.38,0,0,1,.2.35.41.41,0,0,1-.2.36l-22.28,13-1.63,0L.5,83.13c10.83-6.21,12.21-7,23-13.17Z"/>
          <path class="cls-2" d="M25.34,69.94c9.43,5.44,11.4,6.59,20.83,12a.39.39,0,0,1,.21.35.42.42,0,0,1-.21.36l-22.3,13-1.56,0L.48,83.12c10.32-5.91,12.75-7.27,23.07-13.18Z"/>
          <path class="cls-3" d="M25.29,69.92c9,5.17,11.88,6.88,20.84,12a.38.38,0,0,1,.2.35.41.41,0,0,1-.2.36l-22.34,13-1.47,0L.47,83.11c9.8-5.62,13.29-7.58,23.09-13.19Z"/>
          <path class="cls-4" d="M25.25,69.9C33.74,74.8,37.6,77.06,46.08,82a.39.39,0,0,1,.21.35.42.42,0,0,1-.21.36l-22.37,13-1.39,0L.46,83.1c9.28-5.32,13.82-7.88,23.1-13.2Z"/>
          <path class="cls-5" d="M25.21,69.88C33.23,74.5,38,77.32,46,82a.38.38,0,0,1,.2.35.41.41,0,0,1-.2.36L23.64,95.72l-1.32,0L.44,83.09c8.77-5,14.36-8.19,23.13-13.21Z"/>
          <path class="cls-6" d="M25.17,69.86C32.72,74.21,38.45,77.58,46,81.94a.38.38,0,0,1,.2.35.41.41,0,0,1-.2.36L23.56,95.72l-1.24,0C14.54,91.26,8.2,87.58.43,83.08c8.25-4.73,14.9-8.49,23.15-13.22Z"/>
          <path class="cls-7" d="M25.13,69.84c7.07,4.08,13.75,8,20.82,12.09a.39.39,0,0,1,.21.35.42.42,0,0,1-.21.36L23.48,95.73l-1.16,0L.41,83.07c7.74-4.43,15.44-8.8,23.17-13.23Z"/>
          <path class="cls-8" d="M25.09,69.82c6.6,3.81,14.22,8.29,20.82,12.1a.38.38,0,0,1,.2.35.41.41,0,0,1-.2.36l-22.5,13.1-1.09,0C15.51,91.82,7.2,87,.4,83.06c7.22-4.14,16-9.1,23.19-13.24Z"/>
          <path class="cls-9" d="M25.05,69.8c6.13,3.54,14.68,8.57,20.81,12.11a.39.39,0,0,1,.21.35.42.42,0,0,1-.21.36L23.33,95.73l-1,0L.38,83.05C7.09,79.21,16.9,73.64,23.6,69.8Z"/>
          <path class="cls-10" d="M25,69.78C30.67,73,40.16,78.63,45.82,81.9a.38.38,0,0,1,.2.35.41.41,0,0,1-.2.36L23.26,95.73l-.94,0L.37,83c6.18-3.55,17.05-9.72,23.24-13.26Z"/>
          <path class="cls-11" d="M25,69.76c5.18,3,15.62,9.13,20.8,12.13a.39.39,0,0,1,.21.35.42.42,0,0,1-.21.36L23.18,95.73l-.86,0L.35,83C6,79.78,17.94,73,23.61,69.76Z"/>
          <path class="cls-12" d="M24.92,69.74C29.64,72.46,41,79.16,45.73,81.88a.38.38,0,0,1,.2.35.41.41,0,0,1-.2.36L23.1,95.73l-.78,0L.34,83c5.15-3,18.12-10.33,23.28-13.28Z"/>
          <path class="cls-13" d="M24.88,69.72c4.25,2.45,16.56,9.7,20.81,12.15a.4.4,0,0,1,.2.35.43.43,0,0,1-.2.36L23,95.74h-.71L.32,83C5,80.35,19,72.38,23.63,69.72Z"/>
          <path class="cls-14" d="M24.84,69.7c3.77,2.18,17,10,20.8,12.16a.39.39,0,0,1,.21.35.42.42,0,0,1-.21.36L23,95.74h-.63C18.43,93.51,4.2,85.25.31,83c4.12-2.36,19.2-10.94,23.33-13.3Z"/>
          <path class="cls-15" d="M24.8,69.68c3.3,1.9,17.5,10.26,20.8,12.17a.38.38,0,0,1,.2.35.41.41,0,0,1-.2.36L22.88,95.74h-.56L.29,83C3.9,80.93,20,71.75,23.64,69.68Z"/>
          <path class="cls-16" d="M24.76,69.66c2.83,1.63,18,10.54,20.79,12.18a.39.39,0,0,1,.21.35.42.42,0,0,1-.21.36L22.8,95.74h-.48L.28,83c3.09-1.78,20.28-11.56,23.37-13.33Z"/>
          <path class="cls-17" d="M24.72,69.64C27.08,71,43.15,80.47,45.51,81.83a.38.38,0,0,1,.2.35.41.41,0,0,1-.2.36L22.72,95.74h-.4L.26,83l23.4-13.34Z"/>
          <path class="cls-18" d="M24.68,69.62c1.88,1.09,18.9,11.11,20.78,12.2a.39.39,0,0,1,.21.35.42.42,0,0,1-.21.36L22.65,95.75h-.33L.25,83C2.31,81.78,21.6,70.8,23.66,69.62Z"/>
          <path class="cls-19" d="M24.64,69.6C26.05,70.41,44,81,45.42,81.81a.38.38,0,0,1,.2.35.41.41,0,0,1-.2.36L22.57,95.75h-.25L.23,83,23.67,69.6Z"/>
          <path class="cls-20" d="M24.6,69.58c.94.54,19.83,11.67,20.78,12.22a.4.4,0,0,1,.2.35.43.43,0,0,1-.2.36L22.49,95.75h-.17L.22,83,23.68,69.58Z"/>
          <path class="cls-21" d="M24.55,69.56c.48.27,20.31,12,20.78,12.23a.39.39,0,0,1,.21.35.42.42,0,0,1-.21.36L22.42,95.75h-.1L.2,82.94,23.69,69.56Z"/>
          <path class="cls-22" d="M24.51,69.54,45.29,81.78a.38.38,0,0,1,.2.35.41.41,0,0,1-.2.36L22.34,95.75h0L.19,82.93l23.5-13.39Z"/>
        </g>
        <polygon class="cls-23" points="0 80.18 22.32 93.06 22.32 95.75 0 82.87 0 80.18"/>
        <polygon class="cls-24" points="44.1 25.25 22.32 37.83 22.32 72.95 22.32 92.12 44.1 79.54 44.1 25.25"/>
        <polygon class="cls-25" points="45.74 79.54 22.32 93.06 0 80.18 22.32 57.58 22.32 92.12 44.1 79.54 44.1 78.45 45.74 79.54"/>
        <polygon class="cls-24" points="45.74 79.54 22.32 93.06 22.32 94.41 22.32 95.75 45.74 82.23 45.74 80.88 45.74 79.54"/>
        <polygon class="cls-26" points="45.74 79.54 23.96 92.12 22.32 92.12 44.1 79.54 44.1 78.45 45.74 79.54"/>
        <polygon class="cls-23" points="1.64 25.89 22.32 37.83 22.32 92.12 1.64 80.18 1.64 25.89"/>
        <polygon class="cls-27" points="1.64 25.89 22.32 37.83 44.1 25.25 23.43 13.31 1.64 25.89"/>
        <polygon class="cls-26" points="27.23 34.99 44.1 25.25 23.43 13.31 22.32 13.95 22.32 34.99 27.23 34.99"/>
        <polygon class="cls-25" points="6.56 14.98 22.32 24.08 39.19 14.34 23.43 5.24 6.56 14.98"/>
        <polygon class="cls-26" points="26.87 21.45 39.19 14.34 23.43 5.24 22.47 5.79 22.47 21.45 26.87 21.45"/>
        <polygon class="cls-28" points="13.98 38.27 13.98 81.46 19.47 84.63 19.47 41.44 13.98 38.27"/>
        <polygon class="cls-29" points="13.43 37.95 13.43 81.76 13.98 81.46 13.98 38.27 13.43 37.95"/>
        <polygon class="cls-25" points="19.47 85.23 13.45 81.76 13.98 81.46 19.47 84.63 19.47 85.23"/>
        <polygon class="cls-30" points="19.47 84.1 14.44 81.19 14.44 38.53 19.47 41.44 19.47 84.1"/>
        <polygon class="cls-28" points="5.04 33.09 5.04 76.28 10.53 79.45 10.53 36.26 5.04 33.09"/>
        <polygon class="cls-31" points="4.49 32.77 4.49 76.58 5.04 76.28 5.04 33.09 4.49 32.77"/>
        <polygon class="cls-25" points="10.53 80.06 4.51 76.58 5.04 76.28 10.53 79.45 10.53 80.06"/>
        <polygon class="cls-32" points="10.53 78.92 5.49 76.02 5.49 33.35 10.53 36.26 10.53 78.92"/>
        <polygon class="cls-24" points="39.19 14.34 22.32 24.08 22.32 34.99 39.19 25.25 39.19 14.34"/>
        <polygon class="cls-23" points="6.56 14.98 22.32 24.08 22.32 34.99 6.56 25.89 6.56 14.98"/>
        <polygon class="cls-25" points="11.11 7.02 22.47 13.58 34.63 6.56 23.27 0 11.11 7.02"/>
        <polygon class="cls-24" points="34.63 6.56 22.47 13.58 22.47 21.45 34.63 14.43 34.63 6.56"/>
        <polygon class="cls-23" points="11.11 7.02 22.47 13.58 22.47 21.45 11.11 14.89 11.11 7.02"/>
      </g>
    </g>
  </g>
</svg>
