<svg xmlns="http://www.w3.org/2000/svg" viewBox="0 0 49.97 47.35">
  <defs>
    <style>
      .cls-1 {
        isolation: isolate;
      }

      .cls-2 {
        fill: #dfe0e1;
      }

      .cls-3 {
        fill: #fff;
      }
    </style>
  </defs>
  <title>Cloud</title>
  <g id="Layer_2" data-name="Layer 2">
    <g id="Layer_2-2" data-name="Layer 2">
      <g class="cls-1">
        <g>
          <path class="cls-2" d="M43.5,7.62l.22,0,.12,0,.22,0,.11,0h1l.16,0h.12l.16,0,.11,0,.15,0,.11,0,.14,0,.12,0,.13,0,.11,0,.13,0,.11,0,.13.06L47,8l.13.06.12.07-6.82-4,0,0-.07,0L40.15,4,40.05,4l-.13-.06h0l-.07,0-.13,0-.11,0-.14,0,0,0-.06,0-.14,0-.12,0-.14,0H38.8l-.15,0-.12,0H37.6l-.25,0h-.11L37,3.6H36.9l-.23,0-.1,0-.34.07,6.83,4,.33-.08Z"/>
          <path class="cls-2" d="M31.21,5.86l.14-.14.29-.26.13-.12L32.16,5l0,0,.43-.34.13-.1.31-.23.16-.1A2.11,2.11,0,0,1,33.53,4l.14-.1.45-.27.41-.23.11-.05L35,3.16l0,0L35.43,3l.4-.15.09,0a4.42,4.42,0,0,1,.48-.15l.28-.07.13,0,.41-.08h0l.38,0h.11l.26,0h.47l.34,0h.07l.26,0,.09,0,.3.07h0l.3.1.08,0,.24.1.06,0a2.69,2.69,0,0,1,.29.16L36.4.6l0,0L36.11.45l-.06,0L35.9.35l-.09,0-.08,0-.3-.1h0l-.3-.07L35,.09l-.09,0-.17,0h-.07l-.3,0H33.8l-.18,0h-.11l-.38.05h0l-.41.08-.13,0-.26.06h0a4.42,4.42,0,0,0-.48.15l-.09,0-.4.15-.05,0L31,.74l-.05,0-.36.17L30.44,1,30,1.23c-.15.08-.3.18-.45.27l-.14.09-.32.21L29,1.91l-.31.23-.13.1-.43.34,0,0-.39.33-.13.12-.29.27-.14.14-.1.09-.18.19a.8.8,0,0,0-.13.13L26.63,4l-1.91-1.1,0,0-.29-.15-.07,0-.17-.07-.11,0-.09,0-.35-.12h0a2.25,2.25,0,0,0-.35-.09l-.11,0-.1,0-.21,0h-.08l-.34,0h-1l-.44,0h0l-.46.08-.16,0L20,2.43h0l-.08,0-.43.14h0l-.46.17-.09,0-.08,0L18.38,3l-.06,0-.42.2-.12.07-.49.26-.5.31-.16.1-.34.23-.18.12-.31.23-.19.14-.3.24-.18.14-.34.29-.13.11-.46.41a.94.94,0,0,1-.1.1l-.3.29,0,0c-.18.18-.36.36-.53.55l0,0c-.17.18-.33.37-.49.55l-.05,0a2,2,0,0,1-.19.22L12.28,8l-.24.3a2.11,2.11,0,0,0-.19.23l0,0a.56.56,0,0,1-.05.08c-.2.26-.39.52-.58.79l-.06.08,0,0c-.18.25-.35.52-.53.78a.35.35,0,0,1-.05.08.75.75,0,0,1-.07.12c-.14.22-.27.44-.4.66l-.07.1,0,0c-.15.26-.29.52-.43.78l0,.06-.06.13c-.11.21-.22.42-.32.63,0,0,0,.09-.07.13l0,.08c-.13.27-.25.54-.37.81v0a.36.36,0,0,1,0,.09l-.3.73a.61.61,0,0,1,0,.12c0,.06,0,.12-.07.19l-.06.18-.18.49,0,.1v0l-.18.58s0,.11,0,.16l-.09.33,0,.1a2.68,2.68,0,0,0-.07.27l-.09.36-.06.28c0,.06,0,.12,0,.19a.59.59,0,0,0,0,.13c0,.14-.06.28-.08.41a2.93,2.93,0,0,0,0,.29c0,.14-.05.28-.07.42l0,.2a.25.25,0,0,1,0,.08,1.23,1.23,0,0,1,0,.19c0,.14,0,.27,0,.4s0,.14,0,.21,0,.27,0,.41,0,.12,0,.18,0,.38,0,.57a12.18,12.18,0,0,0,.18,2.07l-.4.35-.13.12a3.07,3.07,0,0,1-.26.25l0,0-.06.07-.39.4L5.67,25l-.45.5h0l-.09.1c-.08.11-.17.21-.26.32a1.83,1.83,0,0,0-.13.16l-.23.28,0,.06,0,.06-.56.76,0,0-.05.06c-.17.24-.33.49-.49.73v0a.21.21,0,0,1,0,.06l-.42.69,0,.05v0c-.14.23-.26.47-.39.7a.43.43,0,0,1,0,.07.16.16,0,0,1,0,.07l-.35.7,0,0,0,.07c-.11.23-.22.46-.32.7l0,0v0q-.17.38-.3.75a.59.59,0,0,0,0,.08l0,.1c0,.06-.05.13-.08.19a2.31,2.31,0,0,1-.1.28,1.59,1.59,0,0,1-.07.2.56.56,0,0,1,0,.12c0,.05,0,.1,0,.15s0,.15-.08.23-.05.17-.08.26L.64,34l0,.08a.83.83,0,0,1,0,.15c0,.1,0,.19-.07.29l-.06.23c0,.1,0,.19-.07.29a.5.5,0,0,1,0,.12s0,.06,0,.09l-.09.48,0,.13-.09.59v.05l0,.21a1.49,1.49,0,0,1,0,.21,2.64,2.64,0,0,0,0,.28c0,.06,0,.13,0,.19s0,.21,0,.31v.16c0,.15,0,.31,0,.46,0,3,1.06,5.07,2.75,6l4.09,2.39c-1.69-1-2.74-3.07-2.75-6.05,0-.15,0-.3,0-.46a.76.76,0,0,1,0-.15c0-.11,0-.21,0-.32s0-.12,0-.19a2.64,2.64,0,0,1,0-.28,1.5,1.5,0,0,0,0-.2,2.51,2.51,0,0,1,0-.27c0-.19,0-.39.08-.59l0-.12.09-.49c0-.07,0-.14,0-.21l.06-.29.06-.23c0-.09,0-.19.07-.29s0-.15.07-.23l.06-.23a2.58,2.58,0,0,0,.08-.26L5,35.62c0-.09,0-.18.08-.27a1.18,1.18,0,0,0,.07-.2c0-.09.07-.18.1-.27l.08-.2a1.34,1.34,0,0,1,.07-.18q.14-.37.3-.75l0-.06c.1-.23.21-.47.32-.7a1.17,1.17,0,0,0,0-.11c.12-.23.23-.47.36-.7L6.48,32c.13-.23.25-.46.39-.69,0,0,0-.05,0-.08.14-.23.28-.46.43-.69a.43.43,0,0,1,0-.07c.16-.25.32-.5.49-.74a.61.61,0,0,0,.07-.1l.56-.76.09-.12.23-.28L9,28.35,9.22,28l.09-.12.45-.49.12-.13.39-.4.09-.1.26-.24a1.59,1.59,0,0,0,.13-.13l.4-.35A12.18,12.18,0,0,1,11,24c0-.19,0-.38,0-.57s0-.12,0-.18,0-.27,0-.41,0-.13,0-.2,0-.27,0-.4a1.36,1.36,0,0,0,0-.2,2.7,2.7,0,0,0,0-.28c0-.14,0-.28.07-.42a2.93,2.93,0,0,1,.05-.29c0-.13.05-.27.08-.4s0-.22.07-.33l.06-.27.09-.36a2.68,2.68,0,0,1,.07-.27l.12-.43,0-.17c.06-.2.12-.4.19-.6l0-.09.18-.5.06-.18.12-.31.3-.73a1.17,1.17,0,0,1,.05-.11c.12-.27.24-.54.37-.81l.1-.21c.1-.21.21-.42.32-.62a1.86,1.86,0,0,1,.1-.2c.14-.26.28-.52.43-.77l.09-.15c.13-.22.26-.44.4-.66l.12-.19.53-.79.09-.12c.19-.27.38-.53.58-.79l.09-.12.19-.23.24-.3.19-.23.24-.28.49-.54,0,0c.17-.19.35-.37.53-.55l.35-.33.09-.09.46-.42.13-.11.34-.29.18-.14.31-.24L19.89,7l.31-.22.19-.13.33-.23.16-.1.5-.3.49-.27L22,5.65l.42-.21.06,0,.47-.2.1,0L23.49,5h0L24,4.86l.08,0c.11,0,.22-.06.33-.09l.16,0L25,4.63h0l.44-.06h1l.36,0,3.62,2.1.4-.42a1.59,1.59,0,0,1,.13-.13C31,6.05,31.11,6,31.21,5.86Z"/>
        </g>
        <path class="cls-3" d="M21.38,6c3.84-2.22,7.2-1.78,9,.71a16.12,16.12,0,0,1,3.72-3.07c4.64-2.68,8.47-.83,8.94,4.1C47,6.7,50,9.2,50,14.17c0,6-4.19,13.27-9.39,16.28l-27,15.6c-5.21,3-9.44.6-9.46-5.39,0-5,3-11,7.06-14.58A12.18,12.18,0,0,1,11,24C11,17.38,15.61,9.31,21.38,6Z"/>
      </g>
    </g>
  </g>
</svg>
