<svg xmlns="http://www.w3.org/2000/svg" viewBox="0 0 747.76 573.89">
  <defs>
    <style>
      .cls-1 {
        fill: #dbe46b;
      }
    </style>
  </defs>
  <title>London map</title>
  <g id="Layer_2" data-name="Layer 2">
    <g id="Layer_2-2" data-name="Layer 2">
      <path class="cls-1" d="M630.58,297.37c-25,2.1-23.43-16.39-24.6-22.32s-1.84-10.4-14-13.31-16.68-8.36-20.37-11.37-8.17-.39-8.17-.39c-8.73,6.48-15.74,4.66-19.43,2.91s-9.82-3.59-11.56,3.7-2.73,14.47-12.25,18.35-16.81-1.35-29.81,1.32-16.09,1.12-20.91-2.38-5.35-16.09-11.86-13-3.69,13.31,0,17.38.63,21.68-17.74,14.52-9.13-22.47-12.22-29.48-7.59-6-14.16.66-11.55,4.84-19,1-11.37-4.47-27-7.19S352.81,265,351.1,278.94s-15.4,14.52-19.28,13.4a38.22,38.22,0,0,0-8.75-1.13c-15,1.65-19.52,4.18-20.75,10.8s-5.34,24.78-22.7,18.9-20.1-14.09-20.48-24.86-8.25-8.89-8.25-8.89-10.17-.45-10.17,7.8-2.19,14.2-8.11,15.61-11.86-.25-15.68-10.11-7.62-11.25-10.66-11.5a16.43,16.43,0,0,0-15.58,8s-4.86,9.77-11.4,11.57-7.94,6.7-2.23,12.7,18.57,9.23,12,19.88S164.77,343,168,361.3c0,0,1.62,5,9.3,6.63s13,10.54,7.27,25.21,3,14.77-7.54,25.48l-.12.12.12-.12c.81-.84,6-6.47,5-11.38-1-5.33.58-11.52,2.3-16.45s3.52-14.89-3.54-20.13a34.8,34.8,0,0,0-5.56-2.23c-2.5-.67-11.13-3.42-8.67-14s13.87-4.89,20.12-12.44.91-12-2.53-14.27-15.18-7.82-10.88-17.37a9.84,9.84,0,0,1,5.5-3c3.83-.83,9-5.95,10.23-10.17s9-11.19,16.51-10.36c16.36,1.81,11.48,18.44,19.24,21.53s13.34-2.4,13.2-10.54,5.08-15.1,14.71-14.74,9.8,10.53,9.8,10.53S258.4,306.43,275,315.84s26-9.41,25.58-15.38,11.71-13.07,29.28-10.57,18.13-12.74,19-21.76,1.17-11.06,11.13-13.41,34.93,4.88,37.27,8.14,5.43,7.82,15.95-3.53,20,3,19.24,11.23,2.12,20.72,13.75,18.47,6.46-10.57,6.46-10.57-8.95-12.31.56-19.36,17,8.14,17,8.14a11.38,11.38,0,0,0,11.68,4.18s5.79-3.37,17.32-1.09,22.28,2.39,26.82-12.09,12.63-11,12.63-11,13.74,4.48,18-.46,13.8-5.56,20.21-1.52,9.07,6.16,22.14,8.34,16.63,12.77,16.63,12.77-1.75,24.7,14.43,18.67a19.34,19.34,0,0,1,9.65-1v-1.27l.15-.22v-.23H640v-.44h.13l.15-.46h.14v-2l.13-.67h.42l.15-.46.14-.22.13-.45.15-.22h.14l.15-.22.27-.22.15-.24h.13l.29-.22h.13l.14.22h.57l.55-.22h.29l.27-.22h.15l.13-.23h.29l.14-.22.42-.22h.7v-.22l.42-.24.84-.22h1.68l.29-.22h.27l.15.22.27.22.15.46h.13l.14-.22h.42l.28-.24.29-.22h.13l.42-.45.56-.44.29-.22.28-.24h.14l.13-.22.29-.21.42-.24h.28l.42-.22h.42l-.28-.9-.42-.67-.42-.9-.29-.67-.27-.68-.15-.67-.13-.44-.14-.22v-.46l-.15-.21-.27-.68-.28-.46-.14-.43v-.24l-.15-.44v-.22l-.27-.45-.15-.46.42-.22.15-.68v-.21h.56l1.12-.22h2.81l.13.22h1.4l.28-.22h.29l.27-.24h1.41l1.11-.22,1.7-.22h.69l.15-.22-.15-.24.15-.21h.55l.42-.22H666l.15-.24H666v-.22l.15.22v-1.57l-.15-.66-.15-.67-.12-.46v-.22h-.84v-.22h-.29l.14-.24v-.43l-.14-.24v-1.79h-.13v-.22l-.15-.45V253h.28v-.22h.56v-.24l.28-.22-.13-.22-.29-.67-.28-.46-.27-.22-.42-1.11-.15-.46-.84-1.79-.29-.89-.84-2,.57-.22h1.82l.28.22h.14l.57.22,1.95.91.57.22.27-.22.57-.23v-.22h.14v-.22l-.42-.9-.29-.23.29-.44.13-.24h-.13v-.22l-.14-.22-.42-.22h-.28l-.29-.23h-1L666,242l-.56-.22h-.42v-1.13l.14-.22v-.22l.15-.46.13-.22h.14l.15-.22.42-.45.27-.46.42-.66v-.23l.15-.22,1.68.67.84.44.14-.22.28-.44h.29l.13-.23v-.22l.29-.9v-.67l-.15-.22-.42-.9H670v-.45h.14l.42-.46.42-.22.84-.67.57.23v-1.8l.27-.22H674v.22l.14.23v.22l.13.44.29.68V235l.13.22.15.46.27.45h.15v.44l.14.46v1.57l.13.44V240l.15.46.14.45.13.66.14.46.15.45v.9l.13.22V244l.14.22v.44l.15.91v.9h.69l.15.22h1.26l.15-.22h1.95l.15.22h.14l.13-.22h.42l-.13-.24h.13V246l.14-.22h1l.55.44h1.13l.84.24.15-.46v-.67l.12-2.25V242l.15-.22v-.46l.15-.22v-.22l.54-1.57h1.56v-.67l.14-.68-.14-.89h-.72l-.12-.24h-.3v-1.57l.15-2.23v-.67l-.15-1.13v-4.93l.57-.22h.42l.57-.24h.42l1.11-.44.29-.22h.42l.84-.23,1.26-.22h1l.27.22h.57l.12.23h.71l.28-.23h.42l.29-.22.13.45,1-.45.84-.22,1-.24,1.11-.44.84-.21h.71l.84-.24h1.83l.42-.22h.57l.27-.22h.69l.29-.24h1.68l.55.24-.13-.24h.42l.42-.22h.57l.84-.22h1L713,222h.56l2-.24v-.44l-.15-.68-.13-.89-.14-1.35h.27l1.28-.46,1.68-.22v-.43l-.15-.46h.28l1.4-.22h1l.69-.24h2.12l.55-.22h2.24l.42-.22v-.45h1.55l.7-.22h1.26l.71-.22v.22h.42l.55-.22h.42l.56-.24,2-.22h.84l.84-.21h1.68l1.12-.22h2.81l1.11-.24h2.12v.24h-.15v.89l1.26-.46,1-.21.12-.22-.27-.46v-.46h-.42l.15-.43.42-1.36-.29-.21-.13-.68-.42-.89v-.22l-.42-.68-.57-1.35-.42-.68h-2.24l.14-.43.42-.46-.29-.67h-.13l-.14-.22v-.22l-.15-.24v-.68h-.13l-.14-.22-.15-.21-.13-.22-.14-.24v-3.36h-.15l-.13-.22-.42-.45-.29-.22h-.14l-.28-.22-.14-.24-.13-.44-.29-.24-.13-.21-.15-.22-.14-.22-.13-.24h-.71l-1,.24h-.57v.22h-.14v-.22h-.15l-.13-.68v-1.35H737l-.42-.22h-.28l-.42-.24-.56-.43-.42-.22h-.42v-.24h-.28v-.22l-.14-.89v-.68l-.15-.45-.27-.22-.29-.22-.84-.68-.28-.22h-.27l-.57.22-.14-.22h-.13v-.23l-.15-.22v-1.35h-.14v-.22h-.13V187l-.15-.45v-.9l-.14-.67v-.44h-.15v-.46l-.13-.22v-.45h.13l-.13-.22V183l-.42-1.57h-.14v-.68l-.15-.45v-.44l-.13-.46v-.22l-.14-.22v-.45l-2.67.22-2.66.23h-.7l-1.55.22-.84.22H719.6l-1.26.24h-1.26l-1.28.22h-1l-1.13.22h-1l-1,.22-1.26.23-1.55.22v-.45l-.15-.44-.27-.9-.28-.67-.14-.68-.28-.89-.14-.68-.15-.67-.27-.68-.28-.89-.29-.68-.13-.44-.14-.67-.28-.68-.14-.22-.15-.45v-.22h-.12v-.22h.12L706,170l.14-.22v-1.57H706l-.15-.45-.12-.22h-.3l-.14-.22H705v-.22h-.42v-.24h-.27v-.22L704,166l-.42-1.11-.28-.9-.42-.91-.14-.44-.42-.89-.28-.46-.42-.68v-.43h-.29l-.13-.46-.29-.44-.42-.67-.27-.68-.57-.67-.13-.46-.41-.44-.57-.68-.29-.67-.42-.44-.28-.45-.84-1.36h.15l-.29-.22-.28-.67-.27-.44-.29-.24-.28-.43-.27-.46-.15-.44-.29-.45-.42-.68-.13-.22h-.29l-.42-.22-.27-.45-.27-.22-.15-.24-.15-.22v-.44l-.12-.24-.15-.21-.15-.22v-.24h-.12v-.66l.12-.45-.27-.46-.15-.22v-.22h-.12v-.22l-.3-.45-.14-.46-.13-.44-.15-1.13-.14-1.11v-1.12l-.13-.45v-.46l-.15-.44-.14-.45v-.68h.14l.15-.22v-.22l.13-.45.14-.22.15-.22v-.46l.13-.22v-2.24l-.13-.22-.15-.46-.14-.67h-2.38v-.22h-2.39l-.42-.22h-.27l-.84-.24h-.42l-.29-.22-1-.22-.71-.23-.42-.22-1.11-.44-.15-.24v-.22h-2.94v-.22h-.29l-.28-.23v-.22l-.27-.22h.13l.14-.22v-.46h.42v-.45H678l.15-.22.12-.22h.3v-.46H679l.12-.22.15-.22h-.15v-.67h.15l.15-.22h.12l.15-.24v-.67h.69l.15-.22.15-.44v-.91l-.15-.22v-.44h.27l.86-.46H682l.69-.45.57-.22.13-.22h1.28l.27.22,1-.68v-.67h.27l-.42-.9-.15-.22h-.27l-.15-.22H685l-.27-.23-.57-.44-.57-.68L683,115l-.42-.68-.55-.89-.56-.44-.15-.46-.13-.22-.29-.45-.27-.22-.15-.22-.27-1.35h-.15l-.57-.68-.69-.67-.57-.44-.27-.46-.57-.67-.56-.68-.7-.67-.41-.44h-.15l-.27-.46-.57-.43-.13-.24-.29-.22-.42-.22-.27-.22-.57-.24v-.22l-.42-.21-.69-.46h-.15l-.15-.22h-.27l-.15-.22-.27-.24-.57-.22-.27-.21-.56-.24-.42-.22-.84-.68-.84-.67-.84-.44-.42-.46-.42-.22L665.2,98l-.69-.44h-.29l-.28-.22-.69-.46-.29-.45h-.15V96.2h-.27l-.15-.22h-.27v-.22l-.42-.24-.84-.67-.42-.44-.7-.46-.44-.43-.12-.24-.3-.22-.12-.22-.42-.46-.15-.21-.69-.68-.29-.22-.55-.46-.71-.67-.57-.44-.55-.46-.84-.67-.56-.44-.28-.22-.42-.45-.56-.68-.71-.44-.55-.67-.42-.46h-.15l-.42.46-.69.89-.44.68-.27.22-.84.21-.57.24-.55.22-.71.22-.55.22-.29.24h-.42l-.69.43-.71.46-.28.22-.27.22-.42.24-.57.43h-.29l-.27.24h-.28l-.56.22-.15.22h-.42l.15.46-.7.22H636.6l-.13.21h-.15l-.56.24h-.42l-.28.22h-.14v.22h-.13l-.15.22-.14.24h-.28l-.14.22h-.28l-.56.21-.7.46h-.71l-.13.22h-2.11l-.28.22-.84-.44-.69-.22L626.37,94l-1.26-.21h-.71l-.69.21h-1.55l-1,.24-.29.22h-.42l-.15.22h-.55v.46l-.14.22-.57-.46-.13-.44-.29-.22L617.54,94h-1l.15.24v.44l.13.22v.46l-.13.21h-.15l-.56-.43-.55-.46-.42-.22L614.6,94H614l-.27-.21-.29-.22h-1.26v.22h-.42v.45l-.15.44v.89h-.84l-.69.24-.71.22-.55.22-1.68.46-.84.43-1,.46-1.26.89-1.41.68-.57.22-.69.46v-.24l-.29-.22h-.28l-.14-.22h-.28l-.14-.22L599,98.44h-.27l-.3-.21h-1l-.42-.24h-.42l-.3-.22h-.27l-.27.22-1.55-.22-2.4-.44-1.38-.24h-10.1l-4.63-.22-1.54-.21h-2.1l-.14.21-1.26.46-1,.66-.42.24-.27.43-.84.24-.29.22-.42.22-.28.22-.84.24-.29.89-.27.22h-.15l-.27.22-.15.24h-.13l-.14.21h-.28v.22h-.29l-.13.24-.71.22-.27.44-.42.45-.15.22-.14.68v.22l-.13.24-.42.67-.15.22h-.27l-.29.44H561l-.56.45-.28.22-.29.24-.55.22-.14.22h-.15l-.13.22-.42.45-.42.22-.56.24H557l-1.68-2.25-.84.68-2.1,1.33-3.08,2-.29.22-1.81.67-.42.22-1,.46h-.42l-.42.22-.84.22-.29.23-.27-1.35-1.68.68-1.26.44-.57-1.34-1.26-2.46-.42.22h-.14l-.28.22h-.14l-.42.22-.42.23-1,.44-1.11.68-.71.22-.55.23.55.68.42.44.14.45h.15v.22l.27.46.29.89.28.22.14.46v.22l-.42.22v.45l-.14.22v.22l-.15.24h-.27l-.84.44-.71,1.79-.13,1.13.69,1.57v.22h-.14l-.84.45L532,122l-.13.22V122l-.29.22h-.28l-.29.24-.42.22v.44l-1.53.67-.28-.22v-.22h-.14l-.15-.23-.84-.9-.14-.22-.13-.22-.29-.45-.42-.22h-.55l-.42-.22h-.15l-.27.22-.71-.46-.57-.22h-.42l-.42-.22h-1.53l-.69.44-1,.46-.57.22-1,.89-1.12.68-.29.22-.54.23h-.57l-.57-.23-.54-.22-.57-.22-.71-.46L513,122l-.71-.45h-.42l-.28-.22H511l-.69-.22-.42-.46-.72-.44-.54-.45-.57.22-.42.23h-.15l-.12-.23-.42-.44-.3-.22h-.14l-.42-.46-.42-.45-.55-.44-.71-.46-.84-.44-.84-.67-.84-.68-.42-.22-1.68-1.35-.56-.45-.28-.22-.29-.22-.13-.22-.71-.46h-.27l-.57-.67-.69-.44-1-.46v-.22H495l-.15.22h-.15l-.12.46v-.24h-.15v-.44h.15v-.23h.12l.15-.22v-.22l-.15-.22v-.68l.15-.45.15-.44h.12l.15-.24.27-.22h.15l.15-.22.12-.23.15-.22.15-.22.14-.22h.42l.55-.24h.15v-.22h1v.22h.13l.15.24.14.22h.42v-.22h.13l.29-.24.15-.22v-.67h.12v-.44l-.12-.24-.15-.22-.29-.45h-.13l-.14-.22h-.28l-.71.22-.84.24h-.69l-.57.21-.69.22-1.14.24v.22h-.69l-.57.22-.12-.22h-.15v.22h-.71l-.42.22-.55.23h-.42l-.42.22H490l-.42.22-.27.24L489,107l-.29.22-.27.22-.15.23h-.15v.22H488l-.15-.22.15-.23h-.71l.14-.44-1.53-1.79v.22l-.57-.68h-.14v-.21l-.15-.46-.27-.22-.42-.46-.28-.43-.14-.46h-.15l-.27-.44-.15-.24-.69-.67-.15-.22-.27-.22v-.22l-.28-.24-.85-1.33-.13-.24-.15-.22-.27-.21-.15-.24-.42-.44-.27-.22-.84-.24.27-.43-.84-.68-.14-.22H478v-.24h-.13v-.43h-.42l.13-.46v-.22l-.42-.22-.27-.24-.15-.21h-.42l-.13-.22h-.42l-.14-.24h-.15l-.13-.22-.14-.22-.42-.67-.84-.9-.29-.22-.55-.45-.84-.68-.84-.44-.29-.24.29-.89.42-.44L473,86.56l.15-.22H473v-.67l.28-.68.14-.89.15-.24.13-.44.42-.67.29-.9.13-.45.14-.22v-.46l-.27-.22-.15-.44-.27-.23-.15-.44V77.82H474v-.24h.13v-.22l-.13-.22h-.15l-.69-.22-.84-.23V73.33l-.15-.68L472,72v-.22l-.84.45-1.54.66h-.56l-1.12.24h-1.13l-.42-.24H466l-.69-.22H465l-.13-.22h-.15l-.27-.22h-.57l-.71-.23-.27-.22h-.84l-.28-.22h-.42l-.56-.24H459.4l-1-.22h-2l-.71.22h-.69v-.22h-1.68l-.15-.22h-.56l-.28-.22v-.23l-.14-.22-.13-.22-.15-.24-.27-.89v-.22h-.15V68.4l.15-.24H451l-.7.24-.27.22-.71.45-.7.44h-.29v-.22l-.13-.22-.14-.23v-.22l-.15-.22-.84.22h-1.53L445,68.4h-.27l-.15-.24V67.05h-.14l.14-.22.15-.46.13-.22v-.22l.14-.23h-.14l.29-.68.27-.44h-.27l-.29-.22h-.55l-.15-.23h-1.26l-.14.45-.28-.22h-.84l-.29.22H441l.15-1.57.27-1.79V61l.14-1.34V57.17l-.14-.44v-2h.14l.13-.9.29-1.35.7-2.46.56-2,.57-2.46v-.24H444V44l-.13-.24V43.5h-.15v-.22h-.14V43l-.13-.22h-.15l-.14-.21-.28-.46-.42-.68-.14-.22-.15-.43H442v-.24h-.14v-.44h-.15v-.67l.15-2v-2.9l.14-.24v-.68l.13-.21v-.22h.15v-.46h.14v-.22l.13-.22v-.45h-.13v-.22l-.14-.46-.28-.68v-.21h-.14v-.44l-.15-.24v-.44l.15-.89.14-2,.28-1.57v-.89l.14-.22v-.46l.13-.45V22.2l.15-.46V20.63l-.15-.9-.13-.67-.14-.9-.15-.67v-.22l-.13-.68V15.7l.13-.24h-3.63l-.84-.22H434.6l-.15-.22h-1.11l-1-.45h-1.13l-.7-.22h-.27l-.15-.22h-.56l-.55-.24h-.71l-.42-.22h-.42l-.69-.22-.84-.23h-6.32l-.42-.22H419v-.22l-2.51-.22-1-.24h-1.26v.24l-1-.24h-.12l.12-.22-.42-.22h-2.93v-.23h-.28l-.14-.22-.15-.22-.27-.22h-.57l-.13-.24-.56.24-.42.22-.3.22h-.42l-.42.22h-.12l-.42.23h-.57l-.56.22h-1.54l-.29.22h-.42l-.55.24h-2.11l-.28.22h-1.11l-.42-.22H397l-1.13-.46h-.7l-.42-.22-.42-.23h-.42l-.42-.22-.42-.22-.71-.22-.27-.24-.29-.22h-.13l-.42-.45-.42-.22-.42-.22-.57-.46-.56-.44-.84-.45-.28-.22-.42-.22-.56-.46-.84-.45-.15-.22-.84-.22-.27-.22-.42-.46-.42-.22-.42-.23-.57-.22L383,4.93l-.29-.22L382,4h-.71V3.8h-1.26l-.13-.22h-.42l-.14-.22h-.15l-.56-.22-.55-.24-.57-.22-.69-.22h-2.67l-.56.22h-3.23l-.84-.22H368l-.42-.23L367,2l-.57-.22-.13.22-.14-.22h-.42l-.84-.46h-.42l-.57-.22h-.14l-.7-.22-.56-.23h-.7l-.56-.22h-.42l-.42-.22L360,0h-3.93l-1,.22h-.42l.14.22L354,.66l-.57.23-.84.22-.42.22h-.27l-.42.46-.3.22-.27.22-.57.23h-.42l-.42.44-.42.24-.69.22-.84.44h-.14V4h-1.26l-.72.22-.42.22h-.69l-.15.24H342.9l-1-.24h-1.53l-.57-.22H337.3L336.61,4l-1,.22L334.91,4h-.55l-.42.22h-.42v.22h-.42l-.42-.22-.71.22h-.69l-.57.24-.69.22-.71.22-.42.22-.57.23-.69.22-.57.22-.55.24-.71.44-.69.45-.72.44-.54.24h-.71l-.13.22-.42.22H322l-.56.22h-.57l-.69.23-.57.22h-1l-.44-.22h-1l-.57-.23h-.56l-.55-.22L315,8.07h-.29l-.55-.46-.56-.22L313,7.17h-.27V6.94h-.15V6.72h-.42l-.13-.22L310.94,6h-.69l-.42-.22h-.57l-.42-.22-.42-.23h-1l-.28-.22V6L307,7.17v.68l.14.44v2l-.14.22v2.92l-1,1.34-.42.91-.13.22h-.14l-1.41,2.46-.69,1.12-.29.67-1.81,3.14-1.13,2-.84,1.11h-2.25l-.27-.44-.29.44.14.89-.84-.21h-.56l.29.89-1,.89-.42.46-1,1.11-.42.46-1.41,1.57-.55.46h-3.23l-1.82.89-1,2-.42.89-.84,1.57-.56,1.14-.13-.22-.15-.24-.27-.22h-.15l-.14-.22h-.13l-.15-.24-1.53-.43-1-.22-1.4-.46.56-1.11L278.7,35l.28-.43V34.3l.42-.89-.7-.22-.56-.22-.27.65h-.3l-.42-.21h-1.53V33l-.15-.24-.14-.44-.13-.45-.15-.68-.14-.44h-.28l-.84.22h-.56l-.55-.22h-.86l.71,1.12v.45l.15.9.13.89-.42-.22h-.13l-.29-.24-.27-.21-.3-.22-.84-.22h-.84l-1.11,1.57-.42.43-.42.68-1.68-1.35-1.13.89.57,1.14.69,1.35L267.77,41h-.15l-1.68.89-.83.68-.57.21-.27.22-.3.24-.69-1.13-.27-.22-.15-.22-1,.68-.12.22-2.12,1.57-1.53.89L257.8,44h-.12l-.42.22-.42.21-.84.68-.3.46-1.11.65-1,.92-1,.65-.42.46-.42.22.15.24-.57.43-.13-.22-.29-.45-.27-.44-.57-.68L250,47.1l-.12-.46-.3-.46h.3l-.15-.22v-.22l-.15-.67-.27.22-.15-.22-.42.22-.27.24h-.27l-.42.21-.15.22h-.29v.22h-.13l-1.13.68-.69.24-.28.21h-.29l-.13.22h-.14l-.15-.43-.27-.68h-.42l-.57.22h-.27l-.3.22h-.27l-.14.24h-.28l-.42.21-.56.22.29.68-.42.22-.57.45h-.42l-.29.22-1,.46-.29-.46-.42.22h-.27l-.15.24h-.55l-.14.22h-.42l-.29.22h-.42l-.28.24-.42.43-.56.22h-.13l-.42.24-.29.22-1,.46-.13-.24-.29-.22h-.13l-.42-.46-.42-.22-.29-.22-.13.22h-.14l-.15-.22-.13.22h-.14l-.28.22-.14.24h-.15l-.14.22.14.46h-.14l.14.21.15.22h.14v.22h.28l.14.24h.42l-.42,3.58-.56,3.81-.15.68-.14.22v.67l-.13.46-.29.67-.13.44-.15.46-.14.44-.28.67-.27.68-.71,1.35-.28.67-.42.66-.27.24-.44.22h-.13v.22L225,68.4l-.27.67-.28.66-.29.91-.13.22h-.14l-.15-.22h-.69v-.23h-.42l-.29-.22h-.42l-.28-.22h-.14l-.28-.24h-.14l-.13-.22-.15-.22v-.22l-.14-.23-.13-.22v-.46l-.15-.22-.14-.22h-.13V67.5h-.29l-.13-.23-.15-.22-.27-.22h-.15l-.14-.24h-.15l-.13.24-.14.44-.42.89-.15-.22-.13.22v.24l-.14-.24-.15-.22h-.42l-.27-.22h-1.55l-.42.22h-.7v1.13l.15.44v.68h-.71l-.28.22v-.22l-.14.22h-.42l-.13.23h-1l-.29-.23h-1.11v.67l-.15.22v.46l-.42,1.11-.27.68-.15.45v.44l-.13.24v.22l.13.22h.15l.14.23h-.29l-.69-.23h-1.83l-.14.23h-.28l-.42.22h-.14l-.28.22h-2.81l-1.38.46-.86.22-.28.45-.27.22-.42.44h-.15l-.27.24h-.42l-.42.22h-.42l-.29.22h-.42l-.28.23h-.29l-.69-.23h-.15l-.54-.22-.57.22-.71.23h-.7l-1,.66h-.28l-.42.24-.27.22-1.55.22-1-.44H186l-.13-.24h-.29l-.13-.22h-.29l-.55-.22-.57-.22-.27.44-.14-.22h-.15l-.15-.22h-1v.22l-.15-.22v-.23L182.1,78l-.42-.46h-.12l-1-.44-.57-.22-.56-.23-.42-.22-.7-.22-.14-.24-1.53-.66h-.15l-.27-.23h-.3l-.54-.22-.42-.22-.42-.24h-.15l-.57-.22-.12-.22-.72-.22-.83-.67-.7-.46h-.14l-.28.22-.29.24-.27.22-.28.22-.14.23-.15.22v.44l-.13.24-.14.22-.28.45-.29.44-.42.22-.57.24-.84.22-.69.22-.84.23-1.26.44-.84.22-.29.24-.55.22-.29.22-.13.23h-.29l-.84.44-.56.46-.42.22-.55.45-.71.66-.84.68-.7.67v.22h-.29l-.13-.22v.68h-.14l-.15.22-.27.23v.22l-.42.44-.28.24-.14.22-.28.21-.43.46-.28.44-.42.46-.27.45-.29.22-.28.44-.27.24v.22l-.71.89-.28-.22v-.22l-.27-.24.13-.21h-.28L151.4,87l-.27-.22-.15-.44v.22l-.55.44-1.26.91-2,1.57h-.14l-.42.22-.28.22-.56.22-.42.24h-.28l-.42.22-.56.45-.57.44-.69.22V92h-.15l-.27.22H142l-.42.21h-.28l-.71.24-.69.22h-.57l-1,.44h-1.12l-.42.24h-.14l-.28.22h-.56l-.57.21h-.55l-.29.24h-.84l-.14.22H133l-.13.22-.42.46-.15.22-.14.21-.28.24-.14.22-.28.44-.56.24v.21l-.13-.21L130.1,98v.24l-1.12.89-.42.44-.29.24-.55.43h-.14l-.28.24-.14.22h-.42l-.84.22-.71.22-.28.24-.56.21-.42.46-.84.44-.28.22-.71.24-.42.21h-.27l-.7.46-.83.44h-.44l-.42.22h-.13l-.42.24-.42.21-.42.22h-1.41l-.84.24-.42.22h-1.4l-1,1.11-.27.24-.42.22-.57.22-.56.22-1,.45h-.29l-.13.22h-1.82l-.3.24h-1.38l-.72.22h-1l-.55.22-.84.22-.42.23-.86.44-.69.24h-.42l-.27.22-.57.22-.42.45-1,.22H98l-.28.22H97l-.29.24H94.06l-.84-.24L93,111H91.27l-.29-.22h-.69l-.57-.23h-2l-.42-.22-.15-.22h-.15v-.22l-.54-.46-.15-.22-.27-.23-.15-.22-1.26-.9-.56-.22-.13-.23h-.15l-.14-.22-.15-.22h-.27l-.28-.22h-.29l-.42-.24H81l-.42-.22H80l-.54-.22H74.17l-.15-.23h-.27l-.15-.22-.69-.44-.29-.24h-.28l-.27-.22h-.42l-.57-.21h-.27l-.42-.24h-1l-.71-.22h-.27v-.22H68l-.15-.22h-.42l-.27-.24h-.28l-.29-.22h-.27l-.15-.21h-.42l-.14-.24-.42-.22h-.28l-.42-.22h-.14l-.28-.22h-.14v-.24H62.25l-.28-.22h-.29l-.27.22h-.15l-.13.24-.42.22H60l-.27.22H59l-.42-.22H57.34l-.13.22-.15.22-.14.24-.13.21-.29.46-.42,1.11-.13.46-.15.44-.14.22-.13.23v.22l-.15.22-.14.68-.15.22v.23H55l-.42.68H54.4l-.28.22-.14.22-.28.22-.42.23-.42.22-1,.68-.71.22-1.12.89-.69.46-.29.22-.42.22h-.28l-.29.23-.42.22h-.84l-.27-.22-.84-.45-1-.44-.42-.24L44,111l-1.13-.67h-.28l-.14-.22H42.2l-.56-.22-.57-.46-.42-.45-.55-.22L39,108.08l-.69-.67-.71-.44-.7-.46h-.14l-.28-.22-1.4-1.78-.28-.24-.42-.22-.84-.9-.42-.21v-.24l-.41-.44-.42-.46-.3-.22-.54-.67-.57-.44H30.7l-.14-.24-.28-.67-.14-.22H30l-.29-.22-.13-.22h-.15l-.27-.24h-.29l-.42-.22h-.13L27.91,98l-.56-.44-.57-.46-.57-.43h-.12l-.42-.24-.3-.22V96H25.1l-.27-.46h-.3l-.42-.21h-.27l-.15-.22h-.12l-.15-.24-.29-.22H23l-.15-.22-.42-.22-.27-.45h-.29l-.42-.46L21,93.06l-.13-.22-.29-.22-.42-.24-.27-.21-.3-.22-.42-.46-.12-.22h-.15l-.15-.22v-.24l-.12-.21v-.22l-.15-.24-.27-.66-.72-1.13L17,87.24l-.3-.68h-.27l-.15.22h-.69l-.29-.22h-.13l-.14.22h-.28v-.22l-.14-.22-.15-.24H13.33l-.28-.21-.14-.22-.15-.24-.15-.22h-.27V85h-.15l-.12.22h-.42l-.15.22h-.27l-.15.24-.27.43h-.3l-.12.24-.42.44L9.82,87H9.67v.24H9.55v.43H9.4v.9H9.26l-.15.24L9,89H8.84v.45H9l.13.22.29.44.15.24.27.43H10l.12.24.3.22.27.22v.22l.42.24.15.22v.45l-.15.44v.46l-.27.67h-.15l-.15.22.15.22v.46h-.15l-.12.22h-.15l-.42.21-.15.24H9.55V96H9.26v.22l-.15.46v.21H9v.46l.13.22V98L9,98.44v.46h.13l.29.44.15.46.12.21.15.22h.27v.24h.72l.27.22h.27l.3.22h.12l.15.22v.24h.15v.43h.27l.15.24h.12v.22h.15l.15.44.14.24.13.21v.68l-.13.68-.14.21-.15.22v.24l-.15.44v.67l-.42.9v.22l-.12.23-.15.68-.15.44V109h-.12l-.15.23h-.27v.22h-.15v.46l-.15.22v.67l.15.22v.22h-.15v.46l-.12.22-.15.22-.15.67h-.12v.46h.12v.44h-.12l-.15.23-.15.22v.46l.15.44-.15.45v.44l.15.24.42.22v.44h-.15l-.42.23-.12.22H9.82v.46H10V118h.12l.15.22h.15v.22h.12v.91l.3.66.12.23v.9l.15.44V122l.27.68.15.44h.15v.23H11.5v.44h-.15v.46l.3.89v.46l.12.22.15.22.15.22h.27v.23l.15.22h-.15l-.15.22v.46l-.12.22v.67l-.3.22-.27.24h-.15l-.12.22-.15-.22h-.57l-.27-.46h-.15l-.12-.22H9.55l-.29.22H8.84v.22H8.69v.24l-.13.44-.14.45v.44l.14.24v.22l.13.22v.45l-.13.44v.24l.13.22v.22l.42,1.13.29.89.15.44v1.35l.12.46V137h.15l.15.23.27.44h.15V139l-.15.44v.46l-.15.22-.12.23h-.3v.22l-.12.22v.46h.12v.22h.72v.22l-.15.23v.66h.15v.24h.54l.15.22v.67l.15.22v.22l.12.24.15.67h.15l.12.22v.22l.3.46.12.22h.15l.15.21h.12v.24h.3v.22l.14.44.13.46.15.45v.22l.27.44v.67l-.13.68v.68l.13.21.15.46.14.22V152H14v.24h.15l.14.21.28.22.56.46.27.22.28.22.71.46h.15l.27.21H17l.12.24h.15l.27.44.42.46h.15l.15.21.12.22.15.46.15.44.27.46v.21l.27.68v1.13l-.12.22-.15.22-.15.22v.24l-.12.21-.15.22v.68l.15.46.27.43v.24h.15l.12.22h.42v.89h.15l.15.22h.14l.13.24h.15l.27.22H21l.14.22h.42l.15.22h.13l.14.24h.15l.13.21h.84l.14.22v.46l-.14.22-.13.22-.15.24-.14.21h-.13v.22l-.57.24v.44l.15.89.13.24v.66h.14v.23l.15.22.27.22.28.46v.22h.14v1.79l-.14.23-.13.44-.15.46v.89l.15.22v.46l-.15.89-.14.46-.13.44.13.22.14.23h.42l.15.22h.42l.15.22.27.24v.22l.27.44-.12.23-.15.22-.15.22H24v.24l.12.22v.22l.15.22.27.23.15.22.15.22v.46l-.15.22h-.15l-.12.67v.46l1.11.66h.15l.12.23v.22h.15l.27.46v.22h-.12v.22h-.15l.15.22h-.15v.23h-.15v.44h.84l.42.24.3.22h1.4l.27.22.15.45.27.44h.15v.24h.13v.22l.14.22v.22h-.14v.23h-.13v.44l.27.46v.44h-.14V190h-.13v.44l.13.24v.22h-.13v.22l-.15.45-.14.22v1.35l-.13.22v.22H29v.24l-.14.22H28.6l-.42.22-.27-.22-.86,1.11-1.38,2-.3.43L25,198l-.42.68-.12.22h-.3L24,198.7h-.72l-.14.22H23l-.15.21-.14.46h-.13l-.29.22h-.13l-.15.24h-.14l-.28.22-.27.22-.15.21-.14.24H20.9l-.29.44-.13.24-.14.22v.22l-.15.21v.24l-.13.68v.43l-.14.46-.15.44h-.15l-.12.24h-1V205h-.15l.15.22v.21l.15.24v.44h-.15v.24H16.83v.22h-.15v.67l-.12.22.12.22h.57v.67l-.15.22-.12.24h-.15V209l-.15.46v.65h-.12v.24l-.15.22-.15.22v.46l-.14.43v.24l.14.22.15.46v.22l-.15.21h-.14l-.13.22h-.71l-.13.24h-.29v.22h-.13v.68l-.14.21-.42.9-.28.67-.14.22H13.6v.24h-.13v.22h-.14l-.15.22v.46l.15.21h.14l.13.22v.24l.29.22.13.22v.24l.15.21.14.44.13.46v.22l.15.24h.14l.13.21.15.22.14.22h.13l.14.24.42.22.57.67h.15l.12.22v.22l.15.24v.22h.57l.12.22-.12.24-.15.21-.15.22H17v.68l.12.45.15.22v.44h.15l.12-.22v.22h.15l-.15.24h.15v.22h.27v.22h-.12v.24l.12.21v.22l.15.22v1.35l.15.22v.24l.27.44.27.67h.15v.9l-.15.45-.12.68-.15.22-.15.22-.12.23-.15.22-.15.22h-.12l-.3.22H17.4v.24l-.15.22v1.11l.15.24v.22l.12.22.15.45.15.22v.46l-.15.44-.15,1.13v1.57l-.12.22-.3.67-.12.22V242h.12v.22h.42v.23h.15v1.12l-.15.22-.12.23h-.15l-.15.22H17l-.3.44-.12.24v.22l-.15.22-.15.45-.14.68-.13.89v.22l.13.22V248l.14.22v.67h.15v.44h.15l.27.46.15.22v.23h.27l.15.22h.12l.15.22.42.46.15.44h.12v.67l-.27.46v.44l.15.45v.68l-.15.22v.67l.15.22.12.22h.84l.15.24.15.22h.27l.42.21h.15l.56.68h.27l.15.46h.13l.29-.24.13.24H22v.43h-.27l.27.24.15.22h.13l.14.22.15.22V259h.13v.22h.14l.15.21h.13v.46l.14.22h.42v.22h.15l-.15.24h-.27l-.15.22V261h.15l.15.24H24v.22l.12.22-.12.46h.12l-.12.22h-.3v.21h-.12v.24l-.15.44v.46h-.71V264h-.13v.45h-.15v.22l-.27.44v.24h.42v.43h-.29v.68h.42v.22l-.13.24h-.15v.21h.15v.22l-.15.24h-.14V268l-.13.22h-.29v.24h-.13v.21l-.15.22-.14.24h-.13v1.11h.13v.22h-.13l-.15.24-.14-.24h-.27l-.15-.22h-.13l-.14.22v.68l-.15.22h-.57v-.22H19.5v.22h-.42V272h-.15l-.15.24-.12.22-.3.44-.12.24v.43h.12v.24h.15l.27-.24.15.24h.15v.22h-.15v.22h-.15v.22h-.12v.67h-.15v.24h.27l.15.22v.22h.15v.22h.12v.45l-.12.22V277l.12.44-.12.22h-.3v.23h-.12l-.15.22h-.15l-.12.22h.12v.46l-.27.22-.15.22v.23l-.12.22v.22h-.15v.24h-.15l.15.22v.22h-.42v.22H17.1V281l-.42.68H16l-.29.22h-.13v.22l-.15-.22H15l-.15.22H13.75v.22l-.15.23h-.13l-.14.22v.46h.14l.13.22v.67h-.42v.22h-.13l-.14.22-.15.24V285l-.15.22h-.12l-.3-.22h-.12v.22h-.15l-.15.22v.23h.57v.22h-.15v.22h-.27l-.15.24-.27-.24h-.15l-.12.24h-.3l-.12.22-.15.22h-.15l-.12.22.12.23h.42v.44h-.12l-.15.46h-.15V288h-.12l-.15.22h-.15V288H9.82v.89H10v.22l-.15.22H9.67v.24l-.12.22V290H9.4l.15.22-.15.23H10l.12.22-.12.22v.46h.27v.22l-.15.22V292H10l-.15.22-.56.9-.57.67-.27.68-.28.22-.14.45-.42.44-.15.46-.27.44-.15.45-.27.46v.22l-.28.67-.14.22v.22l-.28.68-.14.67-.3.68V301l-.12.45v.22l-.15.22v.24l.15.22v.22l-.15.45v.22l-.15.46-.12.44-.15,1.13v.89l-.15.68V307l-.12.22v.67l-.15.22v.68l-.15.21v.24l-.12.22-.15.9H3.92v.45l-.12.22-.15.22-.14.46-.13.22-.15.67-.14.22-.13.24v.22H2.81l-.14.22-.13.21-.15.24v.22H2.25l-.15.22-.13.24H1.83l-.15.22-.13.22H1.41l-.15.21H.57L.15,316v.24l-.15.44v1.13l.71.22H.84l.29.21.28.22h1l.28.24.14-.24.15-.22.13-.21v-.22h.14v-.24H3.8v-.22H4.91l.27.22H6.59l.15.24H7.3l.55.22.42.21h.57l.42.22.41.24.42.22.42.22.15.24h.15l.54.22.15.21.27.22v.24l.42.44.3.46.27.43.29.24.13.22.15.22v.24l.27.43.42.22.15.46.27.46.15.43H15v-.21h1.25l.42.21.72.46h.27v.22h.15l.12.22v.24h.15v.22h1l.54.21.57.22h.57l.14.24h5.61l.69-.24h1.68v.24h.84v.22H30l.13.22h.14v.24h.15v.21l-.29.22.42.68.56.67.57.68.57.44.12.24h.42l.15.21h.56l.84.44h.84l.84.24.57.22h2.52v.22h.14l.7.24h.56l.84.21h1l.69.22h.7l.14.22h.42l.15.24h.27l.15.22H45l.12.22h.29v.24l.28.21-.15.22v1.14l-.13.89v1.79l-.29.89-.12.22-.3.46-1.26-.22-.14,1.33v1.81L43.19,344h.69l.57-.22h1.11l.84-.24.15.24h.27v.44l-.13.67v2l.13.22v1.57l.15.45v1.57l-.15,1.57v.22l1,.68.42.22h.29l.13.22v.23l-.28.9v.67l-.14.44v.9l-.15.23v.22l-.13.68-.14.44V359h-.15v.46l.42-.24,1.55-.22.42-.22h.15l1.39-.22,1-.45,1.26-.46,1.13-.44,1.68-.45-.14.67-.13,1.13-.29,1.34v.45l-.13.44L55.8,362l-.14.44v.68l-.28.67h.7l.84.22h1.4l.84.24h2l1.39.22-.13.67-.14.9-.15.89.15.46V370l.84.22.84.46,1.68.67,1.27.44,1,.24h.29l.42.22h1l.29.21h1.41l.13.24h.14l.15-.91,1.38.24v-.46l.15-1.11.15-.46v-.22H75l.56-.22h1.26v-.45l.57-.22.13-.24.29-.22.27-.22h.28l.29-.22.27-.23H80l.57-.22h.29l.13.22h.15V368h.14l.13.22L82,368l.42.22-.42.9-.15.21,1.26.68h.42l2,.68L85,371.82l1.67.91-.54,1.12.27.21h.69l.3.24h.27l.15.22.27.22.15.22.14.45.13.22v.24h.15l.14.22v.22l.28.22.27.24.15.22.27.45v.22l.15.22v.22l.14.46V379l.13.22v.22l.15.22h.14l.42.24.69.67L92,381h.15l.42.22.42.24h.42l.57-.24h.12l.15-.22h.27l.3-.22h.14l.28-.22h.42l.27-.24h.84l.14-.22h4.5l.27.22h.71l.27.24H103l.15.22h.55l.14.22H104l.27.22h.28l.29.24H105l.14.21h.3v.22h.12l.15.24,1.11.66,2.67,2.24-.28.46-.56.44.15.45.27.46.14.66.15.45v.46h.13v.22l.14.89v1.57l.15.22v.46l-.15.22v.22l.15.45.13.22v.24h-3.63l.12,1.11.15,1.12.15.67v1.13l.12,1.12h.3l.12.45h2.67l1,.22h.7l.42.22v.68l.44.22v1.13l.27.22.57.22.69.23.27.22h.15l.84.22h1.82l.28-.22h.42l.29-.22.55-.23H120l.57-.22.56-.22h.55L122,401l2.1-1.35.84-.46.15-.22.69-.22.42-.23.28-.22.14-.22.57-.22.14-.24h.42v-.22H128l.56-.22.42-.23h.28l1.13-.44h1.26l.42-.22h1.26l.13.22H134l.15.22.27.22h.15l.42.23h.14l.28.22h.27l.42.22.84.46.29.22h.15v1.13l.69.66.28.23.29.22.69.46.28.22.56.67.28.22.29.22H141l.29.24.13.22h.15l.27.67H142l.27.22.42.46.29.22.55.22h.15l.14.22h.28l.42.23.14.22.28.22.29.24h.13l1.4,1.57h.15l.27.22.28.22.29.22h.14l.13.23h.42l.42.22h.29l.42.22h.13l.29.24.28.22h.14l.13.44h.29l.13.45.15.22.42.46.14.22.42.67V412l.15.22.27.44.15.23.13.44.56.68v.22h.15l.42.67.42.46.13.22.14.21.71.68.84.9,1.26,1.56.28.24.14.22.28.68.56,1.11.28.46v.22l.42.67.14.22h.15l.69.89.42.68.27.24.15.22h.27l.15.21h.15v.22h.56l.28.24h.56l.28.22.84-.22h.14l.84-.24,1.26-.43.15-.22h.42l.42-.24h.12l.3-.22h.54l.15-.22.42-.24.29-.21.28-.22h.27l.15-.22.56-.68.28.44.27.24v.22l.29.22.28.45.56.9.42.67.15.22.12.46.15.22.15.22.27.45.15.22-.72.68-.42.43-.27.24-.56.44h-.15v.24h-.13v.22h-.14v.21h.27v.46l.57.9,2.24-1.79h.27l.15.43,1,1.57.12.22h-.12l.12.24.3.22-.15.22h.15l.42.89-.84.46.56.89.13.22.29.24.13.22v.22h-.13l.13.24.15.22.14.43v.24l-.14.22.42,1.11.14.24.13.22.15.89h.14v2h.69l.15.44v.24l.69,1.33.15.89h-.42v1.13l-.15.68v.68l-.27.89-.15.22-.14.46-.42.21h-.42l-.84.22-.42.22-.42.24h-.57l-.27.22H174l-.42.22-.42.23-.42.22-.29.44-.27.24-.28.22-.14.45-.28.22-.14.22-.15.46-.27.44v.23l-.15.22-.13,1.12-.29.89v.46l.15.45-.15.22v.44l-.13.91-.14,1.34-.15,1.35v3.36l.15,1.35v.22l-.7,1.57-.14,1.13-.15.89-.15.68-.12.89-.15.22-.27.22.12.24-.12.44-.42.89-.3.46-.12.67-.3.68-.42.67-.27.68-.27.44-.29.45-.28.68-.29.65-.13.24-.42.44-.29.46-.27.22-.84.45-.7.44-.29.46-.42.22-.42.45h-.15l-.12.22-.15.46-.42.89-.27.68-.15.44-.27.45v.22l-.15.46-.14.44-.13.45-.15.22-.14.22-.13.24.13.89.29.68.55,1.79.14.21.28.9.29.46.12.67.3.68h.54l-.27.22-.15.21v1.14l-.12.89-.15.22-.27.46L160.8,497l-.14.46V501l-.13.9-.15,1.13v1.57l-.14.44v.67l-.13.46v.44l-.15.45v2l.15.24V510l.13.22.14.22v1.13l.15.44v.22l-.15.24-.14.22v.22l-.28.23-.14.22-.42.22v.22h-.28V514l-.14.22.14.22v.45l.15.22.13.22v.24l.14.44.57.45.27.44.28.24.56.44.57.23.27-.45h2.67l.27-.22h.15l.27-.24.44-.22.42-.22.42-.22h.42l.42-.23,1-.22h.42l.3-.22.27-.24.42-.22.57-.44L171,514l.28-.24h.14l.55-.66h.15l.71-1.13.12-.22.72-.67.12-.22.3-.24.54-.44.3-.22.12-.23h.15l.42-.22h.27l.57-.46.57-.22.42-.43.27-.24.42-.44.29-.46.42-.44.55-.67v-.24l.14.24.42-.24.42-.22.3-.43H181V505l.27-.22.3-.9h.12l.15-.45v-1.33l.15-.24-.15-.22v-.22l-.15-.46h-.12v-1.11l-.15-.46v-.21l.15-.46.27-.44v-.46l.15-.43.12-.24v-.68l.15-.43v-.68l.15-.22v-.24l.12-.22v-.21l.15-.46.15-.22.12-.22.3-.46h.12l.71-1.11.15-.24.27-.22h.15l.28-.43.14-.24.13-.22.14-.46.28-.65v-.46l.14-.22.28-.67V488l.14-.24.15-.22.42-.67.27-.22.15-.22.27-.24.3-.44.12-.24.3-.21.27-.22.27-.22.72-.68.41-.24.28-.43.42-.46.14-.44h.15l.27-.45.15-.22h.13l.71-.68h.13l.14-.22.15-.24.13-.21v-1.12l.14-.45.15-.22H193v-.22l.29-.24.27-.44.15-.24.13-.43.14-.46v-1.11l.15-.68.15-.22.27-.23.27-.68.42-.44.15-.45.15-.22.12-.22.15-.24.15-.44.83-.45,1-.44.13-.24.14-.22v-.22l.15-.22.42-.45.55-1.12.29-.23h-.71l-.28-.22h-.27l-.42-.22-.29-.24h-.28l-.29-.22-.27-.22v-.22l.27-.23h.42v-.22h.15l.14-.22.15-.24H198v-.22l.14-.22.15-.22.13-.23.29-.44.27-.24v-.22l.15-.22.27-.22h.15l.13-.23h.14l.15-.22.13-.22.29-.24.13-.22h.14l.15-.22H201l.15-.22h.27l.15-.23.27-.22.15-.22.14-.24h.13l.15-.22.15-.22.12-.22.15-.23v-.22L203,460l.28-.24.14-.22h.13l.29-.22.13-.22h.15l.27-.23h.15l.14-.22h.15l.27-.22h.28l.29-.24h.55l.14-.22h.28l.14-.22h.15l.13-.22h.14v-.67l.15-.24v-.44h.13l.14-.22.15-.23.27-.22.42-.22h.3l.12-.24h.42v-.44l.15-.45.14-.22v-.22l.13-.24h.15l.14-.22.13-.22h.29l.13-.22.15-.23.14-.22h.28l.69-.46.57-.44.71-.22.42-.23.27-.22.84-.68,1-.67,1.11-.9.84-.67.29-.44.42-.68.42-.45.42-.44.42-.24v-.22l.42-.89v-.22l.28-.24.14-.22v-.89h.15l.13-.46v-.22h.14l.15.22.55.24h.29l.13.22h.29l.84.22.84.24H225l.42.21H227l.42-.21h1.12l.56-.24.15-.22h.42l.14-.22.28-.24.56-.22.7-.43h.42l.27-.24h.71l.28.24.29-.24h.84l.27.24.15-.24.42.24-.15.65v4.06l.15.43v.9l.13.67V449l.14.44v4.49l.15.67v1.79l-.15.22v1.13l-.14.9-.13.45-.29.9v.22l-.13.22h.27l.57.23,1.4.22,1.54.22v.22l.14-.44.13-.67h1.26l.44.22.42-.44.55.22H242l.27.22.69.67.72.46.84.67.27.22h.15l.56-.89.28.22.69.67.15.22h.14l.13.22,1,1.13.41.22v.22l1.26.91,1.41,1.12.29.22.13.45v.22h.15v.22l.14.24.7,1.11.42.9.14.23.13.44.15.22.14.24.13.22.29.45.13.44.14.22.15.46V473h.13v.23l.15.66.14.24h.15v.22l-.15.45.15.44v.24l.12.66v.67l.15.24.15.65v.46l.12.22v1.35l.15.22-.15.24v.65l.15.46v.22l-.15.24v.65l.72.24v-.24l.69-.21.15.67v.46l.12.44h-.12V484l.12.24v.22l.3.68.12.43.15.68.15.24.42,1.11V488h.14v.22l.13.43.15.68.14.46h.13V490l.29.46h-.14l.14,1.11v.68l.28.89.14.46-1,.68-.72.43-.54.46-.57.44-.57.46-.54.43-.84.68.12.24.15.43-.84.68h-.29l-.42-.22-.27.22-1.12,1.35-.42.68-.42.65-.14.24h-.15l-.84.44-.57.45h.3l-.15.22h-.15l-1.11.68v.22l.57.67.42.68.42.46.69.65.42.46,1.13,1.35,1.39,1.33.84,1.13.86.9.54.89.57.68h.15l.12.22h4.07l.15-.22,1.41-.46.12-.22h.15l.57-1.35.54-1.33.3-.46.42-.89-.3-1.12-.69-2,1-.9.42-.21.42-.24.42-.44.69-.46,2.54-1.57.12-.22,2.1-1.35.72-.43.56-.46h.27l.28-.22H273l.15-.24.13.46h.14v.22h.15v-.22h.27l.42-.9.57-.89.42-.89h.13l.29-.24.27-.22.15-.22.15-.24.12-.22.3-.67.12-.22.15-.22v-.24l.15.24.12-.24h.15l.57.24-.15.22.42.22.14-.22v-.22l1.41.68,1.11.43,1.68.68.42.22.57.24.69.43.57.46.42.22.42.22H286v.24h-.15l.29.21,1.12.9,1,.68.15.43,1,.68,1.13.89.27.24.15.22H291l.7.67,1,1.12.28.45.56.22.28.22,2,1.81.13.22h.14l.28.45.56.44h.15l.14.46v.44l.55-.22.15,1.35.14.67.28.9.14.67.13.44.15.46H300l1.26-.24h.14v.46l-.14.67h.42l1.13-.22,2.66-.45,2-.46.71,2h-.71l-.28.22-.42.23v.44h-.42v.68l.13.22.42,1.35.15.45-.57.44h.15l.56.68.55.67.57.68,1.4,1.79,1.41-.9h.27l2,3.36v.22l-1.82.91h-.15l-2.79,1.57.13.44.29,1.13V529l-.15.22.15.46h.13l.14.22h-.14v.22l.14.23v.22l.42.68.28-.24h.29l.27-.22.15.68.13.67.14.44v.24l.42.67.29.22V534l.42.68.13.45.15.22.14.22.28.46-.15.44-.27.67-.42,1.57-.15.46-.13.22v.21h.7l.27.24h.15l.42.44h.27l.71.22h1.12l-.7,1.57-.42,1.13-.56,1.11-.15.46h-.13l-.56.9H313v.21h.29l.55.24h.71l.57-.24-.57.9-2.39,1.81h.15l-.15.21.71,1.12h.28L314.3,553v.24l1.83-.68.56.44h.15l1.11.91h.15l.69.66h.29l.13.24.29-.68h1.26l1.41.89.69.22H323l.69-1.11.27.22.84-1.11.57,1.78h.15l.27.22h.29l.28.24h.42l.27.22h.29l.13-.22h.15l.27-.24.29-.22.7-.45H329l.15-.22.54-.22h.15l.27-.22h.15l.42,1.11.15.22.12.46v.68l.15,1.11h.42l.15-.22.12.22,1-.22v.22l.57.67.56.9v.22h.28v.23h.14l.42.68.13.44h.15l.56.45v.22l.13.22h.15v.24l-.15.22h-.13v.22h-.15v.45l.15.22.13.46.29.66.13.67.15.24.29.44.12.22.57.45.69.9.42.45v.22h.15l.69.9.15.22.71,1.13v.22l.13.45v.9l.15.22.14.22.28.45.56.9h.13l.15.22.14.23v.22l2.79-.45h3.09v-.66l.15-.24.14-.44.28-.67V570.3l.14-.22v-.22l.13-.22.14-.24h.15l.13-.22V569l.29-.45.13-.22.29-.46v-.22l.13-.22h.14l.15-.23h-.15l.28-.22v.22h.29l-.15-.44-.14-.68v-.22h.14l3.24.22.83-.45.7-.66.29-.24.69-.44,1.56-1.13,3.06-2.24.29-.22h.42l.57-.22h.42l.13-.22h.29l.27-.24.15-.22.55-.45h.14l.15-.22,1.26-.9,3.08-2.24-.14-.22h-1.12l-.42-.22-.14-.24-.57-.43-.27-.24h.14l-.14-.44-.15-.22h.15v-.24l-.15-.22,1-.45.27-.22.29.22.42.24.42.89h.28l.71-.22,2.23-.91.14-.9v-1.57l-.14-.22.29-.67v-.22h1V549h.13v-.22h.29l.28-.45v-.22l.14-.22.13-.22-.13-.91v-1.33l-.14-.68.27-.22.15-.24.84-.89.56-.68h.13v-.21h.15l1-.46,1.26-.9.28-.21h.29l.55-.46.14-.22h.29l.28-.22v-.89l.14-.46.28-.67-.28-.68v-.22h-.14l-.15-.67-.13-.22-.14-.22-.57-1.35-.27-.22-.15-.24-.27-.66-.42-.45-.42-.46.27-.22.28-.22.14-.22H378l-.14-.45h.29l.42-.22h.27l.29-.24h.28l.14.24h.55v-.46h.15l-.15-.22.29-.22.28-.23.14-.22h.13v-.22h.42v-.24h.57l.27-.22V529l-.13-1.79V527h1.54l.84-.22.29-.22h.42l.13-.24.42-.22h.85l.28-.22h.56l.13-.22h.15l.42-.23h.14l.42-.22h.13l.15-.22H389l.84,3.36H392l3.09.22.14.23v-.23h.28l.42-.22.71-.46h.27l.15-.22h.27l.15-.22.13-.22.29-.45H398l.14-.22h.28l.14.22h.15l.13-.22h.29l.55-.24h.14l.42-.22.15-.22.27-.45h.15l.56-.68.28-.22h.27l.15-.22.27.44h.29l.55.24h.15l.56-.46.57-.44.42-.45H405l.29-.22h.84l.27-.24v-.44l.15-.89.12-.24h.15V521l.15-.45.27-.22.42-.68.15-.45h1.26l.14.23h.28v-2.48l-.15-.22v-.44l-.27-.67-.15-.24-.42-.89h.29l-.29-.44-.42-.68-.27-.22-.42-.23-.15-.22-.15-.46-.42-.89v-.9l.15-.44h.27l.44-.23v-.22l-.14-.68h.84l.27-.22h.42l.29-.21h.42l.28-.24.42-.22.27-.22.71-.24h.42l.28-.22h.41l1,.22H414l.69-.22.71-1.11.13-.68.15-.45.27-.68v-.22l.15-.43v-.24l.27-.44.15-.24.14-.44.28-.67.14-.22.7-.68.56-.45h.42l.27.24h.3l.42.21h.42l.42.22.42.22h.56l.55.68h.29l.55.24.29-.24h1.83l.12-.22h.57l.42-.22h.15l.12-.24h.3l.42-.22.27-.22h.15l.54-.21h1.28l.28-.24.41.24.28.21h1.26l.42.22h.29l.57.46.27.22.57.67v.9h.12l.3.46.27.43h.15l.12.22v.24l.15.68H435l.12.43.15.46.42.67.14.22.15.9.13.46h.71l.42.65.27.46.28.22.29.67.27.46v.22l.15.45.27.44.15.22.13.46.14.22v-.22l.15-.46.15-.44.27-.22v-.91l.15-.22h.12l1.26-2h1l.14-.24-.14-.44-.15-.24h.15l.14-.22h.28l.14-.22h1.83l1,.22-.13.46.42.44,1,.67.54.46.29.22,1,1.11,1.13.91.57.66.42.68.42.67.13.68L452,514h.84l1.13-.24v.46l.13.22.29.89.13.68.29.89v.68l.13.45.15.68v.67l.14.44v.46l.13.44.15.45.42,1.57.27,1.12.15.23.14,1.57v.44l.13.46v.22l.15.45v1.34l.14.45v.22l.42,1.13v.44l.28,1.35.14.68h.84l.28-.24h.29l.27-.22h1l.42-.22h.27l-.27,1.12-.15.89-.14.68-.13.23v.44l-.15.22-.14,1.13-.13.44v.91l-.15.44-.27.46-.15.22v.45l-.14.22v.22l.14.22v.46l.57,1.78-.15.46.15.22.13.68.14.45v.66l.15.24v.22l.13.21.14.24v.22l.15.22v.22H461V547l.13.22v.67l.15.22v.46l.14.21.13.46v1.33h.15v.24h.14l-.14.66h.14l-.14.24.14.67v.22l.13.22v.46l.15.21v.46l.14.22v.22l.13.22v.24l.15.21v.22l.14.46.13.44.15.45.14.9.13.67.15.68.14.44v.45l.28.68.27.89V562l.29.89v.22l.15.68.13.22v.91l.14.44v.22l.15.45.27.68H468l.55.22h.29l.13-.44.15-.46.42-1.35.14-.22v-.89l.13-.22.15-.46v-.45l.27-.66h.15v-.46h.14l-.14-.45V560l.14-.44.13-.45.15-.22.71-.9.13-.45.56-.9.15-.21.13-.24.29-.66h.13v-.24l.14-.22v-.21l.15-.24v-.44l.27-.68V553l.15-.22.13-.22v-.22l.14-.46.42-.45.57-.66.27-.24.57-.67v-.22l.27-.22.42-.68.29-.45h.13l.57-.44.42-.22.14-.24H478l.71-.21L479,547v-.24l.29-.44.13-.22.14-.24.42-.21.15-.22h.13l.29-.24.42-.66.27.22.27.22.3.22H482l.13.24.84.43.42.46.42.22.15.22h.14l.13.24h-.13l.28.22h.14l.84,1.11h.15l.42.45.42.68.55.68.56.43v-.22h.15l.12.22.42.46H488l.12.22h.15l.27-.22.15-.22V551l.15.44.27.45.29.46v.22l.13.22V553l.15.45.14.22v.46l.13.68v.43l.15.24v.9l.27.21h.15l.14.22h.13l.29.24v.22H491l-.15.22H491v.22l-.28.23v.68l-.14.22v.44h-.15v.45h-.13V560l-.14.46v.44l-.15.91v.66l-.13.23v1.12l-.14.22v.23l-.15.68-.13.44h1.26v-.22h.42l.42-.22.28-.46.14-.22.13-.45.15-.22h1.4v.22h.84l.15.22h.69v-.22H496l.15-.22H497v.22h.15l.14.22.13.23h.15v.22h.14l.13.22H498l.42.24.14.22h.13l.15.22h.27l.15.22h.14v.23l.28.22.41.22h.57l.15-.22h.42l.12-.22h.3v.44h.12v.24h.15l.15.22.12.22.15.22v.23h.15v.22h.12v.22l.15.24v.22h.15v.22l.12.22V569l.15.22v.22l.15.24h.14v.22l.13.22h.84l.57-.22h.42l.27-.22h.56l.84-.24h2v-.22h.42l.12-.22H510v-.23h1.7v-.22l.84-.22,1.68-.46h.42l.15-.22h.27l.27-.22h.3l.12-.23h.72l.12-.22h1.28l.42-.22h3.51l.27.22h1.11v-.22h.71l.13-.22v.22h.15v-.22h.14v-.24h.57l.42-.22h.42l.13-.22.42-.45.84-.22h.29l.13-.22h.29v-.24h.27v-.22l.15-.22h.15l.12-.23.42-.44.15-.68.14-.22.28-.45,1.4-1.57.13-.22h.29l.13-.22.71-.24h.15v-.22h.27v-.22l-1.13-.89-.27-.46H531l-.13-.22-.56-.67-.7-.89-.14-.46h-.15l-.27-.22-.15-.22-.27-.46-.27-.21h-.15v-.24l-.15-.66v-1.13l-.14-.22-.42-1.13-.28-.44-.14-.46-.28-.43-.14-.24-.42-.66-.55-.91-.15-.44-.27-.67V547h.55l.71-.46h.55l-.13-1.11-.15-.46-.14-.44-.13-.45v-.22l-.15-.24.42-.22H527v-.22h-.15V543h-.14v-.24l-.13-.21v-.22l-.15-.68v-.22h-.14v-.45h-.13v-.68h-.29L526,540v-.22l.42-.24v-.21l.28-.9v-.22h.14L527,538l.13-.22v-.22l.14-.24v-1.11l.15-.68.27-1.35v-.44h-.14l-.13-.45-.15-.22v-.68l.28-.22.42-.67.44-.22.41-.68.28-.45h.14l.13-.44.29-.68.42-.22h.13l.29-.23H531v-.22h.29l.13-.22h.29l.42-.24.28-.22.56-.22h.15l.42-.22.55-.23.14-.22.28-.22h.14l.28-.24h.29l.27-.22,1.13-.89.42-.22.28-.46.56-.44.55-.67.71-.68.42-.67.28-.22H540l.15-.24.42-.66.13-.23.14-.22v-.22l.15-.24.13-.66v-.67h.42l.56-.24.15-.22h1.11l.29-.44.28-.23v-.22h.14l.13-.22.15-.24.27-.44v-.22h1.83l.42-.23.14.23.57.22.42.22.69.46.42.22v-.68l.15-.22V516l.14-.44v-.24H550l.42.24.42.22,1.13.22.55.23h.57l.84-2,.56-.9.7-.67.42.22.29.45.42-.22v-1.35l.13-.22h.14v-.23h.15v-.22h.14l.13-.22h.15l.14-.24.42-.44L558,510l.27-.23.15-.22.27-.46.42-.65.42-.92h.15v-.22l-.7-.67-.56-.44-.15-.24-.27-.65-.15-.46-.13-.9-.29-.89-.27-.89-.42-1.36.56-.45-.42-1.79-.85.22h-.28l-.14-1.12-.28-1.13v-.22l.15-1.11.13-.46.14-.89.15.22H556v-.68h.14l.28-.43.43-.46h.7l.42-.22h.14v.22l.55-.22.71-.22h.42l.42-.24.28-.22.42-.21.42-.22v-.46h.42l.56-.46.42-.22.15.22h1.68l.14.24H565l1.11.22h.71l.7.22h.84l.14.24.15-.46h.27l.28.22.83.24h.57l.15.22H571l.15.21h.14l.42.22H572l.14.24h.28l.14.22H573l.28.22V492h.14v-.46h-.14v-.21l-.15-.22-.13-.24h-.14v-.22h-.15l-.13-.22V490h.84l.28-.21v-.46h.14v-.22h.28v-.22h.29v-.46h1l.14-.43h-.84l.15-.24.42-.89.27-.44.15-.24V486h.12l.15-.22h.15l.12-.24.15-.21h.27l.15-.22h.15l.12-.22v-.24l-.27-.68,1.41-.65v-.24h.14v-2.25h.13v-.43l.15-.22.14-.24h.42l.13-.44h-.13v-.24h.13v-.65l.15-.92v-.21h.14v-.22h.13l.57-.9.14-.23.13-.66.42-1.35.15-1.57h-.42l-.57-.24h.15v-.44l.14-.22V470.5l.13-.22v-.22h.15v-.45h-.28v-.22h-.14l-.15-.24h-.27v-.89H580v-.44h.13v-.46h.15v-.22h.14v-.22h.13v-.23h.15v-.22l-.15-.22-.13-.24.13-.22.42-.89.71-1.12.69-1.13.57-.89.42-.68-.57-.44-.42-.45V460l1.14-1.13.27-.22v-.68l.15-.22.27-.67.15.22.69.45.42.44h.15v.24h.56v-.24l.28-.89.14-.9-1-.44-.72-.23,1-2.91h-.27l-.15-.23v-.9l-1.11-.89.27-.22v-.24l.71-.66.13-.23.29-.44.13-.24.29-.44h.28l.56.22v-.22l.13-.45v-.22l-.13-.22V447l.13-.43v-.46l.14-.22.15-.46.13-.22v-.67h-.13l-.29-.22h-.27l-.15-.24.15-.44-.7-.21-.56-.24.14-.9v-.43h-1l-.3-.24v-.9l-.12-.22.12-.21H585v-.68h.15v-2.7l-.42-.22h-.15v-2.47l.15-.45v-.22h.42V433l-.15-.22v-.21h-.15l-.12-.22-.3-.24-.27-.44-.27-.46-.15-.21.42-.46-.27-.44-.3-.46V429l.15-.22v-.22l.15-.24.27-.43v-.22h.15V427l.12-.24v-.21l.15-.22h-.15l-.27-.22-.69-.46-.57-.68-.42-.43.27-.24v-.68h.3l.69.24H586l.69.22h3l.69.22h4.34l.42-.22h.57l-.15-.22-.27-.24-.29-.43-.28-.22-.27-.46-.14-.22-.28-.45-.14-.22-.28-.68-.29-.46-.13-.21v-.22l-.14-.22-.28-.24v-.22l-.14-.22v-.24l-.15-.43-.27-.46-.15-.67-.15-.22v-.22l-.12-.22v-.24l-.15-.44v-1.57l-.15-.45v-.68l-.12-.44v-.67l-.15-.22v-.24l-.15-.22-.12-.45-.15-.22-.15-.44-.12-.24V410l-.3-.45-.12-.44-.15-.22-.27-.46h-.42l-.15-.22.15-.23.12-.22-.54-.9-.29-.45-.28-.22-.14-.22-.28-.46h-.29l-.42-.67v-.22h.14l-.14-.22v.22h-.42l-.13-.22h-.42l-.14-.22h-.28v-.24h-.14l-.15-.22h-.13v-.22h-.14v-.23H585l-.15-.44-.42-.22-.42-.24-.42-.44v-.23l.15-.22.15-.22.27-.68.57.22.69.24h.29l.42.22h.42l.84-.22v-.68l.28-1.35v-.45l.14-.22v-.22l.13-.22v-.24l.15-.22H587l-.84-.22-1.7-.23-.12-.44-.3-.68v-.22l.3-.23h.12v-.44l.15-.46V394l.15-.23.12-.22v-.22h.44l.13-.22.29-.91v-3.8h2.1l.55-.24.29-.43.15-.46-.44-.68h-.13l-.14-.22-.57-.67-.69-.68-.7-.22-.14-.21-.28-.24.28-.22.56-.44.7-1.13.14-.22.13-.68.15-.67.14-.44V379l-.14-.67V377l.14-.9.13-.68.15-.89.27-.46.29-.67.27-.22.42-.68.15-.21v-1.36l.15-.21.12-.46.15-.66.42.22h.27l.3.22h.54l.15.22H592l.15.24.14.22h.28l.14-.22.13.22.15.21v.24h.14l.13.22.15.44v.24l.14-.24h.28l.27-.44h.42l.14.22.84.22h.15l.27.24.3.22h.27l.27.21h.3v.24l-.15.22h.57v-.22l.12-.45.57-1.36.27-.43H599l.15-.46.27-.89-.42-.22.15-.24.42-.44.14-.67h-.14l-.15-.22.15-1.81h-.15v-.22h-.13v-.89l.13-.22v-.46l.29-.44.13-.45v-.22l.15-.24.14-.22.13-.22.14-.22.15-.23v-.22l.13-.22.14-.24H601v-.22h.13l.14-.22v-.45l.15-.44.13-.68.14-.22.28-.45.14-.22h.15v-.68l.69-1.57.15-.45.15-.22.12-.22.15-.24.15-.44.42-.45.12-.22.15-.22h.15l.12-.24.15-.22-.15-.22.3-.22v.22h1l.15.22h.14l.15.22.27.24.42.22.7.45.29-.23,1.53-1.34.57-.45h.15v.22h.12l.15-.22h.15l.27.45.27-.23.3-.22h.54v-.22h.15v-.9h1l.42-.23h.15l.27-.22h.15l.42-.46.27.24h.28l.71-.68.55-.67.71-.68.42-.67.42-.44-.15-.24v-1.79l.29-.44h.7l.27-.67,2,.44.7-2.69h.14l.15-.22.27-.45.15-.22h.13l.14-.24v-.22h.57V340h.13l.14-.22h.15v.44H624V340h.57v-.45h.27l.15.23h.14v-.23l.13-.22h.29l.13.22h-.13l-.14.23V340h.27l.15.22H626V340h.13l.15.22.14-.22h.42l.13-.22.15.22h.27v-.22h.44l.13-.23h.29v-.44h.42v-.24h.13v-.22h.14l.28.22h.14v-.22h.28V338H630v-.22h-.13v-.22H630l.29-.46h.42v-.22h.13l.29.22h.27l.15-.22v-.22h.14l.28-.23v-.68h-.15v-.22H632l.42-.67v-.9h-1.12v-.22l.28-.89.27-.68v-.67l-.13-.22-.14-.24.14-.22.13-.43.15-.24.14-.22.13-.22.15-.24.56-.65.13-.24.15-.22h.56l.13-.22.42-.46.15-.22.56-.21.15-.24.13-.22.42-.46.29-.22,1.26-.43v-.24H638l.15-.22.27-.22v-.89l-.13-.92v-1.33l-.14-.24v-1.11l.14-.46.13-.22.15-.43.27-.68.29-1.13.13-.44-.13-.45V316H639v-.22h-.15l-.13-.22-.71-.67h-.14l-.13-.22-.29-.68-.55-.67v-.22h-.15v-.24h.15v-.22l.13-.22.14-.24.15-.21.27-.22.57-.46.27-.22.42-.67.42-.22.29-.68v-.22h-.14v-.45l-.15-.68v-.22l-.13-.45.13-.22V307l.57-.46v-.22l.14-.22h.28l.14-.23h.28l.27-.22.86-.22.55-.22.56-.24h.28l.29-.22.13-.22.14-.23v-.22l.15-.44H644v-.24l-.13-.22v-.45l-.15-.44h-.14v-.46l-.13-.22v-.22l.27-.67v-.22l.15-.24H644l.29-.22.27-.22h.28l.14-.23h.29l.28.23.84.22h.42l.69-.67.26-.26C638.57,293.33,630.58,297.37,630.58,297.37Z"/>
    </g>
  </g>
</svg>
