<svg xmlns="http://www.w3.org/2000/svg" xmlns:xlink="http://www.w3.org/1999/xlink" viewBox="0 0 33.9 50.28">
  <defs>
    <style>
      .cls-1 {
        fill: #dae36b;
      }

      .cls-1, .cls-10, .cls-11, .cls-12, .cls-120, .cls-121, .cls-122, .cls-123, .cls-124, .cls-125, .cls-126, .cls-127, .cls-128, .cls-129, .cls-13, .cls-130, .cls-14, .cls-15, .cls-16, .cls-17, .cls-18, .cls-19, .cls-2, .cls-20, .cls-21, .cls-22, .cls-23, .cls-24, .cls-25, .cls-26, .cls-27, .cls-28, .cls-29, .cls-3, .cls-30, .cls-31, .cls-32, .cls-33, .cls-34, .cls-35, .cls-36, .cls-37, .cls-38, .cls-39, .cls-4, .cls-40, .cls-41, .cls-42, .cls-43, .cls-44, .cls-45, .cls-46, .cls-47, .cls-48, .cls-49, .cls-5, .cls-50, .cls-51, .cls-52, .cls-53, .cls-54, .cls-55, .cls-56, .cls-57, .cls-58, .cls-59, .cls-6, .cls-60, .cls-61, .cls-62, .cls-63, .cls-64, .cls-65, .cls-66, .cls-67, .cls-68, .cls-69, .cls-7, .cls-70, .cls-71, .cls-72, .cls-73, .cls-74, .cls-75, .cls-76, .cls-77, .cls-78, .cls-79, .cls-8, .cls-80, .cls-81, .cls-82, .cls-83, .cls-84, .cls-85, .cls-86, .cls-87, .cls-88, .cls-89, .cls-9, .cls-90, .cls-91, .cls-92, .cls-93 {
        fill-rule: evenodd;
      }

      .cls-2 {
        fill: #d9e26a;
      }

      .cls-3 {
        fill: #d8e169;
      }

      .cls-4 {
        fill: #d6e069;
      }

      .cls-5 {
        fill: #d5df68;
      }

      .cls-6 {
        fill: #d4de67;
      }

      .cls-7 {
        fill: #d3dd66;
      }

      .cls-8 {
        fill: #d1dc66;
      }

      .cls-9 {
        fill: #d0db65;
      }

      .cls-10 {
        fill: #cfda64;
      }

      .cls-11 {
        fill: #ced963;
      }

      .cls-12 {
        fill: #ccd763;
      }

      .cls-13 {
        fill: #cbd662;
      }

      .cls-14 {
        fill: #cad561;
      }

      .cls-15 {
        fill: #c9d460;
      }

      .cls-16 {
        fill: #c7d360;
      }

      .cls-17 {
        fill: #c6d25f;
      }

      .cls-18 {
        fill: #c5d15e;
      }

      .cls-19 {
        fill: #c4d05d;
      }

      .cls-20 {
        fill: #c2cf5d;
      }

      .cls-21 {
        fill: #c1ce5c;
      }

      .cls-22 {
        fill: #c0cd5b;
      }

      .cls-23 {
        fill: #bfcc5a;
      }

      .cls-24 {
        fill: #becb59;
      }

      .cls-25 {
        fill: #bcca59;
      }

      .cls-26 {
        fill: #bbc858;
      }

      .cls-27 {
        fill: #bac757;
      }

      .cls-28 {
        fill: #b9c656;
      }

      .cls-29 {
        fill: #b8c555;
      }

      .cls-30 {
        fill: #b6c455;
      }

      .cls-31 {
        fill: #b5c354;
      }

      .cls-32 {
        fill: #b4c253;
      }

      .cls-33 {
        fill: #b3c052;
      }

      .cls-34 {
        fill: #b2bf51;
      }

      .cls-35 {
        fill: #b1be50;
      }

      .cls-36 {
        fill: #afbd50;
      }

      .cls-37 {
        fill: #aebc4f;
      }

      .cls-38 {
        fill: #adbb4e;
      }

      .cls-39 {
        fill: #acba4d;
      }

      .cls-40 {
        fill: #abb84c;
      }

      .cls-41 {
        fill: #a9b74c;
      }

      .cls-42 {
        fill: #a8b64b;
      }

      .cls-43 {
        fill: #a7b54a;
      }

      .cls-44 {
        fill: #a6b449;
      }

      .cls-45 {
        fill: #a4b249;
      }

      .cls-46 {
        fill: #a3b148;
      }

      .cls-47 {
        fill: #a1b048;
      }

      .cls-48 {
        fill: #a0ae47;
      }

      .cls-49 {
        fill: #9ead46;
      }

      .cls-50 {
        fill: #9dac46;
      }

      .cls-51 {
        fill: #9caa45;
      }

      .cls-52 {
        fill: #9aa944;
      }

      .cls-53 {
        fill: #99a844;
      }

      .cls-54 {
        fill: #97a643;
      }

      .cls-55 {
        fill: #96a543;
      }

      .cls-56 {
        fill: #94a442;
      }

      .cls-57 {
        fill: #93a241;
      }

      .cls-58 {
        fill: #92a141;
      }

      .cls-59 {
        fill: #90a040;
      }

      .cls-60 {
        fill: #8f9e3f;
      }

      .cls-61 {
        fill: #8d9d3f;
      }

      .cls-62 {
        fill: #8c9c3e;
      }

      .cls-63 {
        fill: #8a9a3e;
      }

      .cls-64 {
        fill: #89993d;
      }

      .cls-65 {
        fill: url(#GradientFill_7);
      }

      .cls-66 {
        fill: url(#GradientFill_7-2);
      }

      .cls-67 {
        fill: url(#linear-gradient);
      }

      .cls-68 {
        fill: url(#linear-gradient-2);
      }

      .cls-69 {
        fill: url(#linear-gradient-3);
      }

      .cls-70 {
        fill: url(#linear-gradient-4);
      }

      .cls-71 {
        fill: url(#linear-gradient-5);
      }

      .cls-72 {
        fill: url(#linear-gradient-6);
      }

      .cls-73 {
        fill: url(#linear-gradient-7);
      }

      .cls-74 {
        fill: url(#linear-gradient-8);
      }

      .cls-75 {
        fill: url(#linear-gradient-9);
      }

      .cls-76 {
        fill: url(#linear-gradient-10);
      }

      .cls-77 {
        fill: url(#linear-gradient-11);
      }

      .cls-78 {
        fill: url(#linear-gradient-12);
      }

      .cls-79 {
        fill: url(#linear-gradient-13);
      }

      .cls-80 {
        fill: url(#linear-gradient-14);
      }

      .cls-81 {
        fill: url(#linear-gradient-15);
      }

      .cls-82 {
        fill: url(#linear-gradient-16);
      }

      .cls-83 {
        fill: url(#linear-gradient-17);
      }

      .cls-84 {
        fill: url(#linear-gradient-18);
      }

      .cls-85 {
        fill: url(#linear-gradient-19);
      }

      .cls-86 {
        fill: url(#linear-gradient-20);
      }

      .cls-87 {
        fill: url(#GradientFill_28);
      }

      .cls-88 {
        fill: url(#GradientFill_93);
      }

      .cls-89 {
        fill: url(#linear-gradient-21);
      }

      .cls-90 {
        fill: url(#linear-gradient-22);
      }

      .cls-91 {
        fill: url(#linear-gradient-23);
      }

      .cls-92 {
        fill: url(#linear-gradient-24);
      }

      .cls-93 {
        fill: url(#linear-gradient-25);
      }

      .cls-94 {
        fill: url(#linear-gradient-26);
      }

      .cls-95 {
        fill: url(#linear-gradient-27);
      }

      .cls-96 {
        fill: url(#linear-gradient-28);
      }

      .cls-97 {
        fill: url(#linear-gradient-29);
      }

      .cls-98 {
        fill: url(#linear-gradient-30);
      }

      .cls-99 {
        fill: url(#linear-gradient-31);
      }

      .cls-100 {
        fill: url(#linear-gradient-32);
      }

      .cls-101 {
        fill: url(#linear-gradient-33);
      }

      .cls-102 {
        fill: url(#linear-gradient-34);
      }

      .cls-103 {
        fill: url(#linear-gradient-35);
      }

      .cls-104 {
        fill: url(#linear-gradient-36);
      }

      .cls-105 {
        fill: url(#linear-gradient-37);
      }

      .cls-106 {
        fill: url(#linear-gradient-38);
      }

      .cls-107 {
        fill: url(#linear-gradient-39);
      }

      .cls-108 {
        fill: url(#linear-gradient-40);
      }

      .cls-109 {
        fill: url(#GradientFill_114);
      }

      .cls-110 {
        fill: url(#linear-gradient-41);
      }

      .cls-111 {
        fill: url(#linear-gradient-42);
      }

      .cls-112 {
        fill: url(#linear-gradient-43);
      }

      .cls-113 {
        fill: url(#linear-gradient-44);
      }

      .cls-114 {
        fill: url(#linear-gradient-45);
      }

      .cls-115 {
        fill: url(#linear-gradient-46);
      }

      .cls-116 {
        fill: url(#linear-gradient-47);
      }

      .cls-117 {
        fill: url(#linear-gradient-48);
      }

      .cls-118 {
        fill: url(#linear-gradient-49);
      }

      .cls-119 {
        fill: url(#linear-gradient-50);
      }

      .cls-120 {
        fill: url(#linear-gradient-51);
      }

      .cls-121 {
        fill: url(#linear-gradient-52);
      }

      .cls-122 {
        fill: url(#linear-gradient-53);
      }

      .cls-123 {
        fill: url(#linear-gradient-54);
      }

      .cls-124 {
        fill: url(#linear-gradient-55);
      }

      .cls-125 {
        fill: url(#linear-gradient-56);
      }

      .cls-126 {
        fill: url(#linear-gradient-57);
      }

      .cls-127 {
        fill: url(#linear-gradient-58);
      }

      .cls-128 {
        fill: url(#linear-gradient-59);
      }

      .cls-129 {
        fill: url(#linear-gradient-60);
      }

      .cls-130 {
        fill: url(#GradientFill_135);
      }
    </style>
    <linearGradient id="GradientFill_7" data-name="GradientFill 7" x1="12.2" y1="35.49" x2="16.91" y2="35.49" gradientUnits="userSpaceOnUse">
      <stop offset="0" stop-color="#ae8060"/>
      <stop offset="0.21" stop-color="#693716"/>
      <stop offset="0.59" stop-color="#472a09"/>
      <stop offset="0.78" stop-color="#402505"/>
      <stop offset="0.89" stop-color="#532e0e"/>
      <stop offset="1" stop-color="#90603d"/>
    </linearGradient>
    <linearGradient id="GradientFill_7-2" x1="12.2" y1="25.64" x2="16.91" y2="25.64" xlink:href="#GradientFill_7"/>
    <linearGradient id="linear-gradient" x1="12.2" y1="25.49" x2="16.91" y2="25.49" gradientUnits="userSpaceOnUse">
      <stop offset="0" stop-color="#aa7c5d"/>
      <stop offset="0.21" stop-color="#673615"/>
      <stop offset="0.59" stop-color="#452809"/>
      <stop offset="0.78" stop-color="#3f2405"/>
      <stop offset="0.89" stop-color="#522d0e"/>
      <stop offset="1" stop-color="#8d5e3b"/>
    </linearGradient>
    <linearGradient id="linear-gradient-2" x1="12.2" y1="25.34" x2="16.91" y2="25.34" gradientUnits="userSpaceOnUse">
      <stop offset="0" stop-color="#a57959"/>
      <stop offset="0.21" stop-color="#643514"/>
      <stop offset="0.59" stop-color="#442708"/>
      <stop offset="0.78" stop-color="#3d2205"/>
      <stop offset="0.89" stop-color="#512c0d"/>
      <stop offset="1" stop-color="#8a5c39"/>
    </linearGradient>
    <linearGradient id="linear-gradient-3" x1="12.2" y1="25.19" x2="16.91" y2="25.19" gradientUnits="userSpaceOnUse">
      <stop offset="0" stop-color="#a17556"/>
      <stop offset="0.21" stop-color="#623313"/>
      <stop offset="0.59" stop-color="#422508"/>
      <stop offset="0.78" stop-color="#3c2104"/>
      <stop offset="0.89" stop-color="#4f2c0d"/>
      <stop offset="1" stop-color="#875a38"/>
    </linearGradient>
    <linearGradient id="linear-gradient-4" x1="12.2" y1="25.04" x2="16.91" y2="25.04" gradientUnits="userSpaceOnUse">
      <stop offset="0" stop-color="#9d7252"/>
      <stop offset="0.21" stop-color="#603213"/>
      <stop offset="0.59" stop-color="#402307"/>
      <stop offset="0.78" stop-color="#3b1f04"/>
      <stop offset="0.89" stop-color="#4e2b0c"/>
      <stop offset="1" stop-color="#855836"/>
    </linearGradient>
    <linearGradient id="linear-gradient-5" x1="12.2" y1="24.89" x2="16.91" y2="24.89" gradientUnits="userSpaceOnUse">
      <stop offset="0" stop-color="#996e4f"/>
      <stop offset="0.21" stop-color="#5e3112"/>
      <stop offset="0.59" stop-color="#3f2207"/>
      <stop offset="0.78" stop-color="#391e04"/>
      <stop offset="0.89" stop-color="#4d2a0c"/>
      <stop offset="1" stop-color="#825634"/>
    </linearGradient>
    <linearGradient id="linear-gradient-6" x1="12.2" y1="24.74" x2="16.91" y2="24.74" gradientUnits="userSpaceOnUse">
      <stop offset="0" stop-color="#946a4b"/>
      <stop offset="0.21" stop-color="#5b3011"/>
      <stop offset="0.59" stop-color="#3d2006"/>
      <stop offset="0.78" stop-color="#381c04"/>
      <stop offset="0.89" stop-color="#4c290b"/>
      <stop offset="1" stop-color="#7f5332"/>
    </linearGradient>
    <linearGradient id="linear-gradient-7" x1="12.2" y1="24.59" x2="16.91" y2="24.59" gradientUnits="userSpaceOnUse">
      <stop offset="0" stop-color="#906748"/>
      <stop offset="0.21" stop-color="#592f10"/>
      <stop offset="0.59" stop-color="#3b1e06"/>
      <stop offset="0.78" stop-color="#371b03"/>
      <stop offset="0.89" stop-color="#4a290b"/>
      <stop offset="1" stop-color="#7c5131"/>
    </linearGradient>
    <linearGradient id="linear-gradient-8" x1="12.2" y1="24.44" x2="16.91" y2="24.44" gradientUnits="userSpaceOnUse">
      <stop offset="0" stop-color="#8c6345"/>
      <stop offset="0.21" stop-color="#572d0f"/>
      <stop offset="0.59" stop-color="#3a1d06"/>
      <stop offset="0.78" stop-color="#351a03"/>
      <stop offset="0.89" stop-color="#49280a"/>
      <stop offset="1" stop-color="#794f2f"/>
    </linearGradient>
    <linearGradient id="linear-gradient-9" x1="12.2" y1="24.29" x2="16.91" y2="24.29" gradientUnits="userSpaceOnUse">
      <stop offset="0" stop-color="#875f41"/>
      <stop offset="0.21" stop-color="#542c0e"/>
      <stop offset="0.59" stop-color="#381b05"/>
      <stop offset="0.78" stop-color="#341803"/>
      <stop offset="0.89" stop-color="#48270a"/>
      <stop offset="1" stop-color="#764d2d"/>
    </linearGradient>
    <linearGradient id="linear-gradient-10" x1="12.2" y1="24.14" x2="16.91" y2="24.14" gradientUnits="userSpaceOnUse">
      <stop offset="0" stop-color="#835c3e"/>
      <stop offset="0.21" stop-color="#522b0d"/>
      <stop offset="0.59" stop-color="#361905"/>
      <stop offset="0.78" stop-color="#331703"/>
      <stop offset="0.89" stop-color="#472609"/>
      <stop offset="1" stop-color="#734b2b"/>
    </linearGradient>
    <linearGradient id="linear-gradient-11" x1="12.2" y1="23.99" x2="16.91" y2="23.99" gradientUnits="userSpaceOnUse">
      <stop offset="0" stop-color="#7f583a"/>
      <stop offset="0.21" stop-color="#502a0d"/>
      <stop offset="0.59" stop-color="#351804"/>
      <stop offset="0.78" stop-color="#311502"/>
      <stop offset="0.89" stop-color="#452609"/>
      <stop offset="1" stop-color="#71492a"/>
    </linearGradient>
    <linearGradient id="linear-gradient-12" x1="12.2" y1="23.84" x2="16.91" y2="23.84" gradientUnits="userSpaceOnUse">
      <stop offset="0" stop-color="#7b5537"/>
      <stop offset="0.21" stop-color="#4e290c"/>
      <stop offset="0.59" stop-color="#331604"/>
      <stop offset="0.78" stop-color="#301402"/>
      <stop offset="0.89" stop-color="#442508"/>
      <stop offset="1" stop-color="#6e4728"/>
    </linearGradient>
    <linearGradient id="linear-gradient-13" x1="12.2" y1="23.69" x2="16.91" y2="23.69" gradientUnits="userSpaceOnUse">
      <stop offset="0" stop-color="#765133"/>
      <stop offset="0.21" stop-color="#4b280b"/>
      <stop offset="0.59" stop-color="#311403"/>
      <stop offset="0.78" stop-color="#2f1202"/>
      <stop offset="0.89" stop-color="#432408"/>
      <stop offset="1" stop-color="#6b4526"/>
    </linearGradient>
    <linearGradient id="linear-gradient-14" x1="12.2" y1="23.54" x2="16.91" y2="23.54" gradientUnits="userSpaceOnUse">
      <stop offset="0" stop-color="#724d30"/>
      <stop offset="0.21" stop-color="#49260a"/>
      <stop offset="0.59" stop-color="#301303"/>
      <stop offset="0.78" stop-color="#2d1102"/>
      <stop offset="0.89" stop-color="#422307"/>
      <stop offset="1" stop-color="#684324"/>
    </linearGradient>
    <linearGradient id="linear-gradient-15" x1="12.2" y1="23.4" x2="16.91" y2="23.4" gradientUnits="userSpaceOnUse">
      <stop offset="0" stop-color="#6e4a2d"/>
      <stop offset="0.21" stop-color="#472509"/>
      <stop offset="0.59" stop-color="#2e1103"/>
      <stop offset="0.78" stop-color="#2c1001"/>
      <stop offset="0.89" stop-color="#402307"/>
      <stop offset="1" stop-color="#654123"/>
    </linearGradient>
    <linearGradient id="linear-gradient-16" x1="12.2" y1="23.25" x2="16.91" y2="23.25" gradientUnits="userSpaceOnUse">
      <stop offset="0" stop-color="#694629"/>
      <stop offset="0.21" stop-color="#442408"/>
      <stop offset="0.59" stop-color="#2c0f02"/>
      <stop offset="0.78" stop-color="#2b0e01"/>
      <stop offset="0.89" stop-color="#3f2206"/>
      <stop offset="1" stop-color="#623e21"/>
    </linearGradient>
    <linearGradient id="linear-gradient-17" x1="12.2" y1="23.1" x2="16.91" y2="23.1" gradientUnits="userSpaceOnUse">
      <stop offset="0" stop-color="#654226"/>
      <stop offset="0.21" stop-color="#422307"/>
      <stop offset="0.59" stop-color="#2b0e02"/>
      <stop offset="0.78" stop-color="#290d01"/>
      <stop offset="0.89" stop-color="#3e2106"/>
      <stop offset="1" stop-color="#5f3c1f"/>
    </linearGradient>
    <linearGradient id="linear-gradient-18" x1="12.2" y1="22.95" x2="16.91" y2="22.95" gradientUnits="userSpaceOnUse">
      <stop offset="0" stop-color="#613f22"/>
      <stop offset="0.21" stop-color="#402207"/>
      <stop offset="0.59" stop-color="#290c01"/>
      <stop offset="0.78" stop-color="#280b01"/>
      <stop offset="0.89" stop-color="#3d2005"/>
      <stop offset="1" stop-color="#5d3a1d"/>
    </linearGradient>
    <linearGradient id="linear-gradient-19" x1="12.2" y1="22.81" x2="16.91" y2="22.81" gradientUnits="userSpaceOnUse">
      <stop offset="0" stop-color="#5d3b1f"/>
      <stop offset="0.21" stop-color="#3e2006"/>
      <stop offset="0.59" stop-color="#270a01"/>
      <stop offset="0.78" stop-color="#270a00"/>
      <stop offset="0.89" stop-color="#3b2005"/>
      <stop offset="1" stop-color="#5a381c"/>
    </linearGradient>
    <linearGradient id="linear-gradient-20" x1="12.2" y1="22.66" x2="16.91" y2="22.66" gradientUnits="userSpaceOnUse">
      <stop offset="0" stop-color="#58381b"/>
      <stop offset="0.21" stop-color="#3b1f05"/>
      <stop offset="0.59" stop-color="#260900"/>
      <stop offset="0.78" stop-color="#250800"/>
      <stop offset="0.89" stop-color="#3a1f04"/>
      <stop offset="1" stop-color="#57361a"/>
    </linearGradient>
    <linearGradient id="GradientFill_28" data-name="GradientFill 28" x1="12.2" y1="22.51" x2="16.91" y2="22.51" gradientUnits="userSpaceOnUse">
      <stop offset="0" stop-color="#543418"/>
      <stop offset="0.21" stop-color="#391e04"/>
      <stop offset="0.59" stop-color="#240700"/>
      <stop offset="0.78" stop-color="#240700"/>
      <stop offset="0.89" stop-color="#391e04"/>
      <stop offset="1" stop-color="#543418"/>
    </linearGradient>
    <linearGradient id="GradientFill_93" data-name="GradientFill 93" x1="3.99" y1="3.99" x2="24.78" y2="24.78" gradientUnits="userSpaceOnUse">
      <stop offset="0" stop-color="#c8db4d"/>
      <stop offset="1" stop-color="#7f9446"/>
    </linearGradient>
    <linearGradient id="linear-gradient-21" x1="4.23" y1="4.23" x2="24.56" y2="24.56" gradientUnits="userSpaceOnUse">
      <stop offset="0" stop-color="#c7db4d"/>
      <stop offset="1" stop-color="#7d9345"/>
    </linearGradient>
    <linearGradient id="linear-gradient-22" x1="4.47" y1="4.47" x2="24.34" y2="24.34" gradientUnits="userSpaceOnUse">
      <stop offset="0" stop-color="#c6da4d"/>
      <stop offset="1" stop-color="#7b9245"/>
    </linearGradient>
    <linearGradient id="linear-gradient-23" x1="4.71" y1="4.71" x2="24.12" y2="24.12" gradientUnits="userSpaceOnUse">
      <stop offset="0" stop-color="#c6da4c"/>
      <stop offset="1" stop-color="#799144"/>
    </linearGradient>
    <linearGradient id="linear-gradient-24" x1="4.94" y1="4.94" x2="23.9" y2="23.9" gradientUnits="userSpaceOnUse">
      <stop offset="0" stop-color="#c5da4c"/>
      <stop offset="1" stop-color="#779044"/>
    </linearGradient>
    <linearGradient id="linear-gradient-25" x1="5.18" y1="5.18" x2="23.69" y2="23.69" gradientUnits="userSpaceOnUse">
      <stop offset="0" stop-color="#c4da4c"/>
      <stop offset="1" stop-color="#758f43"/>
    </linearGradient>
    <linearGradient id="linear-gradient-26" x1="5.4" y1="5.4" x2="23.48" y2="23.48" gradientTransform="translate(6.22 -4.27) rotate(21.11)" gradientUnits="userSpaceOnUse">
      <stop offset="0" stop-color="#c3d94c"/>
      <stop offset="1" stop-color="#728e43"/>
    </linearGradient>
    <linearGradient id="linear-gradient-27" x1="5.63" y1="5.63" x2="23.27" y2="23.27" gradientTransform="translate(6.11 -4.22) rotate(20.77)" gradientUnits="userSpaceOnUse">
      <stop offset="0" stop-color="#c3d94b"/>
      <stop offset="1" stop-color="#708d42"/>
    </linearGradient>
    <linearGradient id="linear-gradient-28" x1="5.85" y1="5.85" x2="23.06" y2="23.06" gradientTransform="translate(5.98 -4.16) rotate(20.39)" gradientUnits="userSpaceOnUse">
      <stop offset="0" stop-color="#c2d94b"/>
      <stop offset="1" stop-color="#6e8c42"/>
    </linearGradient>
    <linearGradient id="linear-gradient-29" x1="6.08" y1="6.08" x2="22.86" y2="22.86" gradientTransform="translate(5.85 -4.1) rotate(19.97)" gradientUnits="userSpaceOnUse">
      <stop offset="0" stop-color="#c1d84b"/>
      <stop offset="1" stop-color="#6c8b41"/>
    </linearGradient>
    <linearGradient id="linear-gradient-30" x1="6.29" y1="6.29" x2="22.66" y2="22.66" gradientTransform="translate(5.69 -4.02) rotate(19.49)" gradientUnits="userSpaceOnUse">
      <stop offset="0" stop-color="#c0d84b"/>
      <stop offset="1" stop-color="#6a8a41"/>
    </linearGradient>
    <linearGradient id="linear-gradient-31" x1="6.51" y1="6.51" x2="22.46" y2="22.46" gradientTransform="translate(5.51 -3.94) rotate(18.94)" gradientUnits="userSpaceOnUse">
      <stop offset="0" stop-color="#c0d84a"/>
      <stop offset="1" stop-color="#688a40"/>
    </linearGradient>
    <linearGradient id="linear-gradient-32" x1="6.72" y1="6.72" x2="22.26" y2="22.26" gradientTransform="translate(5.31 -3.84) rotate(18.32)" gradientUnits="userSpaceOnUse">
      <stop offset="0" stop-color="#bfd84a"/>
      <stop offset="1" stop-color="#668940"/>
    </linearGradient>
    <linearGradient id="linear-gradient-33" x1="6.94" y1="6.94" x2="22.06" y2="22.06" gradientTransform="translate(5.08 -3.72) rotate(17.59)" gradientUnits="userSpaceOnUse">
      <stop offset="0" stop-color="#bed74a"/>
      <stop offset="1" stop-color="#64883f"/>
    </linearGradient>
    <linearGradient id="linear-gradient-34" x1="7.14" y1="7.14" x2="21.87" y2="21.87" gradientTransform="translate(4.81 -3.58) rotate(16.75)" gradientUnits="userSpaceOnUse">
      <stop offset="0" stop-color="#bdd74a"/>
      <stop offset="1" stop-color="#62873f"/>
    </linearGradient>
    <linearGradient id="linear-gradient-35" x1="7.35" y1="7.35" x2="21.68" y2="21.68" gradientTransform="translate(4.5 -3.41) rotate(15.75)" gradientUnits="userSpaceOnUse">
      <stop offset="0" stop-color="#bdd749"/>
      <stop offset="1" stop-color="#60863e"/>
    </linearGradient>
    <linearGradient id="linear-gradient-36" x1="7.55" y1="7.55" x2="21.49" y2="21.49" gradientTransform="translate(4.13 -3.19) rotate(14.56)" gradientUnits="userSpaceOnUse">
      <stop offset="0" stop-color="#bcd649"/>
      <stop offset="1" stop-color="#5d853e"/>
    </linearGradient>
    <linearGradient id="linear-gradient-37" x1="7.75" y1="7.75" x2="21.3" y2="21.3" gradientTransform="translate(3.68 -2.92) rotate(13.11)" gradientUnits="userSpaceOnUse">
      <stop offset="0" stop-color="#bbd649"/>
      <stop offset="1" stop-color="#5b843d"/>
    </linearGradient>
    <linearGradient id="linear-gradient-38" x1="7.95" y1="7.95" x2="21.12" y2="21.12" gradientTransform="translate(3.14 -2.58) rotate(11.33)" gradientUnits="userSpaceOnUse">
      <stop offset="0" stop-color="#bad649"/>
      <stop offset="1" stop-color="#59833d"/>
    </linearGradient>
    <linearGradient id="linear-gradient-39" x1="8.15" y1="8.15" x2="20.94" y2="20.94" gradientTransform="translate(2.49 -2.12) rotate(9.1)" gradientUnits="userSpaceOnUse">
      <stop offset="0" stop-color="#bad648"/>
      <stop offset="1" stop-color="#57823c"/>
    </linearGradient>
    <linearGradient id="linear-gradient-40" x1="8.34" y1="8.34" x2="20.76" y2="20.76" gradientTransform="translate(1.68 -1.5) rotate(6.28)" gradientUnits="userSpaceOnUse">
      <stop offset="0" stop-color="#b9d548"/>
      <stop offset="1" stop-color="#55813c"/>
    </linearGradient>
    <linearGradient id="GradientFill_114" data-name="GradientFill 114" x1="8.53" y1="8.53" x2="20.58" y2="20.58" gradientTransform="translate(0.69 -0.66) rotate(2.66)" gradientUnits="userSpaceOnUse">
      <stop offset="0" stop-color="#b8d548"/>
      <stop offset="1" stop-color="#53803b"/>
    </linearGradient>
    <linearGradient id="linear-gradient-41" x1="8.55" y1="8.55" x2="20.33" y2="20.33" gradientTransform="translate(1.53 -1.38) rotate(5.77)" gradientUnits="userSpaceOnUse">
      <stop offset="0" stop-color="#b7d548"/>
      <stop offset="1" stop-color="#55833b"/>
    </linearGradient>
    <linearGradient id="linear-gradient-42" x1="8.56" y1="8.56" x2="20.08" y2="20.08" gradientTransform="translate(2.43 -2.08) rotate(9.05)" gradientUnits="userSpaceOnUse">
      <stop offset="0" stop-color="#b7d448"/>
      <stop offset="1" stop-color="#58853c"/>
    </linearGradient>
    <linearGradient id="linear-gradient-43" x1="8.58" y1="8.58" x2="19.83" y2="19.83" gradientTransform="translate(3.4 -2.73) rotate(12.43)" gradientUnits="userSpaceOnUse">
      <stop offset="0" stop-color="#b6d448"/>
      <stop offset="1" stop-color="#5a883c"/>
    </linearGradient>
    <linearGradient id="linear-gradient-44" x1="8.6" y1="8.6" x2="19.57" y2="19.57" gradientTransform="translate(4.38 -3.31) rotate(15.82)" gradientUnits="userSpaceOnUse">
      <stop offset="0" stop-color="#b6d448"/>
      <stop offset="1" stop-color="#5c8b3c"/>
    </linearGradient>
    <linearGradient id="linear-gradient-45" x1="8.63" y1="8.63" x2="19.32" y2="19.32" gradientTransform="translate(5.36 -3.81) rotate(19.12)" gradientUnits="userSpaceOnUse">
      <stop offset="0" stop-color="#b5d348"/>
      <stop offset="1" stop-color="#5e8d3c"/>
    </linearGradient>
    <linearGradient id="linear-gradient-46" x1="8.65" y1="8.65" x2="19.06" y2="19.06" gradientTransform="translate(6.3 -4.23) rotate(22.25)" gradientUnits="userSpaceOnUse">
      <stop offset="0" stop-color="#b5d347"/>
      <stop offset="1" stop-color="#61903d"/>
    </linearGradient>
    <linearGradient id="linear-gradient-47" x1="8.68" y1="8.68" x2="18.8" y2="18.8" gradientTransform="translate(7.17 -4.55) rotate(25.17)" gradientUnits="userSpaceOnUse">
      <stop offset="0" stop-color="#b4d347"/>
      <stop offset="1" stop-color="#63933d"/>
    </linearGradient>
    <linearGradient id="linear-gradient-48" x1="8.71" y1="8.71" x2="18.54" y2="18.54" gradientTransform="translate(7.97 -4.8) rotate(27.83)" gradientUnits="userSpaceOnUse">
      <stop offset="0" stop-color="#b3d247"/>
      <stop offset="1" stop-color="#65953d"/>
    </linearGradient>
    <linearGradient id="linear-gradient-49" x1="8.75" y1="8.75" x2="18.28" y2="18.28" gradientTransform="translate(8.68 -4.99) rotate(30.23)" gradientUnits="userSpaceOnUse">
      <stop offset="0" stop-color="#b3d247"/>
      <stop offset="1" stop-color="#68983e"/>
    </linearGradient>
    <linearGradient id="linear-gradient-50" x1="8.78" y1="8.78" x2="18.01" y2="18.01" gradientTransform="translate(9.3 -5.11) rotate(32.38)" gradientUnits="userSpaceOnUse">
      <stop offset="0" stop-color="#b2d247"/>
      <stop offset="1" stop-color="#6a9b3e"/>
    </linearGradient>
    <linearGradient id="linear-gradient-51" x1="8.82" y1="8.82" x2="17.75" y2="17.75" gradientUnits="userSpaceOnUse">
      <stop offset="0" stop-color="#b2d147"/>
      <stop offset="1" stop-color="#6c9d3e"/>
    </linearGradient>
    <linearGradient id="linear-gradient-52" x1="8.86" y1="8.86" x2="17.48" y2="17.48" gradientUnits="userSpaceOnUse">
      <stop offset="0" stop-color="#b1d147"/>
      <stop offset="1" stop-color="#6ea03e"/>
    </linearGradient>
    <linearGradient id="linear-gradient-53" x1="8.9" y1="8.9" x2="17.21" y2="17.21" gradientUnits="userSpaceOnUse">
      <stop offset="0" stop-color="#b1d147"/>
      <stop offset="1" stop-color="#71a33f"/>
    </linearGradient>
    <linearGradient id="linear-gradient-54" x1="8.95" y1="8.95" x2="16.94" y2="16.94" gradientUnits="userSpaceOnUse">
      <stop offset="0" stop-color="#b0d047"/>
      <stop offset="1" stop-color="#73a53f"/>
    </linearGradient>
    <linearGradient id="linear-gradient-55" x1="9" y1="9" x2="16.67" y2="16.67" gradientUnits="userSpaceOnUse">
      <stop offset="0" stop-color="#afd047"/>
      <stop offset="1" stop-color="#75a83f"/>
    </linearGradient>
    <linearGradient id="linear-gradient-56" x1="9.05" y1="9.05" x2="16.4" y2="16.4" gradientUnits="userSpaceOnUse">
      <stop offset="0" stop-color="#afd046"/>
      <stop offset="1" stop-color="#78ab40"/>
    </linearGradient>
    <linearGradient id="linear-gradient-57" x1="9.1" y1="9.1" x2="16.12" y2="16.12" gradientUnits="userSpaceOnUse">
      <stop offset="0" stop-color="#aecf46"/>
      <stop offset="1" stop-color="#7aad40"/>
    </linearGradient>
    <linearGradient id="linear-gradient-58" x1="9.16" y1="9.16" x2="15.85" y2="15.85" gradientUnits="userSpaceOnUse">
      <stop offset="0" stop-color="#aecf46"/>
      <stop offset="1" stop-color="#7cb040"/>
    </linearGradient>
    <linearGradient id="linear-gradient-59" x1="9.22" y1="9.22" x2="15.57" y2="15.57" gradientUnits="userSpaceOnUse">
      <stop offset="0" stop-color="#adcf46"/>
      <stop offset="1" stop-color="#7eb340"/>
    </linearGradient>
    <linearGradient id="linear-gradient-60" x1="9.28" y1="9.28" x2="15.29" y2="15.29" gradientUnits="userSpaceOnUse">
      <stop offset="0" stop-color="#adce46"/>
      <stop offset="1" stop-color="#81b541"/>
    </linearGradient>
    <linearGradient id="GradientFill_135" data-name="GradientFill 135" x1="9.34" y1="9.34" x2="15.01" y2="15.01" gradientUnits="userSpaceOnUse">
      <stop offset="0" stop-color="#acce46"/>
      <stop offset="1" stop-color="#83b841"/>
    </linearGradient>
  </defs>
  <title>Tree</title>
  <g id="Layer_2" data-name="Layer 2">
    <g id="Layer_2-2" data-name="Layer 2">
      <g>
        <g>
          <path class="cls-1" d="M30.19,48.13c-5,2.86-13,2.86-17.92,0s-4.94-7.48,0-10.34,13-2.86,17.92,0S35.14,45.28,30.19,48.13Z"/>
          <path class="cls-2" d="M30,48.06c-4.86,2.81-12.75,2.81-17.62,0s-4.86-7.36,0-10.17,12.76-2.81,17.62,0S34.87,45.26,30,48.06Z"/>
          <path class="cls-3" d="M29.82,48C25,50.76,17.27,50.76,12.49,48s-4.79-7.25,0-10S25,35.23,29.82,38,34.6,45.23,29.82,48Z"/>
          <path class="cls-4" d="M29.63,47.93c-4.7,2.71-12.33,2.71-17,0s-4.71-7.12,0-9.84,12.33-2.71,17,0S34.34,45.21,29.63,47.93Z"/>
          <path class="cls-5" d="M29.45,47.86c-4.63,2.67-12.12,2.67-16.75,0s-4.62-7,0-9.67,12.12-2.67,16.75,0S34.07,45.19,29.45,47.86Z"/>
          <path class="cls-6" d="M29.26,47.79c-4.54,2.63-11.91,2.63-16.45,0s-4.54-6.87,0-9.5,11.91-2.62,16.45,0S33.81,45.17,29.26,47.79Z"/>
          <path class="cls-7" d="M29.08,47.72c-4.46,2.58-11.7,2.58-16.16,0s-4.46-6.75,0-9.32,11.7-2.58,16.16,0S33.54,45.15,29.08,47.72Z"/>
          <path class="cls-8" d="M28.89,47.66a17.52,17.52,0,0,1-15.86,0C8.64,45.13,8.64,41,13,38.5a17.52,17.52,0,0,1,15.86,0C33.27,41,33.27,45.13,28.89,47.66Z"/>
          <path class="cls-9" d="M28.71,47.59a17.24,17.24,0,0,1-15.58,0c-4.3-2.48-4.3-6.51,0-9a17.18,17.18,0,0,1,15.58,0C33,41.08,33,45.11,28.71,47.59Z"/>
          <path class="cls-10" d="M28.52,47.52a16.86,16.86,0,0,1-15.28,0C9,45.08,9,41.13,13.24,38.7a16.86,16.86,0,0,1,15.28,0C32.74,41.13,32.74,45.08,28.52,47.52Z"/>
          <path class="cls-11" d="M28.34,47.45a16.57,16.57,0,0,1-15,0c-4.14-2.39-4.14-6.26,0-8.65a16.57,16.57,0,0,1,15,0C32.48,41.19,32.48,45.06,28.34,47.45Z"/>
          <path class="cls-12" d="M28.15,47.38a16.19,16.19,0,0,1-14.69,0C9.4,45,9.4,41.24,13.46,38.9a16.25,16.25,0,0,1,14.69,0C32.21,41.24,32.21,45,28.15,47.38Z"/>
          <path class="cls-13" d="M28,47.32a16,16,0,0,1-14.41,0c-4-2.3-4-6,0-8.32A15.91,15.91,0,0,1,28,39C31.94,41.3,31.94,45,28,47.32Z"/>
          <path class="cls-14" d="M27.78,47.25a15.59,15.59,0,0,1-14.11,0c-3.9-2.25-3.9-5.9,0-8.15a15.59,15.59,0,0,1,14.11,0C31.68,41.35,31.68,45,27.78,47.25Z"/>
          <path class="cls-15" d="M27.6,47.18a15.29,15.29,0,0,1-13.82,0c-3.82-2.2-3.82-5.78,0-8a15.29,15.29,0,0,1,13.82,0C31.41,41.4,31.41,45,27.6,47.18Z"/>
          <path class="cls-16" d="M27.41,47.11a14.91,14.91,0,0,1-13.52,0c-3.74-2.15-3.74-5.65,0-7.81a15,15,0,0,1,13.52,0C31.15,41.46,31.15,45,27.41,47.11Z"/>
          <path class="cls-17" d="M27.23,47A14.64,14.64,0,0,1,14,47c-3.65-2.11-3.65-5.53,0-7.64a14.64,14.64,0,0,1,13.24,0C30.88,41.51,30.88,44.93,27.23,47Z"/>
          <path class="cls-18" d="M27,47A14.32,14.32,0,0,1,14.1,47c-3.57-2.07-3.57-5.41,0-7.48A14.32,14.32,0,0,1,27,39.5C30.62,41.57,30.62,44.91,27,47Z"/>
          <path class="cls-19" d="M26.86,46.91a14,14,0,0,1-12.65,0c-3.5-2-3.5-5.29,0-7.31a14,14,0,0,1,12.65,0C30.35,41.62,30.35,44.89,26.86,46.91Z"/>
          <path class="cls-20" d="M26.67,46.84a13.66,13.66,0,0,1-12.36,0c-3.41-2-3.41-5.16,0-7.13a13.66,13.66,0,0,1,12.36,0C30.08,41.68,30.08,44.87,26.67,46.84Z"/>
          <path class="cls-21" d="M26.49,46.77a13.37,13.37,0,0,1-12.07,0c-3.33-1.92-3.33-5,0-7a13.3,13.3,0,0,1,12.07,0C29.82,41.73,29.82,44.85,26.49,46.77Z"/>
          <path class="cls-22" d="M26.3,46.7a13,13,0,0,1-11.77,0c-3.25-1.87-3.25-4.92,0-6.79a13,13,0,0,1,11.77,0C29.55,41.78,29.55,44.83,26.3,46.7Z"/>
          <path class="cls-23" d="M26.06,46.6a12.86,12.86,0,0,1-11.56,0c-3.19-1.83-3.2-4.82,0-6.65a12.86,12.86,0,0,1,11.56,0C29.25,41.8,29.25,44.77,26.06,46.6Z"/>
          <path class="cls-24" d="M25.82,46.49a12.71,12.71,0,0,1-11.34,0c-3.14-1.78-3.15-4.71,0-6.5a12.75,12.75,0,0,1,11.36,0C29,41.82,29,44.71,25.82,46.49Z"/>
          <path class="cls-25" d="M25.58,46.38a12.55,12.55,0,0,1-11.13.07c-3.08-1.74-3.1-4.62,0-6.35a12.56,12.56,0,0,1,11.15,0C28.66,41.83,28.66,44.65,25.58,46.38Z"/>
          <path class="cls-26" d="M25.34,46.28a12.39,12.39,0,0,1-10.92.08c-3-1.69-3.05-4.51,0-6.2a12.44,12.44,0,0,1,10.94,0C28.37,41.85,28.37,44.59,25.34,46.28Z"/>
          <path class="cls-27" d="M25.1,46.17a12.18,12.18,0,0,1-10.7.1c-3-1.64-3-4.41,0-6.05a12.34,12.34,0,0,1,10.74,0C28.07,41.86,28.07,44.53,25.1,46.17Z"/>
          <path class="cls-28" d="M24.86,46.07a12.13,12.13,0,0,1-10.49.12c-2.91-1.6-2.95-4.31,0-5.91a12.22,12.22,0,0,1,10.53,0C27.77,41.88,27.77,44.47,24.86,46.07Z"/>
          <path class="cls-29" d="M24.62,46a12,12,0,0,1-10.28.14c-2.85-1.55-2.89-4.2,0-5.75a12,12,0,0,1,10.32,0C27.48,41.9,27.48,44.41,24.62,46Z"/>
          <path class="cls-30" d="M24.39,45.85A11.8,11.8,0,0,1,14.32,46c-2.8-1.51-2.85-4.11-.05-5.61a11.94,11.94,0,0,1,10.12,0C27.18,41.91,27.18,44.35,24.39,45.85Z"/>
          <path class="cls-31" d="M24.15,45.75a11.69,11.69,0,0,1-9.86.18c-2.74-1.46-2.8-4-.06-5.46a11.85,11.85,0,0,1,9.92,0C26.88,41.93,26.88,44.29,24.15,45.75Z"/>
          <path class="cls-32" d="M23.91,45.64a11.54,11.54,0,0,1-9.65.2c-2.68-1.41-2.74-3.89-.06-5.3a11.67,11.67,0,0,1,9.71,0C26.59,42,26.59,44.23,23.91,45.64Z"/>
          <path class="cls-33" d="M23.67,45.54a11.42,11.42,0,0,1-9.43.22c-2.63-1.37-2.7-3.8-.07-5.16a11.57,11.57,0,0,1,9.5,0C26.29,42,26.29,44.17,23.67,45.54Z"/>
          <path class="cls-34" d="M23.43,45.43a11.24,11.24,0,0,1-9.22.24c-2.57-1.31-2.64-3.69-.08-5a11.5,11.5,0,0,1,9.3,0C26,42,26,44.11,23.43,45.43Z"/>
          <path class="cls-35" d="M23.19,45.32c-2.51,1.27-6.5,1.54-9,.27s-2.59-3.6-.08-4.87a11.32,11.32,0,0,1,9.09,0C25.7,42,25.7,44.05,23.19,45.32Z"/>
          <path class="cls-36" d="M23,45.22c-2.45,1.22-6.34,1.5-8.79.28s-2.55-3.49-.09-4.71a11.15,11.15,0,0,1,8.88,0C25.4,42,25.4,44,23,45.22Z"/>
          <path class="cls-37" d="M22.71,45.11c-2.4,1.18-6.19,1.48-8.58.3S11.64,42,14,40.85a11.08,11.08,0,0,1,8.68,0C25.1,42,25.1,43.93,22.71,45.11Z"/>
          <path class="cls-38" d="M22.47,45c-2.34,1.13-6,1.46-8.37.33S11.66,42,14,40.91a11,11,0,0,1,8.47,0C24.81,42,24.81,43.87,22.47,45Z"/>
          <path class="cls-39" d="M22.23,44.9c-2.28,1.08-5.87,1.43-8.16.34S11.69,42.06,14,41a10.84,10.84,0,0,1,8.26,0C24.51,42.06,24.51,43.82,22.23,44.9Z"/>
          <path class="cls-40" d="M22,44.79c-2.22,1-5.72,1.4-7.94.37s-2.34-3.08-.12-4.12A10.8,10.8,0,0,1,22,41C24.22,42.08,24.22,43.76,22,44.79Z"/>
          <path class="cls-41" d="M21.75,44.69c-2.17,1-5.56,1.37-7.73.38s-2.29-3-.12-4a10.75,10.75,0,0,1,7.85,0C23.92,42.09,23.92,43.7,21.75,44.69Z"/>
          <path class="cls-42" d="M21.51,44.58c-2.11.94-5.4,1.35-7.52.4s-2.23-2.87-.12-3.82a10.7,10.7,0,0,1,7.64,0C23.62,42.11,23.62,43.64,21.51,44.58Z"/>
          <path class="cls-43" d="M21.27,44.47c-2.05.9-5.25,1.32-7.3.43s-2.19-2.78-.13-3.67a10.56,10.56,0,0,1,7.43,0C23.33,42.12,23.33,43.58,21.27,44.47Z"/>
          <path class="cls-44" d="M21.07,44.44c-2,.88-5.1,1.28-7.1.4s-2.12-2.7-.12-3.58a10.2,10.2,0,0,1,7.22,0C23.06,42.14,23.06,43.56,21.07,44.44Z"/>
          <path class="cls-45" d="M20.86,44.41c-1.93.85-4.95,1.24-6.88.38s-2.06-2.64-.12-3.49a9.82,9.82,0,0,1,7,0C22.79,42.15,22.79,43.55,20.86,44.41Z"/>
          <path class="cls-46" d="M20.65,44.37c-1.87.84-4.79,1.2-6.67.36s-2-2.56-.11-3.4a9.44,9.44,0,0,1,6.78,0C22.53,42.17,22.53,43.53,20.65,44.37Z"/>
          <path class="cls-47" d="M20.45,44.34a8.83,8.83,0,0,1-6.46.34c-1.82-.82-1.92-2.49-.11-3.32a9.08,9.08,0,0,1,6.57,0C22.26,42.19,22.26,43.52,20.45,44.34Z"/>
          <path class="cls-48" d="M20.24,44.3a8.47,8.47,0,0,1-6.25.33c-1.75-.81-1.85-2.43-.1-3.23a8.7,8.7,0,0,1,6.35,0C22,42.2,22,43.5,20.24,44.3Z"/>
          <path class="cls-49" d="M20,44.27a8.09,8.09,0,0,1-6,.3c-1.7-.78-1.79-2.35-.1-3.14a8.32,8.32,0,0,1,6.13,0C21.73,42.22,21.73,43.49,20,44.27Z"/>
          <path class="cls-50" d="M19.83,44.23a7.72,7.72,0,0,1-5.83.29c-1.63-.77-1.72-2.29-.09-3.05a7.87,7.87,0,0,1,5.92,0C21.46,42.23,21.46,43.47,19.83,44.23Z"/>
          <path class="cls-51" d="M19.62,44.2a7.34,7.34,0,0,1-5.61.26c-1.58-.74-1.66-2.21-.08-3a7.57,7.57,0,0,1,5.69,0C21.2,42.25,21.2,43.45,19.62,44.2Z"/>
          <path class="cls-52" d="M19.42,44.17a7.06,7.06,0,0,1-5.41.24c-1.51-.73-1.59-2.15-.07-2.87a7.13,7.13,0,0,1,5.48,0C20.93,42.26,20.93,43.44,19.42,44.17Z"/>
          <path class="cls-53" d="M19.21,44.13a6.61,6.61,0,0,1-5.19.22c-1.46-.7-1.53-2.07-.07-2.78a6.76,6.76,0,0,1,5.26,0C20.66,42.28,20.66,43.42,19.21,44.13Z"/>
          <path class="cls-54" d="M19,44.1a6.31,6.31,0,0,1-5,.2c-1.39-.69-1.45-2-.06-2.7a6.48,6.48,0,0,1,5,0C20.4,42.29,20.4,43.41,19,44.1Z"/>
          <path class="cls-55" d="M18.8,44.06a5.92,5.92,0,0,1-4.77.18c-1.34-.66-1.39-1.93-.06-2.6a6.05,6.05,0,0,1,4.83,0C20.13,42.31,20.13,43.39,18.8,44.06Z"/>
          <path class="cls-56" d="M18.59,44a5.58,5.58,0,0,1-4.56.16c-1.27-.65-1.32-1.87,0-2.52a5.69,5.69,0,0,1,4.61,0C19.86,42.32,19.86,43.38,18.59,44Z"/>
          <path class="cls-57" d="M18.38,44a5.19,5.19,0,0,1-4.34.15c-1.22-.64-1.26-1.8,0-2.43a5.33,5.33,0,0,1,4.39,0C19.6,42.34,19.6,43.36,18.38,44Z"/>
          <path class="cls-58" d="M18.18,44a4.92,4.92,0,0,1-4.14.12c-1.15-.61-1.19-1.73,0-2.34a5,5,0,0,1,4.18,0C19.33,42.35,19.33,43.35,18.18,44Z"/>
          <path class="cls-59" d="M18,43.93a4.57,4.57,0,0,1-3.92.1c-1.1-.6-1.13-1.66,0-2.25a4.58,4.58,0,0,1,4,0C19.06,42.37,19.06,43.33,18,43.93Z"/>
          <path class="cls-60" d="M17.77,43.89a4.2,4.2,0,0,1-3.72.08,1.14,1.14,0,0,1,0-2.16,4.3,4.3,0,0,1,3.74,0C18.8,42.39,18.8,43.32,17.77,43.89Z"/>
          <path class="cls-61" d="M17.56,43.86a3.92,3.92,0,0,1-3.5.06,1.1,1.1,0,0,1,0-2.08,4,4,0,0,1,3.52,0A1.06,1.06,0,0,1,17.56,43.86Z"/>
          <path class="cls-62" d="M17.35,43.82a3.54,3.54,0,0,1-3.29,0,1.06,1.06,0,0,1,0-2,3.56,3.56,0,0,1,3.3,0A1,1,0,0,1,17.35,43.82Z"/>
          <path class="cls-63" d="M17.15,43.79a3.24,3.24,0,0,1-3.08,0,1,1,0,0,1,0-1.9,3.31,3.31,0,0,1,3.09,0A1,1,0,0,1,17.15,43.79Z"/>
          <path class="cls-64" d="M16.94,43.75a2.93,2.93,0,0,1-2.87,0,1,1,0,0,1,0-1.8,2.93,2.93,0,0,1,2.87,0A1,1,0,0,1,16.94,43.75Z"/>
        </g>
        <path class="cls-65" d="M16.91,27.09V42.54a.92.92,0,0,1-.17.51,1.68,1.68,0,0,1-.52.45,3.67,3.67,0,0,1-3.33,0,1.52,1.52,0,0,1-.51-.45.86.86,0,0,1-.18-.51V27.09a.88.88,0,0,0,.18.51,1.64,1.64,0,0,0,.51.45,3.67,3.67,0,0,0,3.33,0,1.82,1.82,0,0,0,.52-.45A.94.94,0,0,0,16.91,27.09Z"/>
        <g>
          <path class="cls-66" d="M16.91,16.53V34.07c0,1.78-4.71-.31-4.71-2.09V16.53a.86.86,0,0,0,.18.51,1.52,1.52,0,0,0,.51.45,3.36,3.36,0,0,0,1.67.4,3.34,3.34,0,0,0,1.66-.4,1.68,1.68,0,0,0,.52-.45A.92.92,0,0,0,16.91,16.53Z"/>
          <path class="cls-67" d="M16.91,16.42V33.86c0,1.78-4.71-.24-4.71-2V16.42a.84.84,0,0,0,.18.51,1.42,1.42,0,0,0,.51.45,3.36,3.36,0,0,0,1.67.4,3.34,3.34,0,0,0,1.66-.4,1.56,1.56,0,0,0,.52-.45A.89.89,0,0,0,16.91,16.42Z"/>
          <path class="cls-68" d="M16.91,16.32V33.65c0,1.78-4.71-.18-4.71-2V16.32a.88.88,0,0,0,.18.51,1.64,1.64,0,0,0,.51.45,3.75,3.75,0,0,0,3.33,0,1.82,1.82,0,0,0,.52-.45A.94.94,0,0,0,16.91,16.32Z"/>
          <path class="cls-69" d="M16.91,16.21V33.45c0,1.78-4.71-.13-4.71-1.91V16.21a.86.86,0,0,0,.18.51,1.52,1.52,0,0,0,.51.45,3.36,3.36,0,0,0,1.67.4,3.34,3.34,0,0,0,1.66-.4,1.68,1.68,0,0,0,.52-.45A.92.92,0,0,0,16.91,16.21Z"/>
          <path class="cls-70" d="M16.91,16.1V33.24c0,1.78-4.71-.06-4.71-1.84V16.1a.84.84,0,0,0,.18.51,1.42,1.42,0,0,0,.51.45,3.36,3.36,0,0,0,1.67.4,3.34,3.34,0,0,0,1.66-.4,1.56,1.56,0,0,0,.52-.45A.89.89,0,0,0,16.91,16.1Z"/>
          <path class="cls-71" d="M16.91,16V33c0,1.78-4.71,0-4.71-1.79V16a.88.88,0,0,0,.18.51,1.64,1.64,0,0,0,.51.45,3.67,3.67,0,0,0,3.33,0,1.82,1.82,0,0,0,.52-.45A.94.94,0,0,0,16.91,16Z"/>
          <path class="cls-72" d="M16.91,15.89V32.83c0,1.78-4.71.06-4.71-1.72V15.89a.86.86,0,0,0,.18.51,1.52,1.52,0,0,0,.51.45,3.36,3.36,0,0,0,1.67.4,3.34,3.34,0,0,0,1.66-.4,1.68,1.68,0,0,0,.52-.45A.92.92,0,0,0,16.91,15.89Z"/>
          <path class="cls-73" d="M16.91,15.78V32.63c0,1.78-4.71.11-4.71-1.67V15.78a.84.84,0,0,0,.18.51,1.42,1.42,0,0,0,.51.45,3.36,3.36,0,0,0,1.67.4,3.34,3.34,0,0,0,1.66-.4,1.56,1.56,0,0,0,.52-.45A.89.89,0,0,0,16.91,15.78Z"/>
          <path class="cls-74" d="M16.91,15.68V32.42c0,1.78-4.71.18-4.71-1.6V15.68a.88.88,0,0,0,.18.51,1.64,1.64,0,0,0,.51.45,3.67,3.67,0,0,0,3.33,0,1.82,1.82,0,0,0,.52-.45A.94.94,0,0,0,16.91,15.68Z"/>
          <path class="cls-75" d="M16.91,15.57V32.21c0,1.78-4.71.24-4.71-1.54V15.57a.86.86,0,0,0,.18.51,1.42,1.42,0,0,0,.51.45,3.36,3.36,0,0,0,1.67.4,3.34,3.34,0,0,0,1.66-.4,1.56,1.56,0,0,0,.52-.45A.92.92,0,0,0,16.91,15.57Z"/>
          <path class="cls-76" d="M16.91,15.46V32c0,1.78-4.71.29-4.71-1.49V15.46a.89.89,0,0,0,.18.52,1.51,1.51,0,0,0,.51.44,3.36,3.36,0,0,0,1.67.4,3.34,3.34,0,0,0,1.66-.4,1.66,1.66,0,0,0,.52-.44A1,1,0,0,0,16.91,15.46Z"/>
          <path class="cls-77" d="M16.91,15.36V31.8c0,1.78-4.71.36-4.71-1.42v-15a.88.88,0,0,0,.18.51,1.52,1.52,0,0,0,.51.45,3.67,3.67,0,0,0,3.33,0,1.68,1.68,0,0,0,.52-.45A.94.94,0,0,0,16.91,15.36Z"/>
          <path class="cls-78" d="M16.91,15.25V31.6c0,1.78-4.71.41-4.71-1.37v-15a.86.86,0,0,0,.18.51,1.42,1.42,0,0,0,.51.45,3.36,3.36,0,0,0,1.67.4,3.34,3.34,0,0,0,1.66-.4,1.56,1.56,0,0,0,.52-.45A.92.92,0,0,0,16.91,15.25Z"/>
          <path class="cls-79" d="M16.91,15.14V31.39c0,1.78-4.71.48-4.71-1.3V15.14a.89.89,0,0,0,.18.52,1.51,1.51,0,0,0,.51.44,3.36,3.36,0,0,0,1.67.4,3.34,3.34,0,0,0,1.66-.4,1.66,1.66,0,0,0,.52-.44A1,1,0,0,0,16.91,15.14Z"/>
          <path class="cls-80" d="M16.91,15V31.18c0,1.78-4.71.54-4.71-1.24V15a.86.86,0,0,0,.18.51,1.52,1.52,0,0,0,.51.45,3.67,3.67,0,0,0,3.33,0,1.68,1.68,0,0,0,.52-.45A.92.92,0,0,0,16.91,15Z"/>
          <path class="cls-81" d="M16.91,14.93V31c0,1.78-4.71.6-4.71-1.18V14.93a.86.86,0,0,0,.18.51,1.42,1.42,0,0,0,.51.45,3.36,3.36,0,0,0,1.67.4,3.34,3.34,0,0,0,1.66-.4,1.56,1.56,0,0,0,.52-.45A.92.92,0,0,0,16.91,14.93Z"/>
          <path class="cls-82" d="M16.91,14.82v16c0,1.78-4.71.66-4.71-1.12V14.82a.89.89,0,0,0,.18.52,1.64,1.64,0,0,0,.51.45,3.75,3.75,0,0,0,3.33,0,1.82,1.82,0,0,0,.52-.45A1,1,0,0,0,16.91,14.82Z"/>
          <path class="cls-83" d="M16.91,14.72V30.57c0,1.78-4.71.72-4.71-1.06V14.72a.86.86,0,0,0,.18.51,1.52,1.52,0,0,0,.51.45,3.67,3.67,0,0,0,3.33,0,1.68,1.68,0,0,0,.52-.45A.92.92,0,0,0,16.91,14.72Z"/>
          <path class="cls-84" d="M16.91,14.61V30.36c0,1.78-4.71.78-4.71-1V14.61a.84.84,0,0,0,.18.51,1.42,1.42,0,0,0,.51.45,3.36,3.36,0,0,0,1.67.4,3.34,3.34,0,0,0,1.66-.4,1.56,1.56,0,0,0,.52-.45A.89.89,0,0,0,16.91,14.61Z"/>
          <path class="cls-85" d="M16.91,14.5V30.15c0,1.78-4.71.84-4.71-.94V14.5a.89.89,0,0,0,.18.52,1.64,1.64,0,0,0,.51.45,3.75,3.75,0,0,0,3.33,0,1.82,1.82,0,0,0,.52-.45A1,1,0,0,0,16.91,14.5Z"/>
          <path class="cls-86" d="M16.91,14.4V30c0,1.78-4.71.9-4.71-.88V14.4a.86.86,0,0,0,.18.51,1.52,1.52,0,0,0,.51.45,3.67,3.67,0,0,0,3.33,0,1.68,1.68,0,0,0,.52-.45A.92.92,0,0,0,16.91,14.4Z"/>
          <path class="cls-87" d="M16.91,14.29V29.74c0,1.78-4.71,1-4.71-.82V14.29a.84.84,0,0,0,.18.51,1.42,1.42,0,0,0,.51.45,3.36,3.36,0,0,0,1.67.4,3.34,3.34,0,0,0,1.66-.4,1.56,1.56,0,0,0,.52-.45A.89.89,0,0,0,16.91,14.29Z"/>
        </g>
        <g>
          <path class="cls-88" d="M14.56,29.11A14.56,14.56,0,1,0,0,14.56,14.58,14.58,0,0,0,14.56,29.11Z"/>
          <path class="cls-89" d="M14.56,29A14.44,14.44,0,1,0,.12,14.56,14.46,14.46,0,0,0,14.56,29Z"/>
          <path class="cls-90" d="M14.56,28.87A14.32,14.32,0,1,0,.24,14.56,14.34,14.34,0,0,0,14.56,28.87Z"/>
          <path class="cls-91" d="M14.56,28.75A14.2,14.2,0,1,0,.36,14.56,14.21,14.21,0,0,0,14.56,28.75Z"/>
          <path class="cls-92" d="M14.56,28.63A14.08,14.08,0,1,0,.48,14.56,14.1,14.1,0,0,0,14.56,28.63Z"/>
          <path class="cls-93" d="M14.56,28.51A14,14,0,1,0,.6,14.56,14,14,0,0,0,14.56,28.51Z"/>
          <circle class="cls-94" cx="14.56" cy="14.56" r="13.84" transform="translate(-4.27 6.22) rotate(-21.11)"/>
          <circle class="cls-95" cx="14.56" cy="14.56" r="13.72" transform="translate(-4.22 6.11) rotate(-20.77)"/>
          <circle class="cls-96" cx="14.56" cy="14.56" r="13.6" transform="translate(-4.16 5.98) rotate(-20.39)"/>
          <circle class="cls-97" cx="14.56" cy="14.56" r="13.48" transform="translate(-4.1 5.85) rotate(-19.97)"/>
          <circle class="cls-98" cx="14.56" cy="14.56" r="13.36" transform="translate(-4.02 5.69) rotate(-19.49)"/>
          <circle class="cls-99" cx="14.56" cy="14.56" r="13.24" transform="translate(-3.94 5.51) rotate(-18.94)"/>
          <circle class="cls-100" cx="14.56" cy="14.56" r="13.12" transform="translate(-3.84 5.31) rotate(-18.32)"/>
          <circle class="cls-101" cx="14.56" cy="14.56" r="13" transform="translate(-3.72 5.08) rotate(-17.59)"/>
          <circle class="cls-102" cx="14.56" cy="14.56" r="12.88" transform="translate(-3.58 4.81) rotate(-16.75)"/>
          <circle class="cls-103" cx="14.56" cy="14.56" r="12.77" transform="translate(-3.41 4.5) rotate(-15.75)"/>
          <circle class="cls-104" cx="14.56" cy="14.56" r="12.65" transform="matrix(0.97, -0.25, 0.25, 0.97, -3.19, 4.13)"/>
          <circle class="cls-105" cx="14.56" cy="14.56" r="12.53" transform="translate(-2.92 3.68) rotate(-13.11)"/>
          <circle class="cls-106" cx="14.56" cy="14.56" r="12.41" transform="translate(-2.58 3.14) rotate(-11.33)"/>
          <circle class="cls-107" cx="14.56" cy="14.56" r="12.29" transform="translate(-2.12 2.49) rotate(-9.1)"/>
          <circle class="cls-108" cx="14.56" cy="14.56" r="12.17" transform="translate(-1.5 1.68) rotate(-6.28)"/>
          <circle class="cls-109" cx="14.56" cy="14.56" r="12.05" transform="translate(-0.66 0.69) rotate(-2.66)"/>
          <circle class="cls-110" cx="14.45" cy="14.45" r="11.72" transform="translate(-1.38 1.53) rotate(-5.77)"/>
          <circle class="cls-111" cx="14.34" cy="14.34" r="11.38" transform="translate(-2.08 2.43) rotate(-9.05)"/>
          <circle class="cls-112" cx="14.23" cy="14.23" r="11.05" transform="translate(-2.73 3.4) rotate(-12.43)"/>
          <circle class="cls-113" cx="14.12" cy="14.12" r="10.71" transform="translate(-3.31 4.38) rotate(-15.82)"/>
          <circle class="cls-114" cx="14.01" cy="14.01" r="10.38" transform="translate(-3.81 5.36) rotate(-19.12)"/>
          <circle class="cls-115" cx="13.9" cy="13.9" r="10.05" transform="translate(-4.23 6.3) rotate(-22.25)"/>
          <circle class="cls-116" cx="13.79" cy="13.79" r="9.71" transform="translate(-4.55 7.17) rotate(-25.17)"/>
          <circle class="cls-117" cx="13.68" cy="13.68" r="9.38" transform="translate(-4.8 7.97) rotate(-27.83)"/>
          <circle class="cls-118" cx="13.57" cy="13.57" r="9.04" transform="matrix(0.86, -0.5, 0.5, 0.86, -4.99, 8.68)"/>
          <circle class="cls-119" cx="13.45" cy="13.45" r="8.71" transform="matrix(0.84, -0.54, 0.54, 0.84, -5.11, 9.3)"/>
          <path class="cls-120" d="M13.34,21.72A8.38,8.38,0,1,0,5,13.34,8.39,8.39,0,0,0,13.34,21.72Z"/>
          <path class="cls-121" d="M13.23,21.28a8,8,0,1,0-8-8A8.07,8.07,0,0,0,13.23,21.28Z"/>
          <path class="cls-122" d="M13.12,20.83a7.71,7.71,0,1,0-7.7-7.71A7.72,7.72,0,0,0,13.12,20.83Z"/>
          <path class="cls-123" d="M13,20.39A7.38,7.38,0,1,0,5.64,13,7.39,7.39,0,0,0,13,20.39Z"/>
          <path class="cls-124" d="M12.9,20a7,7,0,1,0-7-7A7.07,7.07,0,0,0,12.9,20Z"/>
          <path class="cls-125" d="M12.79,19.5a6.71,6.71,0,1,0-6.7-6.71A6.72,6.72,0,0,0,12.79,19.5Z"/>
          <path class="cls-126" d="M12.68,19.06a6.38,6.38,0,1,0-6.37-6.38A6.38,6.38,0,0,0,12.68,19.06Z"/>
          <path class="cls-127" d="M12.57,18.61a6,6,0,1,0-6-6A6,6,0,0,0,12.57,18.61Z"/>
          <path class="cls-128" d="M12.46,18.17a5.71,5.71,0,1,0-5.7-5.71A5.71,5.71,0,0,0,12.46,18.17Z"/>
          <path class="cls-129" d="M12.35,17.73A5.38,5.38,0,1,0,7,12.35,5.39,5.39,0,0,0,12.35,17.73Z"/>
          <path class="cls-130" d="M12.24,17.28a5,5,0,1,0-5-5A5,5,0,0,0,12.24,17.28Z"/>
        </g>
      </g>
    </g>
  </g>
</svg>
