<svg xmlns="http://www.w3.org/2000/svg" viewBox="0 0 61.88 50.29">
  <defs>
    <style>
      .cls-1 {
        fill: #fff;
      }
    </style>
  </defs>
  <title>twitter</title>
  <g id="Layer_2" data-name="Layer 2">
    <g id="Layer_2-2" data-name="Layer 2">
      <path class="cls-1" d="M61.88,6a25.39,25.39,0,0,1-7.29,2,12.75,12.75,0,0,0,5.58-7A25.4,25.4,0,0,1,52.11,4,12.7,12.7,0,0,0,30.48,15.59,36.06,36.06,0,0,1,4.31,2.32a12.71,12.71,0,0,0,3.93,17,12.58,12.58,0,0,1-5.75-1.58v.16A12.68,12.68,0,0,0,12.67,30.29a12.64,12.64,0,0,1-3.34.45,12.5,12.5,0,0,1-2.39-.23,12.69,12.69,0,0,0,11.85,8.82A25.47,25.47,0,0,1,3,44.77a25.28,25.28,0,0,1-3-.19,35.87,35.87,0,0,0,19.46,5.71c23.35,0,36.12-19.34,36.12-36.12,0-.55,0-1.1,0-1.64A25.92,25.92,0,0,0,61.88,6Z"/>
    </g>
  </g>
</svg>
