<svg xmlns="http://www.w3.org/2000/svg" viewBox="0 0 873.22 1285.15">
  <defs>
    <style>
      .cls-1 {
        fill: none;
        stroke: #dbe46b;
        stroke-miterlimit: 10;
      }
    </style>
  </defs>
  <title>UK-outline</title>
  <g id="Layer_2" data-name="Layer 2">
    <g id="Layer_2-2" data-name="Layer 2">
      <path class="cls-1" d="M631.83,1167.71v1.1l-7.68-1v-1l2-.94,2.38-4.25,1.2.07.91.81.24.83-.3.82-.81.66v.92l.5.45.86,1Zm172.23-90.88-2.26,1.09-10.82-.49-1.86-.66-1.67-1.59-1.39-2-1-1.71,1-4.17.66-.84,1.19-.42,11.55,3.5.94.52,1.06.78,2,2,.94,2.16Zm-205.65,93.48,14.28,5.72,2.3-.12,1,.17,1.14.9.06.37-.1,1.19.07.46.26.09.81-.2.26.09,2,3,0,1.1H620l-.26.28-.2.37-.31.37-3.51,1.05-1.48.75-2.6,2.41-.51.65-.23.74.07,3.2,0,1.65-.31.74-10.41,3.23-3.43-1-12.34-8.6-.65-.91-3.11-2.18-1.1-.45-3.52.48-1.54.56-1.69,1.1,2.25-4.13,3.67-3.23,8.15-3.91-.2.46-.22,1-.17.55,2.29-.3,2.17-1.85,3.16-4,2.34-1.68ZM157.26,498.79l2,.77,3.32-1.91,2.11.69,7.91,5.18,1.32.44,1.9-.16,3.3-1.18,1.68-.26,3.26.83,1.63.93.67,1.14.66.41,2.91,3.66.78,1.61-.77,8.23-.72,2.44-1.42,3,.58,1.41,1.59.28h1.59l1.09.24,1.23.62,1,1,.56,1.41-.31,2.65-1.84,5.41.1,1,2.45.6,2.22,1.32,1.9,2,1.58,2.57.31,1,.45,2.41.44,1.13.51.76,1.29,1.18.61.86.74,1.14.68,1.51.51,1.86.12,2.22.68,4.08,2.09,1.49,2.46,1.14,1.88,3.23.53,0L213.5,566l-5.14-6.07,1.49-2.49,2.52.87,2.53,2.43,1.45,2.56.79,4.73-.46,4.11-1.39,3.14-2,2.1-2.62,1.15-5.17,1.19-2.35,1.16-2.37,1.89L199,584.87l-2.23,3.74-1.2,1.95,1,.79.3,1.31v1.28l.2.75,1.06.15.68-.7.5-.89,1-.86,2.06-3,.9-.88,3.11-1.3,3-2,1.91-.81,1.3.61,1.3,1.08,1.87.29,10.34-1.12.48.49.93,2.15.8.51.89.32.25.93v1.19l.13,1.57,1.1,5.2.9,2.25,1.43.9.5,1.22.24,5.89.27,2,2.49,4.35.54.39-.66,1.44.05.73.23.66-.06.73-.47.9-1.81,2.48-.6,1.81.47,2.5-.44,2.37-.91,1.15-1.18,1-.51,1.17,1.15,1.62-1.29.67-1.18,2.05-1.21.13-1-1.06-.69-2.15-.74-3-1-.51-.84-1.42-.54-1.68-.07-1.66.68-1.71,2.1-2.37.54-2.27-.06-4.6-.76-3.44-1.37-2.55-5.67-6.08L217,600l-2.57-.23-.06,1,.56,1.5-.31,1.45L213.8,605l-.87.79,1.2.15.92.69.74.78.61.49,3.19.44.92.87-1.42.48-1.91.27-.59.61,2.53,1.6L218.6,614l-.06,1.65.47,1.31,1.07.42L220,618l-.13.45-.5.89.59.95-2.8,7.58-.74,1.34-3.29,2.4-1,1.51,3.55-1.1,4.11-2.18,3.71-.82,2.38,2.79.57,5.72-1.28,4.16L222.67,645l-3,2.79-.39.16-1-.33-.41.07-.75,3.09-.61.33-.8.33-.66-.22-.21-1.2-1-1.06-5-.73-3.7.17-3.8,1.17-1.71.28-1.76.55-.63,1.71-.09,5.14v.55l-.39,2.74-.71,3.09-.91,2.89-1,2.33-1.67,1.84-3.74,1.72-2.86,2.69L182,677.68l-1.19.48-3.42.08-1.36-.35-1.44-1.19,0-.91,1.78-.82.71-.05-6.52-2.86-1.09-.16-.87-2.81-2.26-1-2.58-.34-1.81-.85-.6,1-1.2-1.18-1.3.11-1.28.56-1.17.21-1-.8-.61-1.14-.72-.14-1.25,2-.17.91.07,1.11,0,1.28L152.3,672l-.6.52-2.07.14-2.28.69-.63,0-.51-.4-.47-.67-.31-.67,0-.27-2.43-.07-7.59,2.37-.7-.14-1.28-.63-.68,0-.5.52-.47.62-.56.7-.48.24-1.19-.72-2.14-3L126.13,670l1.57-3.39.22-1.64-.83-1.72,2.13-2.43,1-2.7-.32-2.59-.67-.87L128.06,653l-1.7-1.68-.9-.61-1-.16-1,.48-.74.88-.75.78-1-.17-1.8-1.41-1.75-1.68-1.56-2-1.28-2.48-.39-1.5L114,642l-.31-1.31-.73-.88L110.05,638l1.55-.72.81-1.51,0-2.12-.8-2.81-.67-2.35-.52-.68-1-.16-.67-.42-.59-2.62-.55-1-5-4.86L99.74,617,97,617.1l-2.72,2.3-4.66,6.38-3,1.9-.69,0-1.51-.39-.36.16-.25.16-.18.63.14.93.27.76.22.29,0,.1-.77,1.32h-.11l-.52.52-.63-.23-.41.06L82,633.5l2.82,1.68-.69,2.07L87,640l-1.33,1.56.39,2.51-1.94,1.06-4.85.93-1,.66-.78.68-.61,1-.62,1.42.39.59.75.79.05.74-1.76.79.27,1.49-.33,1.45-.74,1.24-.87.85-1.24.55-.25-.57.18-1.37.13-1.73.21-1.28.32-1.08-.27-.39-2.75,1.36-.68.78-.07.91,1.68,4.37-.54,0-.92,0-4.1-1.7-1.31.18-.37-.12-.14-.65-.52-1.33-.71-.24-.87,0-.31-.21,1.07-1.2-2.13-.35-3.8,2.56-1.88.22-9.11-2.93-1-.81-.17-1.31,0-1.29-.55-1L38,644l-1.53-.5-5.18,0-4.7-1L25,641.28l-.94-2.38.2-6.53-.37-2.43-1.2-1.12-3.34-.74-.67-.33-.72-.43-1.33-1.77-.95-2.2-1.44-4.83-2.52-.21L9.67,617l-1.82-2.28-3.2-5.53-1.89-2.47L2,605.47,2,604.26l-.14-1.21-1-1.1.48-.23L2.94,601l4.68-1L9.86,599l1.07-.83.48-.61,1.25-2,2-2.5,2-1.86L23,593.26l3.35.37,3.4-1L39,585.19l3.65-.9v-.1h0v-2.85l-.88-.35-1.43.9-1.5.61-1.28-.66L35,579.14l-1.14-.83-.66.22-1.41.9-.71-.15-.63-.79-.69-1.91-.68-.51-1.45-.59-1.33-1-.59-1.53.85-2.23-.5-.32-1.31-1.31,4.42-1.74,3.16-2.69,1.19.1,2.26,2.4,2.71,1.7,2.91,0,3.08-1.5,3.21-2.68,1.58-.8L52.14,565l2.62-.52,1.53.95.89.16,1.15-.37,0-.37-.41-.49-.21-1.12.48-3.74.69-1.88,6.79-7.2,1.56-2.55,1.12-3.14.11-1.47,0-3.87.45-1.72.75-.77,1.74-.6.15-.17.68-1,.21-1.28-.21-3.79.42-1,.46-.15.26-.26-.24-1.3,2.68-3.57.91-.86,1.09-.74,5.48-.41L84,521l.73-1,.81-.86,1.7-.52h0l-1,2.69,1.31.19,4-.9L93,521l3.57,2.2,2.88.67,3-.24,1-.66,2-2.25,1.31-.83.07-1.83.89-2.7,1.16-2.31,1-1,1.07-1.31,1-6.65.65-2.07h1.37l3.47,2.73,1.6.76,11,.2,10-3.83,5.87-.08,1.48-.91,1.43-1.75,1.72-1.36,1.9-.89,1.89-.06Zm140,291.05,1.05,0,1.57-.13.64.58,1.29,1.33,1.13,1.6.78,1.86.23,1.94.39.84.73.94.46,1.22L305,801.6l-.73.34-.89-.4-1.75-1.72L300,796.36l-.84-1-.76-.22-2.59.09-.53-.39-1.45-2.62,0-1,2.44-2ZM191,412.65v4.41l.43,1.41,1.07,1.63,1.17,1.26.77.51.36.57-.28,1.27L194,425l-.15.91.36.85.51.58,1.34.72-.31,1.73-.07,1.65.17,1.49.42,1.22,0,.91-1,.49-.91.6-.7.78-.46,1.17-.45-1.13-1.64,2.2-2,1.72-2.3,1.06-2.38.6-3.52-.77-1.12.48-.82,3.17-.37.53-.86.87-2.23,1.61-2.18.6-1.95-.85-1-3.28.71-3.36,1.94-2,4.7-2.38-1.47-5.33-1-1.25-3.21-1.86-.69-.13.53-2.64,2.28-2.52,4-3.53-1.75-1-2.36-.51-2.37.22-1.8,1.36-2.28,5-1.32,2.31L163.52,429l-2.92,3.77-1.11,1.12-2.39.31-.94-1.53.24-2.38,1.25-2.59-.42-.3-.27-.57-.42-.3,1-2.33,4.08-5.35L159,416.65l1.15-.85.75-.87.43-1.35.25-2.38.33-1.82.72-1.15,3.13-2,4.69-1.72,1-1,1-.68,1,.53-.68.88-1.29,4.15-.06.91.45,2.7.55,1.14,1,.34.06-1-.44-2.88,2-3.19,2.85-2.58,3.07-1.56,2.23-2.71,1.12-.58,1.18-.3,1.31-.65,1.14-1,.8-.87.81.33.5.58.23.93v6.35Zm34-47.26-2,.17,1-2.43,1.41-1.3,2.9-2.05.56,1.13.46,2.32-1.77,1.47Zm56.27,67-.61.89-1.06,0-.75-1.32-.86-2.7-5.23-5.38L272,421.3l-.79-4.17-.07-1.94-2.8-2.05-.49-1.13-.54-2.32-.91-2.61.21-2.29,2.79-1.34,2.45,2.31,2.42,3,.73.49.71.22.55.48.34,3.32.56.77.74.3.69.68.92,2.06.69,2,.51,2,.65,4.62-.15.91-.57.71-1,2,.88.68.57,1.13Zm56,362,1.09.31,1.16-.15,2.05-.58,1.1-.06.53-.35.81-1.44.53-.26.6.2,1.08.77.41.19,2.58,0,1.23.31,1,.86-1.87,2-3.24,5.68-2.16,1.13-2.21.39-2.29,1-2.14,1.59-1.76,1.87-.35.45-.17.36-.08.64,0,1.1-.12,1.19-.25.09-.41-.2-3.19,2.19-1.43,1.7L324,818.49l-.95.34-1.07-.31-2.25-1.09,0,.37-.57.44-.7.34-.54-.29-.11-.83.1-1.37.18-1.28.24-.55.71-.61,1.06-1.35.52-1.36-.92-.67-1.37.6-2,2.77-1.31.51-.1-.46L312,811l-.24-.1-.73.16-.24-.1,0-.37.15-1.28,0-.37v-.46l-.07-1-.24-1.11-1.75-1.81-2.74-5.87-1.49-2.08,0-1.1.55-1.45.27-2.28.06-3.21.62-4.94-.12-2.11-.8-2.23,1.58-1.14,11.44-3.45,1.13,0,6.07,1.21,1.66.14,3.31,2,.86.76.35,1.85.16,1.74.28.84-.1.36,1.07.86,1.27.78.46.1.06.74-.11,1-.06.92.29.37.07.37,1.35,1.7.44,1.66.13,1.29Zm-118-408.19-7.76,13.55-2.16,5.76-.83-.32-2.21,2.45-1.43.65-.65,1.07L203.1,415l-.69,2.17-2.21,1.44-3.24-.47-2.85-2.09-1.1-3.84-.32-7.19.33-2.56.93-2.24,1.32-.94,1.46-.65,1.43-1.38,2.56-2,6.58-.91,2.83-2.14-1.95-.2-3.11.74-2.81-.07-1.09-2.45,1.22-3.33,2.53-3.72,2.72-3,1.79-1.19,2.53-.68,6.65-5.88,4.44-4.08,2.62-1.61,1.72,1,.23,1.39.12,2-.2,1.82-1.37,1.22-1.37,2.13-1.74,1.65Zm-39,104.06.09,1.57-.64,1.89-.89,1.6-.68.88.2-1.18.1-.73.11-.46.35-.71-1.83-1.77L175,491l-2.1.06-1.92-.4,1-.85,1-.59,1-.3,1.11-.12,4.33.91Zm90-15.41-3.89.56-4.49-.67-3.79-1.55-3.39-2.37-3.29-3.19.05-1,0-1-.59-4-.28-1.11,0-1,.46-.35.17-.36.18-.54.42-.62L250,454.44l-1.41-3-.56-3.52.65-4.83,1.27-3.07,2.18-3.11,2.69-2.16,2.85-.42-.16-.47-.15-1.11-.16-.55h2.18l.67.12,5.28,3,1.41,1.45,1.61,2.92,1,3.17,1.35,7.41-1,1.88,3.44,3.92.05,3.4-.85.42-1.19-.05-.81.51.38,2,.65.58,3.37,1.72-1.94,1.2.07,1.93.76,2.33.13,2.48L272.47,474ZM235.05,350.94l.07,2.12-.75,2.07-.94,2.16-1,4.54-.8-1-1.35-4,.92-1.42,1.11-3.44,1.05-1.14.41.57.39.39.41-.07Zm-44.17,19.95-2.94,4.42-1.15,2.88.1,2.67L185.15,382l-2.31.59-2.27-.23-1.67-1,1.38-1,.72-1.61.53-2,.85-1.7,1.88-2.18.54-.8.65-.51,1.27.63.73-.51-.23-.56-.12-.47-.18-.93,1.42-.1,1.32-.56,1,.06Zm46.94-29-.55,1.81-.86,1.15-.5,1.26.41,2-1.92,1L232.93,348l-.42-2.32,1.29-3,1-.68,1.87.38Zm-34.3-45.39,1.82,3.14,2.85,8.17.2,1-.06,1,.18.75.82.32,8.16.46.63.59.56,1,.57.59,1.32-.85.8-.14.8.23.55.49,1.65,2.94.67.68.77.32,1.54-.2.53,0,.89.88,1,1.34.82,1.79.28,1.86.6.3,1.21-.21.83.6-.59,2.91-.66-.49-.65-.31-1.48-.36.66,1.05,1.08,2.17.5,2.05-1.09.86-2.67-.05-1.17-.62.24-1.64-.47-.67-.49-.3-.56,0-.61,0,.15,1.93-1.06,1.69L221.86,334l-.06,1.1,1.35-.94,1.51-.56,3.13-.29,1.28.81-.62,1.62-1.52,1.66-7.55,4.55-3.31.65-2.52-2,.56-.33,1-1,.81-1.24.18-1.37-.62-.77-1,0-2.05.52-.44.53-.51,1-.62,1-.82.41-2.78.49-6.74,3-1.5,1.47-1,.77-1-.33-1-.71-.92-.51-.86.32-2.05,1.25-.89.41-7.65-.47-.51.43-.44,1-.55,1-.9.41-1-.07-1.67-.74-2.18-1.52L175,343.79l-1.06-2.28-.31-2.78.87-2.06,1.86-1.08,2.09-.33,1.61.38,1.2,1.64,1,2.27,1.07,1.35,1.57-1,.06-1-.63-.14-.34-.29-.26-.29-.44-.4,1.54-.55,3.67,1,1.33-.56,1.46-1.29,5.75-.85,3.84-2.44,1.68-1.56-.47-.76-1.68.36-4.94,2.37-4.06.86-2-.3-1.54-1.57-.29-1.58.48-1.44.85-1.05.94-.41,1.09-.21.68-.69,1.37-2.95.29-1,.45-1.07.77-.88.8-.23,2.88.45,5-2,1-.77.57-1.44.13-1.46-.26-1.21-.7-1-5.44,2.44-1.74.17-.65.33-.73.6-.75.23-.71-.78-1.17-3.11-.65-1.42-.92-1.15-1.63-1.12-7.57-1.75-1.53-.84-1.27-1.09-1.07-1.26,4.08-2.69-.59-1.42L180,298.84l-.36-1.87,3-.08,1.38-.56,1.36-1.11.66,1.23.67.6.68,0,.65-.6.38-2.83,2.54-1.78,3.27-.81,2.64-.12,1.06.89,3.77,1.42-.17.64-.32,1.63-.19.64Zm-15.59-60.1-.07,1.1,2.15.14L188.6,243l-1.74,2.92-2.32,1.24-3.13.17-1.4-.92-1.07-3.66-1.1-.89-1.19-.63-2.35-2.82-1.45-.93,5.21-5.27,2.63-1.86,3.17-.26,4,3,1.65,2.13Zm-27.86,60.41-4.48,3.2-1.4.36-1.91-1-1-.06-.5,1.34-.43,1.45-.65-.87-.67-1.8-.35-1.5,2.28-.3,2.29-2,4.07-5.71,1-1.22,2.73-1.75,2-.7,2.57-2,1.36-.37,2.25-.22.75.42-.63,1.52-.87,1.42L167.19,290l-.62,1.06-.69.78-.67.6-.79.41-1.07,0Zm-27.47,21-1.74,0-5-2.75-.58-1.8-.32-2.32-.65-2.54,1.84-.87,5.59-.52,1.89-.51,3.16-1.81,1.88-.32L143,303.1l2.07.24.86,2.64-1.29,1.75-5,.29-.3,2.47-1.75,1.35-1.83.24-1.82.61-1.68,2.45Zm59.27.13h-4.3l-2-.49-2-2.06.95-1.32,1-.95,1.05-.49,1.17,0,1.12,1.36,2.35,2.26ZM98,234.55l.63.69-2.33-.18-.74.49-.73.86-.7.59-.69.5-.61.32.34,1.41-.77.86-1.29.45-1.28.17-5.17-1.43-1.17-.83.16-1.37,1-1.39,1.41-.53,1-.57.52-1.52-.06-1.67-.74-1.16,2.07-1.31,2-.21,1.6-1.16,1-4,.35,0,.25.3.47.77.54.14.38.21.33.3.31.49-1.35,2.47-.54.51,2.46,1.58.67.7.32,1,.14,1.21Zm147.29,93.57-1.37,2.51-1.57,1.66-1.84.73-2.19-.2.48-1.36.53-.89,1.39-1.67,2.59.22,1.18-.21ZM105.19,172.63l6.75,5.6-.74.49-.57,0-1.49-.67-.08,1,1.73.5,2.34,2.58,1.76.41-.07,1-2.33,1-1.64-1L109.5,182l-3.16-2.27L105,177.22l-1.44-1.68-1.91.86.46.5.47.68.39.77.12.66.15,1.3.54.32.73,0,.63.24,1.86,1.06.3.31.87,1.91,1.14.64,2.48.28,1.2.46.87,1.08.67,1.25.78.89h1.32l-.56,2.17-.8.68-1,.47-1,1-.58,1.34-1,3-.66,1.14-1.63.61-6-2.12-.08.91,5,2.05,1.31,1.48.55,2.35.1,3.14-.4,2.92-1,1.67-1.32-1-1.5-.3-3.12-.16-.08,1,1.4.39,2.91-.14,1.22.18,1.3,1.3.8,1.63.93,1.27,1.58.3-.07.92-2,1.87-6.52-1.89-2.63,1.27-2.1-2.93-.58-1.61-1.47-8-.11-2.41.62-1.7.08-1-1.22-2-.8-.89-1-.36,1.11-1.11.7-1,1.27-2.75.5-1.53.28-1.27.46-.79,1.07-.28.75-2-.58-4.57L99,175.18l1.66-1.07,3.77-1.54Zm5.71-11.07.61.42.78.15.9,0-.2.63,0,.09h-.12l-.35.25.65.6.68,0,.68-.22.76-.13.52.32,2.06,1.91-.59.87-1-.72-1.95,1.51-1.49,0,.3,1.49.63.61,1.85.14,1.13.55.54,1.05-.18,1-7,1.48-2.06-.62-5.9-4.34-.78-1.81.62-2.71,1.24-2.21,1.69-1.25,1.85.06.88.8,1,.35,1-.1,1-.76Zm105.83.05-.17,2.38-1.19-.8-.4-1.59.33-1.91,1-1.78-.31-.48,0-.09-.14-.56.59-.89.61-.61.54-.06.48.77ZM215.25,167l-.45,2.18-1.57,4.33-1.46,5-.19,4.59.55,1.13,1,2.45.3,2.5-1.43,1-1.34.47-1.32.85-1.32.38-1.31-.91.26-1.09.18-.36.28-.62-.79-1.34V185l1.21-9.4.74-2.44,1.36-1.12,2.31-.14.06-1-.5-.77-.4-.76-.55-1.6.94-.86.82,0,1.55,1.1.06-1.1-1-2.08.7.22.57.4.46.67ZM218,197.56l-2.71.94-2-1-1.72-2-.37-2,2-1.08,2.72.71,2,2.23Zm-79-97.7-.21,3.21-1,.48-2.64-2-.42,1.62-.61,1-.87.4h-1.08l.26-1.18.05-.36h-.09l-.06-.56,3.51-3,1.82-.69Zm29.36,130.41-2.63.29-2.59-.27-2.06-.69,1.32-.92,2.9-1.47,1.53-.35.89,1,1.92.59.92.8Zm22.63-95.34.59,1.6.64,1.05,1.75,1.59.69,1.14,1.71,3.42.23.66,3.35,3.34,1.4,2,.75,1.51.27,1.22.11,10.31.49,4.53,0,2-.36,2.19-.92,3.25-.27,2-.51,1.07-2.23,2-.83,1.33,1.05-1,1.37-.83,1.44-.47,1.19.54.58,1.5-.54,1.44-.91,1.14-.53.89.25,2.41,1.05,1.63,1.14,1.17.46,1.13-.67,1.25L201,193.51l-1.15.94,6.93-.5,1.77.66.28,1.21-1,1.32-2.07.8-.06,1,2.2-.15,1.81-.72,1.66-.18,1.65,1.94.73.69,1.07.15,2-.07,1.16.62.69,1.42.44,1.41.48.85,1.16.16.73-.6.55-1,.48-.52,3.3.37,2.42-2.26,2.28-.7,2.35.22,1.24,1.91,6,.32-1.52,3.6,0,1,.26,1.57-.38,1.46-.68,1.15L236,213.73l-3.07,2.32-1.23.58-3.21.19-.63,1-.3,3.21-.89,2-1.77,1.28-1.78.91-.81.69-.69,1.07-5.12,6.42-1.35,1.21-1.56,1-4.35.57-1.09-.61-.66-2,.4-2.46,2.36-3.17-.15-1.3.06-1,.49-.25.25-.44.43-1.36.29-.62.59-.7,1.63-2.67.78-1,.95-.86,8-3.5.06-1-2.29,1.16-2.3.51-6.85-.3-.4-.39-.08-.93,0-1-.13-.83-1.7-3.32-1-1.35-.91-.6.23,1.58.3,1.21.81,2.35-1,2.15-.61,1-.85.78.49,1.13-1.07,1.13-.77,1.61-.81,1.43-1.24.57-1-1.16-.31-2.69-.15-3V212l-.59-.87-.44-.21-.47.25-.69.7-.54-1-.61-.68-.7-.41-.76-.14-.06.92,1.08,1.26-1.46.92L185.37,215l.07-1.1,1-.77,2.62-3.05.06-.92L187.6,209l-1.44.27-1.41.65-1.31.93-1.39-2.48-1-2.83.89-.31.79-.5.67-.79.57-1.16-3.7.13-1.31-.54-3.45-5.29-.16-.47-.3-1.49-.22-.57-.38-.67-.32-.39-.26-.57-.16-1,3.85-2.42,1.63-.63,1.76.49,1.33,1.37,1.3,1.83,1.59,1.67,2.1.59-.92-2-4.73-4.54-1-1.35-.49-.49-.91-.24-.9.12-1.78.62-1-.06,1.2-.84.07-1.1-.63-.23-1.48-.92.58-.24.24-.17.28-.53-.72-.42-.49-.86-.06-1.2.5-1.62-1.21.19-1.71,1.91-1.12.67.51-1.26.17-1.37-.18-1.39-.7-1.15-.77,1.88-1,.58-1,.3-.82,1.15-.27,1.63.71,2.81-.28,1.64-1.39,1-7.16-3-1.79-1.41L155.77,181l-.48-2.15-.47-3.9-3.14-2.7-.6-3.36,4.88.34-1-1.36-.6-1.7,0-1.75.72-1.79,1.17-1.58.87-.31.7.51,3.79,6.53.4,1.41.68,1,1.36,1.2,1,.35-.34-1.87.06-.91.36-.26.36-.52.38-.16-1.23-1.83-.21-.29-.18-.57-.65-1.06-.11-.56.24-.62.76-.32.18-.45.7-.69,1.39.28,2.27,1.26-.59-2.71-1.86-2.52-2.32-1.82-1.94-.59,1.16-1.39,1-2.14.3-2.1-.83-1.35.09-1.19,1.64.21,1.05,1.17.8,1.44,1.67,1.22.23,1.3V154l.16.93.7,1,.51.5,3.56,2.26.81.88L176,161l1,1.27,1.07,0,1.14-.48h1.36l-2.11,4.28.8.23,1.85-2.09,1.12-2.78,1,.62,5.52,8.46.07-1-.36-.58-.34-.94-.31-.57.18-2-1-2L184.51,160l-1.13-3.2.4-1.54,1.18-1.4,1.17-2.87-1,0-.91-.15-.73-.51-.53-.58.47-2-.34-1.22-.6-1-.33-1,0-1.75.2-.44.55-.15,3.32-1.81.56-.61.8-1.7.58-1.71.66-1.06,1,.52.63-.14.26-.26Zm-70,2.17,1.21.92,2.5-1,1,.81,1.17.18,1.74.13,1.41.94.58,1.88-.91.85-1.51,2.38-.58.51-1.09-.27-.74-1.07-.5-1.23-.47-.59-.86-.35-1.66-2-3.56-.28-.09,1.1.93.17.51.4.06.56-.54,1-.09,1.1h2.3l.64.7.12,2,.43,1.42,1.28.09,2.62-.63-1.81,3.09-2,1.23-4.69.1-.57.14-1.22.65-.5.05-.49-.68-.54-2-.33-.49-1.08.19-3.57,2.49-.08,1.1,5.71.44,4.79-1,1.58.4,1.31.56.48.59.22,1-.34.89-1.84,3-3.31-.53-1.64.15-1.42,1-1.21-1.1-2.79,0-1.39-.38-.69-.61-.29-.39-.78-1.81-.21-.85-.3-.85-.59-.69.7,0,1.6-.89-2.59-.48-4.54-3.59-2.39-.74-.61.87-.6.6-.57.32-.62-.23-.94-.72-1.24-.57-3.4-2.95.09-1L94.1,142l1.47-2.46,1.29-2.84,1.53-2.37,1.58,1.14,5.49-.57-.08,1-.63,0-1.62.79,1.28,2,2.52-2.2,2.78-3.37,2-1.78-.07.91-.53.52-.42.61-.9,1.77,4.17,2.17,1.68.32.08-1-.53-.14-1-1,1.75-.6,3.92-2.46,2.22-.29.87,1.54.19,1.4-.58,1.15ZM428.44,4.34l.56.56,2.37,0,5.09-1.46,3.1-.31,4,3,2.56.05,5.11-.93,2.59,1.23-.52,2.66-1.53,3-.39,2.2-.91,1.18-1.19,2.73-.72,1.18-2.07,2-.56.91L445,25.3l-.06,2.39.81,1.75,1.62,1,1-.08.87-.53.75-.18.59.84.21,1.75-.35,1.28-.72.9-.79.18-.81,5.21-3.48,6.65-4.23,6-3,3.25L434,57.6l-6.86,2.34-2.77,1.69-4.25,4.14-.7,1.36-.66,2.37L417.27,72l-3.36,3.69-17.53,13.8-5.89,2.79L389,93.66l-.75,1.63-.84,2.91-.49,1.09-.7.72-2,1-2.5.48L376.59,105l-.77.44-.54.9-.33,1.19-.09,1.56-1.27-.78-.36-.37.57-.91-1.09-.58-2-.33-2.2-1.45-.38.54.18,1.29.64,1.31,1.14,1,2.46.16,1.18.68.52.66,1.57,2.89-1.72,2.71-.41,1.55L374,119l-1.25,0-2.32-1-1.2,0-.75.52L367,120.38l-.65.53-2.22-.16-4.45-2.44-2.15-.71-6.44,1.53-1.69-1.35L347,114.12l-1.47-1.43-1.54-.61,3.93,6.48,2.45,2.19,3,.75,3.23-1.45,1.68-.23,1.32,1.42,1.32,1.7,1.81,1.44,1.3,0-.36-2.5,4.93,3.65,2.74.81,4.56-3.44,2.53.72,1.34,1.87-1.13,1.9,2.55.8,3-1.2,2.89-2.67,2.34-3.15,1.21-1.44,1,.21.48,1.48-.26,2.38-.67,1.27L380,138.94l-1.86,1.42L376,143.51l-1.06,1-1.58.32-1.21-.59-.35-1.48,1.05-2.35-2.05-2.08-2.8.92-6.31,5.4-1.05.43-2,0-5.23,1.29-1.46-.32-1.36.05-.62,1.72-.61,2-1.24.88-1.15.51-5.32,5-.75.9-.7,1.53-.74,2.18.41.2,1.09-.79,2.43-1,1.22-1.06,1.16-1.53.86-1.34,1-1.35,3.69-2.16,3.16-3,3.45-1.72.64-.08.9.49,1,1.32,3.95,1,1.75.06,1.31-1.07,1-1,3.51-2.1,1.21-.24.33,1.94-1.73,3-2.4,2.86L367,155.09l-2.92,4.41.22.74.23.56.26.37.31.38-3.71.25-1.55.78-1.42,1.79.72,1.4-.55.16-1.83-.61-4.34-.14,0,1.1,2.29,0,1.08.22.94.86-1.57,3.35-.94,1.43-.95,1.17,2.87.83,1.42.13,1.69-.77,1.36-1.61.62-1,.09-.36,1.78-.13.85-.43,1.58-2.16,1.19-1.06L368,166l1.14-.24,1.45-.69-.86-1.68-2.87-2.75,2.18.16,7.33-.89,7.61.95,2.46-.66,12.37-8.86,4.75-1-.63,1.64-.41.72-.66.63,1,.94,1-.06,1.09-.44,1.19-.34-1.53-4,2.9,1.17,1.57.22,1.51-.33,1.17-.8,1.3-1.63.8-1.81-.43-1.76.82-1.45.71-.17.78.48,1,.2,1-.34,2.14-1.24,1-.35,9.84.66,5.84,4.05,10.36,3.75,3.47.24,3.21-1.05,5-3.42,1.31-.53,12.53.15.53.38.77,1.47.81.29.89-.27.67-.45.64-.18.82.93,2.69-1.26,6.76,2.45,2.51-.16,1.24,2.12.62-.27.57-1.1,1.06-.73,1.4.2,3.75,1.95.57-1.1.61.28.71.65.86.19.91-.46,1.36-1.37.72-.27,1.54,1,1,.28.42-.73.25-.83.57-.82.74-.55.66-.36,1.69.37,3.49,2.22,1.59.46,2.07-.36,4.75-3.66,1.28-.27,8.74.28,0,.64.49,1.29.69,1.28.69.83,1,.18,1.32-1.2h1l.54.65.91,2,6.76,7.61.72,2.47.28,2.66.45,2.66,1.24,2.39v.91l-.34,1.84.85,1.65,2.28,2.56-1.14.1-.54,1.1.08,1.28.77.64,1,.37-.54.92-1.83,1.65L546,186.79l-1.36,2.66-.19,2-8.37,7.9L534,202.59l-5.14,13.76L526.91,224l-.48,3,.23,2.75,1.54,1.2.25,1.28-1.3,2.75,0,.1-7.29,11.64-2.5,5.4-1.09,5.32.25,1.19.47.92.4,1.11,0,1.83-.38.82-1.51,1.93-.33.73-.51,2.66-1.18,1.65-2.8,2.28-2.18,3.11-2,3.48-1.31,1.55-4.55,2.91-1.37,1.19-1.47,1.73-.77,1.56-.41.82-.92,6.51-1,1.83-1.12,1.46-.85,2.19v1.2l.49,2,.07.82-.47,1-1.48,1.64-.87,2.56-1.28,1.55-7.7,5.44L480,320.24l-1.66,1.18-3.16,1.52-.74,1.19L472.83,328l-.79.36-.58-.38-.66-.56-1-.37-4.47.59-19.39,2.58-.41.08-3.2,1.42-2.86,2.16-8.72,8.56-3.46,1.41-3.54-1.26,1,1.39,1.42.67,3.49,0,1.74-.43,3.5-2.05,3.19-.68,16.48-8.1.85-1,.79-1.36L458,329.9l2-.34,1.38.93,1.46,1.49,2.89.22.95,1.84.14,2.85-.64,2.65L465,341.73l-1.34,1.45,2,0,.3.46.34,2,.15.56.93.47.74.09.58.38.55,1,7.51.73,1.77.93,2.79,2.59.65.47,3,2.69v.82l-4.43,4.37L479,363.72l-2,.9-4,.87L467.76,369l-1.84.53-2.05-.39-5-2.72-3.93-.15-2,.53L452,367.9l-.65,1.27-4.43,3.15-4.66,5.16-1.37.8-1.67.52-.92,1.55-1.24,5-1,2.1-1.25.89-5.8.18-1.66.7-2.91,2-3.32,1.49-3.25.49-3.23-.34-13.31-4.24-7.34-.08-3.19-1.09L388,385.26l-.07-.09L385,382.25,383.35,380l-1.13-.85-1.69,0,0,.92,4.85,3.61.69,1.12.66.48,2.74,5.12.39,1.11.71.29,1.6-.33.56.11.58.75.36,1,.51.93,1,.39,4.7-.9,1.85,0,14.17,4.34,3.91.08,1.45-.7.82.1.86,1.21,1.38,1.31,15.05,1.46.56.47,1.46,2.13.51.56,1,.2,5.21-.47,6.32-2.66,1.95-1.63,1.42-2.28,1.43-1.81,2.06-.25-.44-1.84-.19-.65-.38-.55,1.5-1.36,2.5-2.9,1.68-.72L479.83,389l1.59.74,2.33,3.33,1.48.93-.76,2.37-.45.83,1.18.46,2.11-.44,1.26.93.33-.64.86-.73.54-.63,1.23,1.29,3.35,2.41,3.16,1,5.24,4.52,3.57,1.94L520.21,410l.72.37.46,1.19.13,1.38.17,1.1.65.46,1.8.73,1.6,1.84,4.77,9.45h0l1.08,2.2,11,14.12,1.23,3.48.83,1.84,1.82,1.28.45,1,.39,1.1.44.45.77-.18.52-.74.39-.73.28-.37,1,.18,1.07.55,1,1.19.73,2.1h-1.69v1l1,.54,2.93-.83,1.82.27,5.73,4v1l-.46,1,.15,1.11.58,1.09.89,1-1.14.92v1l.73.45,1.62,1.55v1l-.7,1.29.42.64.84.55.6.64.38,1.74.37,9.9-.15,1.47-.43,2.39,0,.82v1.29l.51,3.21,2.12,3.83.25,2.57-.1.73-.16.65-.25.64-.31.55-.36,1.11.16,1,.34.91.19,1,.49,1.74,1.06,1.64,1.95,2.1-.67,1.93.45.91.82.82.54,1.47-.23,1.47-.54,1.28-.39,1.29.35,1.56,1.49,2.19.4,1.1.31,3.21.79,3.11.3.91.34.28,1.11.45.32.27.11.46.29,1.19,1.43,3.75.8,1.28.43,1.37.41,1.83.57,1.74,1,.63.3.46L586,549l.65,1.65.09.91-.15.65,0,.91.11,3.21.25,1.38.61.45-.23,1.38,5.23,18.38,1.86,4.66,3,3.91,1.34,1,4.53,2,0,1.11h-1.73v.65l.16.45.49.91.2,1.19.36,1.1.51.92.73.81-.7,1.29-.82.75-2,.94.23,1.09.43.55.59.27.82.08.24-.28.07-.46.13-.36.4.08.25.37.35.73.22.73-.13.27,1-.19.53-.83.69-4.14,1.51,2,1.48,1.17,1.66.62,3.62.41,4.22,2.79,17.75,5.22,19.57,12,2.51,2.33,1.06,2.09.1,1.28-.13,1.2.33,1.46.9,1.26,2.91,2,1.26,1.17,1.33,2.35,1.55,3.45,1.13,3.74.12,2.93.32,1,.51,1,.68.72.92.26-.34,1.56-.2.56.71.81,1.7,2.35.69.81,3.54.83.9.62,1,1,2,1,.68,1.55.71,3.92.21.55,2.37,2.42,10.74,3.94,3.18,2.85L692,679.16l-2.59,3.19-2,5.92,2,4.08,2.77,9.66,1.65,4.36,9.63,14.24,16.34,23,1.54,4.81-.92,4.9-.5.47-1.84,1.61,1.77-4.54.34-2.59-1.43-1-1.84-.5-3.9-2.73-1.92-.68-1.71.51L706.1,746l-1.84.51-2.16-.12-2-.5-1.8-1-1.56-1.24L688.05,733l-3.13-2.22-3.11-.38-.82-.16-11,4-1.63,0-5.33.11-3,.8-.63-.27-2.19-2.06-.28-.36-5.1-.45-1.83.58-5.91,4.15.79.35.8.35.74.63.7.63,1.26-2.32,2.4-1.23,2.66-.24,2,.51,3.62,2.59,1,1,1.32.8,1.38-.49,2.41-2.07L680.89,734l2.47,1,1.74,2.9,6.56,9.74,4,1.92,2.81,3.13,1.56,1.16,3.07.37,1.29.43,4.24,5.11,8.67,6.72,1.7.68,1.67.32,1.61.69,1.45,1.61.3,1.09.24,1.55.29,1.28.51.62.83.25,2.6,1.76-.62,1,1.56,1.05,1.44,2.06,1.06,2.26.45,2,7.86,19.75,1.45,5.55.24,6.33-1.6,7.76-.48,1.11-1,.4-1.75.43-1.43,1-7.71,8.41-1.63.69-1.19,1-6.72,10.56-1.82,2.07-2.08,1-1.36,1L712,854l.19,1.74,2.72.19,4.6-1.23,1.21.42,2.53,1.95,1.26.51,2.15,1.4,4.83,7,2.28,2.59,1.54-1.24,1.88-.33,3.6.25,1.47.78,2.65,3.49,1.32.69,0-1-.55-2.36,1.72-2.82,2.24-2.64,1.13-2.06.35-3.59,1-4.07,1.27-3.62,1.1-2.61,3-3.32,4.33-2.17,4.75-1.18,4.32,0-.68-1.07,1.78-.71,2,.38,2,.84,1.9.3,7.63-.3,3.58.87,4.12,1.76,4.31.92,4-2.09-1-.6-1.06-.33-1.12-.13-1.16.14,0-1L825,845.21,836,850.3l23,16.05,2.76,2.79,2.36,3.56,2,6.88,1.84,4.22,1.45,4.34-.45,3.14.68,2.26.32,2.93.16,5.32,2.48,6.76-.26,1.39-1.1,1.44-1.84,7.81.13,1.37-.15,1.48L866,932.78l-2.59,5.46-1,1.06-.87,1.79,0,3.77.56,6.67-.36,2.87-1.39,5.12-.2,2.77-1.1,4-.06,2.12-.42.75-7,3.38-1.43,1.9-1.41-1-.45,1.21-.14,1.94-.68,1-.6.58-2,3.49L838.81,989l-.94,1.7-1.06.41-6.53-7.69-2.76-.8-4.68-3.46-2.51-.35,0,1,3.41,2.88,1.93,1.38,4.23.73,1,.51.42.62.06,2.39-.26.65-1.89-.37-1.07.14-1.89.72-1.13.24-1.14-.23-2.63-1.63-2,.27L815,989.81l-2.3.47,2.48,1,15.22.34,1.76-1.18L832,993.2l-6.93,7.74,1.24.87,1.44.58,3.37.3.92-1,.62-1.59.39-.11.25,3.11-1,2.34-5,5.09-4.57,3.41-2.9,1.41-6.39,1.19-1.72-.2-.88-.7-1.6-3-3.18-3.91-.88-2-.11,2.85-1.35,1.61-3.29,1.79-2.73,2.77-.67.39,0,.83-.15,1.75-.39,1.76-.42.84-1.07.32-1.43,1.34-.9.49-1.13,0-2.08-.75-.87-.24-2.26.36-4.21,1.81-2,1.27,1.45.67,1.66.13,1.57.76,1.17,2.26,2.46-2.67,5.88-1.51,2.74-1.3,2.53-2.21,1.64-.43,1.48,1.4.22,1.28-.23,1.48-.29,1.11-.22.19.22,1.19.39,1.18.81,1.7-.88.87-.29,1.29.14,3.39-.32.84-.71.77-1.32,1.06,2.45-.19.93.42.36.63-2.34,4.4-4.57,4.41-4,2.82-1.11.68-4.07,1.53-7.36-.91-2.54.27,0-.09-1.24,0-.34.1-.25.1-.11.19-1.73,1.81-1.34.41-1.22.14-1.2.31-1.18,1.33-1.54-1.42-.51.12-2,.16-6.32,1.86-.45,1.12-.21,1.47-.55,1.68-1.15,1.5-1.32.87-1.36.5-1.32.87,5.87-1.2.75-.49.4-1.11.28-1,.41-.47,6-1.86,14.81,1.59,1.41,1,1.22,2.07.17,1.37-.89.86-1.87.34-3.38-.61-1.43,0-2.82,3-3.35.94-1.66,1.16.75.8.67,1,.71.89.91.33,7.91-.28,3.88.87-.81-1.72-.54-2,.41-1.48,2,0,.3,1.83,1.08,2.71,1.41,2.33,1.07,1.06,19.76,1.43,11.27-4,29.75-4.16,2.3,1.27-.57,4.89-.3.93-.42.94-.48.66-.55.58-3.33.15-.44.48.37,3.2.81,2.44,1.73,3.87,1.08,5.83-.55,5.63-1.62,4.84-2.4,3.14-6.13,2.39-2.45,2.13-1.09.14-2-.09-1.07.5-.88,1-.71,1-.72.77-1.81.9-6.06.35-1.82.63-1.85,1.36-3.51,3.45L810,1132.3l-.85,1.78.38,3.84,1.21,5.64-3.19,1.5-7.1-2.1-6.39-1.87-3.66,1.42-8.85,9.32-3.71,1.79-20.13,5.08-3.43,1.68-.47-.08-1,1.41-.88,1.58-.18.65-3.13,2.21-3.34,5.06-3.49.1-1.83-.22-4.35-1.43-1-.15-3.31.09-.86-.43-1.7-1.6-1.76-.5-4-.17-1.59-.59-18-6-3.11-.2-.26.1-2.23,1.34-3.46-1.39-11.86,4.67-16.06.33-15.24,5.41-.85-.26-.77-.71-.79-.45-.9.38-.47,1.29.69,2.74-.44,1.57-1.76,1-2.16-.7-8.63-5.37-.71-.82.5-1.56,1.26-.94,2.68-1.14v-.91l-1-.72-1.86-1.81-1.08-.53-.43.46-1.15.66-.67-.17.9-1.94-1-.63-.88-.44-3-.51-2.26,0h-.64l-1.76.57-1.16,2.58-.82,3.59-1.24,2.77-2.47.39-1.91-2.17.84-2.58,1.68-2.59.55-1.93-1.72-.89h-.06l-5.77.52-1.38.48,3.28,2.62.59,1,.27,2.84-.33,1.56-1.21,1.2-1.25-.07-1.69-.63-1.55-1-.65-.91-.65-1.37-3-1.62-2.23-1.9-3.11-1-1.23-.63-1.64-2-1.91-2.28-10.37-5.78-1.63-.9v.92l1,.54,1.72,1.09,1.16.17,2.31,2.73,7.38,8.1.83,2-.27,1.84-2.08.75-6,.51-1.39.56.7.46.62.63v.92l-4.26.76-2.41.94-1.07.83-.41.1-3.08-.53-3,5.61-.2.55-.17.09-1.84-.54-2-1.36-6.44-1.16h-2.09l-2.09.55-3.6,1.94-1.69.47-2.41-.45-3.53-.64-2.12.1-1.86.55-1.77,1h-.06l-1.6,1.29-1.42,1.74-1,.73-.41-1-.18-1.56-.29-.74-3.6-1-2.45.18-.76-.18L530,1178l-.08-.18-.73-1.84-.46-.36-.88.73-3.23,5.31,1.22-.18,1.11-.37,1-.73,1-.82,2,3.57,1.11,1.1,1.72.46h1.57l1.37.27.64,1.1-.67,2.57,1.4.92.52.18-3.26,4,.21,2.2-1.75.83-7.67.18-1.58-.37-7.08-3.4-17.43-2-3.19-2-2,.27-3.54,1.17-1.11,1.37-1.19,3.2-.54,3.11.84,1.47,2.38.75.23,1.92-1,2.29-1.35,2.1h-.56l-.05-5.6-2.17-3.67-19.55-15.28L451.28,1176l-2.1-.12-5.48,1.22-1.63.34-3.35,2.16-2.21.24L433,1178.8l-1.11.26-2.15,1.81-.5.26-1.56,1.36-.91.35-1-.11-1.79-.85-1.08-.2-1.77.24-3.17,1.42-3.86.85-1.1,1.45-.88,2-1.47,2-6.87,2.91-2.13-.13-1.56-.59-1.23-1.21-1.13-2.22-1.15-3.6-.37-.56-.29-.19-.16-.27-.32-.38-.55-.1-.3.27-.13.73.11.64,1.14,1.4,1.15,5.16.78,1.94L395.9,1195l-1.56,2.08-1.39,2.45-1.32,3-1.1,4,0,2.93,1.52,6.18-2.11.14-2.12.5-1.66,1.16-.69,2.1.62,2.48,1.63.77,4.19-.1,0,1-1,2.55-.1.55-.85.16-.72.36-.51.81-.72,3.65-1.16.8-1.45-.58-1.5-1.31-.75,3.28-2.05,1.24-2.12.51-1,1.35-.55,2.56-1,3-.64,3.47.66,3.77-1.43.7-3.85,1-1.62,0-2.13-.51-1.69-.95-1.49-.22-1.42,1.52-3.48-3.29-5.29-6.92-6.08-5.84-1-.58-.89.25-2.44,1.32-1,.24-.54.36-1.33,1.43-.77.25-1.05-.21-.95-.58-1.46-1.41.22-.46.42-1.45-2.07-.61-2.06-1.62-.94-2.22,1.4-2.81-3.49.18-1-.31-1.21-.86-.53-.93-.38-1.2-.71-1.58-.63-2.41.76-2.08,1.35-2,1.08-2.08-1.92.86-.94-.12-1-.85-.32,1.18-.1.36-.77,1.08-1,.52-1.17-.12,0,.91,1.35,1,.34,1.57-.37,1.55-.88,1.07-1.25.42-4.55-.59,1.54,2.33,5.38-.66,2.07,1.62-3.31.82,0,1,.79-.16,1.85.24-.74,1.08,2.64.08,0,.91-1.07.43-.64.71-.14,1,.47,1,0,.92-2-.15-1-1.87-.82-2.13-1.61-1.06-8-2.36-4.35.33-7,4.17-3.74,1.25-15.61.38,0,.28-.31.44-.51.26-.52,0-1.15-4.08-.67-.11-.57.34-.52.53-.56.17-1.92.11-2,.57-1.14,1.24.7,1.86,0,1.1-.7.53-.92,1-.8,1-.36,1,.09.92.49,1,0,.55-1.26,2.8-.17.82-1,1-4.65-.91-1.85.67-1.84,2-1.69.94-4.08,1.22-1.31,1.23-4.25,6.71L246.2,1256l-.34-5.33-1.16-1.06-1.91.38-.11,1.37.11,1.66-1.28,1.6,0,.92.54.38,1.37,1.8-.79-.12-.66.25-1.18.78-.94.6-.16,1.1v1.19l-.43,1.08-.88.61-3.09,1.25,1.06,0,.81.31,1.33.88.47,0,1.1-.14.43.2.18.65.27,1.94.37.47.36,1.21-1.35,2.7-2.88,4-.9.15-1.9-.45-1.16.13-.67.53-3,3.18-1.27,3.43-.33.81-.84-.4-.94-.78L223.7,1280l-.44-.75-.37-1-.24-1.85.11-1.19,0-1.1-.62-1.5-2.52-4.51-1.45-1.9-1.8-1.46-5.59-3-3.83-.91-3.09-2.06-1.56-.72h-2l-2.51.8-1.9,1.38-.06,2,.46,2.59-1.16,2-1.74,1.3-1.48.66-3.95,1-4.57.33-3.53-1.55-.78-4.54.92-.13.69-.25.44-.53.05-.91-.2-.75-.31-.38h-.14l-.39-2.86-.07-1.57.38-.62.21-.54,1.94-2.94.76-.51,2.85-.87,6.23-3.28,3.29-.94,3.76-2.21,2.05.09,2.82,2.89,1.86,1.1,2-1.1,1.46-2.23.74-1.35.36-1.36.52-.52,3.38.15,3.62-1.86,11.32-10.88,3.57-2.33,1.34-.4.35-.72.13-1.74,0-1.84-.52-3,1.12-.69,1.43,0,.71,0,6.7-3.21.24-.9,1-1.89,1.08-5.74.24-3,.39-2.46,1-2.07,1.92-1.39,1.93.08.72-.43,1.28-1.42.71-.16.52.85.34,1.76.16,2,0,1.66.66-.35.24-.26.37-.44,1.68,1.16,3.88.34,1.49.79-.95-2.06-1.6-1-3.08-1.31-1.38-2,.2-1.37.54-1.17-.46-1.58,0-.92,2.32.55,7.05-.18,2.72-.82,1.56-2,1.21-2.71,1.58-2.32-.5-2.22L274,1181l.95-.61,1.3.42,6.84-5.54,1.18-1.79L285,1171l1.85-2,4-2.8,2.73-5v-13.12l1.25-6.1.71-1.17,1.43-3.71-.31-1.12-.3-2.12v-2.11l.47-.9,8.32.28,1,.4,1.89,1.53.92.31,5.38.81,1.93-.58,1.42-1,6.52-6.86.54-.81.46-.91.57-.71,1-.62-.54-1.39-1-4.07-.17-1.1-.29-.93-1.52-2.43-.59-1.3,3.1.37.7-.26.65-1.54-.09-1.56-.65-1.3-1-.76,0-.92,7.17-2.63,17-1.08,3.49-1.29,1.76-.23,6.7.18,2.05-.32,3-1.58,1.67,0,11.92,3.4,7.46,0,11.57,2.89,2.71,2.71,1.8.86,10.61-.27,6.71-2,3.38-.41,6.1.46,3.66-.49,2.65-1.8.67,1-1.29,2.09,1.25,1,1.63-3,.33-1.09.2-1.92-.19-.93-.31-.82-.27-1.38.14-5.5-.25-2.85-1-1.75,1.8.57,1-.44h0l.36-1.37.09-2.3.73-1.27,1.31-1.35.62-1.37-1.38-1.49,2-2.08,2.95.59,3.45-3.26,6.37-8.27,1.64-1.36,1.64-.89,1.81-.53,2.21-.17,1.95-.8,1.88-1.91,8.27-14,.77-.64.94-.35.84-.64.32-1.37.24-1.19.53-1.37.6-1.19.55-.91,5.31-5.46,3.16-4.29,1.6-.91,3.94-1.35,1.48-1.37.75-1.64-.24-1.75-1.33-1.29-.42,2.75-1.65,1.55-2.14.63-1.82.17-1.72.63-1.29,1.64-1.12,2-1.29,1.74-5.5,3.62-.89.91-.84,1.46-6.05,7.1h0l-2.65,3.09-1.79,1.36-4.38,1-3.48,2.44-1.7,1.08-3.93,1.42-7.81.46-1.19-.57-.7-1-.47-1-.48-.47-.87.63-2.47,3-.5.91-5.4,3.4-.25.09-1.15.35-1.56,1.17-2.45,2.44-.32.54-.57,1.73-.41.73-.67.36-1.32.16-.55.36,0,.09,1.13,3.13-.71,3.11-1.67,1.9-1.77-.58-1.37-.21-6.55,2.64-23.07-2.55-1.67-1-1.59-2.33-2.64-3.73-5.31-4.7-1.25-.12-1.71.79-2.07-1.06-1.79-1.88-.9-1.48-.13-.74.18-.18.28-.09.26-.08-.61-2.95-.24-.74-.58-2-1-2.5-1.07-2.05-.72-.75-1.6-1.14-.8-1.12-1.39-2.78-.8-.94-1.22-.4-2.95.29-7,.74-1.3.51-1.25.7-.85.9-.13,1.46.65,1.39.93,1.5.63,1.3-3.83-.11v.37l-.45.63-.52.26-.24-.74-.24-.65-.58-.48-.74-.29-.59-.2-.3.36-.9,1.35-.43.26-.62-.2-.93-.76-2.27-.62-.88,0-1,.43-1,.79-1.36,1.53-.91.61-.9-.3-1-.77-.82-.11-.42,1.64-1.17-.13-5.39-2.46-1.59-.23-.31-.47-.15-.47-.17-1.1,1.81-1.23-.2-1.56-.74-2,0-2.3,3.17-.91.36-.44,1-1.81.62-.8.54,1.11h-.57l0,.91.61.57.61.57,2.88-.83,4.72-.13,4.42-1,2-3.33.05-.92,0-.83v-.27l-.44-.29-1.13,1.35-.78.52-1,.07-3.64-.48-4.9-3-1.34.88-7.27.87-2-.79-2.41-2.09-2.14-2.64-1.08-2.79,3.77.67,1.66-.13.92-1.35-1.68,0-1.67-.42-1.38-1.15-.8-1.76.29-.27.58-1,.47-1.36,0-1.38-.59-1-.61.44-.76,1.53-.53.53-.78,1.17-.58.26-.93-.22-.77-.76-.73-1.12-1.81.21-.35,1.09.7,1.4,1.32,1.42-3.22,1.64-3.5,0-6.88-1.16-2.69.18-3.3.8-.58.17-3.09,2-.34,3.66-.83.16-.24.26,0,.55-.24,1.09-1.83,4.16-.85-.31-1.18-1.15-.65.44-1.65,1.59-8.21-.5-1.41.31-1.46.86-.85,1.16L266,1040l-.87,1.07-1.77.66-.82,1.35-.85.33-.45-.11-.94-.86-5.91-2.17-2.15-1.74.92-1.53-1.23-2.89-4.48-1.39-1.68-2.09.62-1,7,1.31-.18-.47-.18-1.11-.18-.56,1.37.06,2.35.92,1.31.24,1.26-.22,3.15-1.71,4.48-.74,2.3-1.38.95-.23,1.18.68,0-.91-2.52-2.67-.37-3.59,1.63-3,3.56-.78,0-1.1-1.11.69-2.71,1-5.17.34-1.16.6,1.51.06,1.08.68.37,1.31-.62,2.17,1.26,1.24-.41,1.64-1.42,1.41-7.19,1.46-2-.08-12.71-2.29-1.65.58.81,2.51-1.14,1.14-1.31-.05.27-1.64,0-.92-4.37-3.68-1.77-.63,2,.09,1.32-.22,1-.69,1.15-1.51,1.36-1.23,3.1-.41,1.62-.67,1.49-1.4.37-1.36-.32-3.78,0-2.3-.27-2.21-.69-1.87-1.2-1.24-.67,1-1.58-1.45-3.58-.7-1.6-1.18-1.35.95-5.12.78-1.78-.08.64-.52.64-.34.05-1.1-.28-.65-.15-.47.25-.45.9-.51.05-.91-.63-2,.89-.79,3.33-.12,1.73-.57,2.87-2.72,1.22-.58,2.82-.34,3.77-1.22,3-2.44.45-3.75,1.3.06,0-.92-1.06-1.05.18-.91,1.05-.78,1.51-.21,2.45.28,1.06.32,4.73,2.86,1.75.07,2.68-1-.55-2,1.72.35,3.45,1.51,2,.45.88-.61L274,980l-.33-1.67.05-1.28.73-.62,3.07-.33,1.8-1.22,1.39-1.6,2.37-3.58,1.74-1.77,1.24.05,2.93,2.49,0-4.41,3.53-1.61,11.24.86,1.06-.33.62-.81.48-1,.62-.81,2.74-.82,1.84-1.13,1.8-1.59,2.84-3.12,1.33-.87,1.5-.32,1.86,0,1.71-.5,11-9,5.5-7.36,2.82-5.06,1.31-3.35,1-6.21.86-3.37,1.09-3,1.1-2.08-.44-1.39-.15-1.74.16-1.74.6-1.27.73-.16,1.93,1.15.94.21,1.58-.5,4.74-3.36,0-1.1-2.43-.07-4.69,1.53-2.47.38L346,905.32l-3.94-5.8-1-2.32.42-3.66,1.58-3.62,2-2.79,1.62-1,.32-.45.47-2,.24-.54.34-.26,1-.34,3.75-2.74L354,878.3l-2.37.21L350,879.66l-1.51.32-6.6-8.54-1.62-3.71-.4-1.39.31-1.19,1.57-.41,1.06-1.07-.15-2.3-.66-2.31-.36-.93.09-2.11.2-1,.6-.63,5.43-3.6-.65-.38-.28-.19-.25-.66-1.06,1.17-1.05.7-.88-.3-.67-1.67-2.35,1.77-2.45.1-5.07-1-6.52,1.72-1.5,1-1.83,1-6.18-.21-1.89.86-1.74,1.41-3.29,3.65.32.37.2.65-1.48.78-.89,1.62-.12,1.92,1.06,1.69-1.21,1.15-.66.53-.65.25-1.1-.22-1.18-1.51-1.91-.8L301,864.69l-1-.31-1.07.14-.66.62-.52.62-.66.53-2,.39-5-.65-1.36.78-1.31,1.41-1.27.51-1.36-.88,1-1.34.14-.64-.33-.93.59-.71,1.36-2.33,13-14,1.39-.78,1.66,0,1.68-.49,1.78-.86,7.39-5.34,1.87-3,6-3.65.78-1.9.48-2.65.36-6.14.34-1.73.6-.53.59.3.22,1,.32,1,.79-1.17.72-1.72.13-.64,3.69-4.19,1-.7,1.62-.59,1.21-1.62,2-3.79,2.09-2.42,2.39-1.48,2.63-.66L347,804l.74.3.67.38.68.3,1.15-.79,2-.87,2.07-.49,3.13-2.48,9.8-3.77,3,.07-.81-2.77-2.54-2.72-.64-1.77,1.64.23,1.69.5,1.54,1,1.12,1.41,1.75-.87,1.91.68,1.77,1.7,1.4,2.23,1.35.86,10.12,0,3.56-.74,17-8,3.7,0,3.32,1.71,1.84,1.5.8,1.48,1,1.21,11.25,7.62,1.3,1.58,1.07,1.85.62.74.31-.64,0-2.93h0l0-2.48-1-1.75L434,795.92l-2.07-4.61L428.78,787l-1.17-2.23-.07-2.29,1-1.45,1.63-.89,3.79-.49,1.79-.71,3.22-2.52,2,.22,2,2.5L448,793l1.56,2.13,2.15,2,2.56,1.23,2.73-.06.08-.28.12-.64.31-.73.66-.36.8.1,1.34.66.65.19,1.44-.08,1.26-.35,2.46-1.44-.47-1.93L466,792l.7-1,.77-.81.74.37.77-.08.77-.54.8-.82-1.28-.1-4.46,1.05-1,.54-.66,2.19-1.55.81-.93-.19-2.93-.31L454,791.62l-3.4-2.43-2.78-3.06-2.07-3.33-9.88-22.62-.43-2,.25-2,1.07-2.37,5.92-9.54,4.77-6,.71-.54.79-1.55,3.57-2.43,1.1-1.55-7.52-.19-3.19-1.42L440.5,727l-.55-5,1.17-11.08-1-4.14,1.42-2.55,2.05-1.26,8-2.91,1.44-.16,1.12.93.68.28.28-.73.3-.82.69-.82.79-.54.63-.27-1-1.66,3.07-3.08.4-2.38-1.52,1.08-1.52.63-2.68.24-.4-.38-1.34-3.22-.17-1.2.61-.81.92-.73.77-.72,1.73-3.19,1.24-1.36,2.79-1.16,1-1.45,1.72-3.84-1.43-2.21-2-4.16-1.24-2.49-.28-1.37,1.87-.72,2-1.9,1.35-2.55-.05-2.84h-.59l-.35,2.2-1.25,1.72-2.61,2.08-3.11,1.61-1.6,1.27-.72,1.55-.7,2.19-1.66,1-3.9.31-1.15-1-1.15-2.13-.51-2.39.83-1.46-.59-1.75-.79-1.48-1-.65-1.16.53.35,2.11-.3,2-.52,1.92-.29,1.64-.39,1.19-2.64,3.35-1.53,3-.91,1.45L432.87,678l-.22,1.73.24,1.93-.11,1.74-3-4.36-.8-.74-1.37-.12-1.2-.38-1-.67-.84-1,.28-2.29.53-2.55,0-2.11-1.3-1.13,0-1,2.89-.86.83-4.3-.13-5.05.21-3-1.38.8-.75,1.55-.9,3.65.73,3-1.33.62-2-.13-1.37.25-1.82.7-1.84-2-3-5.56-2.51-3.35-1.11-1.95-.41-2.4.24-1.18.4-1.19.18-1.28-.6-2.12-.13-1.47-.23-.37-2.05-1-2.81-6.21-2-1.87-7.85-11.55-1.39-.86-.42-.47-.86-2.22-.88-.94.67-1.18.93-1,.41-.36,1.92-5.1,2.55-11.5,3.05-6.63,1.27-3.64.61-1.27.73-.63,1.9-.69.95-.62,1.11-1.45,1.41-2.36.77-2.82-.72-2.5,3-8.65,1.74-4,2.06-2.35,1.67-.43,1,.85.9,1.12,1.37.57.92-.16,3.53-1.77-1.07-.94-4.21-2.28,2.23-2.34,1.32-1,5.35-1.46,1.08.29.63.56.46.65.65.47,3.18,1.15,1.69.21,7.13-2.09,1.52-1-5.86-.09,0-1.1,1.64-.25,1.3-.81,1.3-.53,1.63.67,0-1.1-2.07-1-.35.09h0l-7.26,1.81-27.05-2.52-1.44-.4-1.3-.76-1.26-.48-1.22.43.25.37h.08l.05.19.12.55-1.44.7-1.33-.58-2.4-2.25-1.2,4,.65,1.66.35,3,.09,3.12-.21,2.47-1,2.37-1.44.79-7.94-1-2.2.32L384,564.57l-6-1.07.17.74h.08l.3.38-.8.53-.63-.2-.52-.57-.42-.93,1-1.81.42.2.4.75-.1-1.2-.12-.46-.31-.38-1.07,1.63-1.35,1.25.35,1.47.17.65-.56.08-1.19,1,2.81,3-.84.62-4.5,1.9-6.84,5-4.1.43-2.65-.26,0-1.1-.34-.19-.29-.1-.26-.2-.2-.37.25-.45.25-.54.06-.09-.14-1.57.4-1.91-.14-1.48-1.15-.58V568l-1.28,1.06-1,2.08-.36,2.47.75,2.41-3.36.45-4.28-3-2.84-5.13.9-5.85-1.29.69-2.15,2.59-1.4.69-1.26-.22-6.25-3.24-1-.85-.71-1-.74-2.23-.35-1.57-.54-1-1.36-.41-.55.53L326.4,558l-.65,1.81-.29,1.64.67,3.42.59,2.23.52,1,1.37.13,1.21.32,1.06.86,1,1.41.21,1.84-.8,1.72-.49,1.73,1.15,2.24-1.16,2.07.19,3.13.33,2.86-.6,1.17-.49.26-.45.72-.57.62-.92.34-2-.34-1.77-.89-2.12-1.73-.79-.39-3.05,0-.75-.67-4.69-7.79-2.7-2.94-9.83-6.62-3.82-1.25L295,565.64l-1.42-4.18-1.8-.9-3.25,0-2.08.83-2,1.39-1.79,1.76-1.38,1.87-.8,1.25-.37.81-.12.83,0,1.1.1,1.19.36,1.76.59,1.59.82.68.55,1.58.81,3.52,1.21,3.54,2.38,2.31,0,1.28-.56,2.64-.08,1.38,0,.73,1,2.43-1.81-.53-3.59-2.17-1.76-.54-.78-1-.43-2.41.18-2.37,1.06-1.34-.59-.94-.31-1,0-1,.42-1.09-1.59-.25-.68-.3-.56-.58-.31-1.39-.28-2-.48-2-.78-.86-1.69-.9-7.7-10.17-2.25-4.6-1.32-5.29-.19-5.89.51-5.4.7-2.63,1.24-1.14,1.82.17.92,0,.44-.44.48-1.73.8.86.75,1.69.28.75,1.17,2.16.57,1.49.36,1.49,0,1.65-.26,3.57.31,1.39,1.06,1.61,1.34,1.44,1.52.34,1.55-1.59.31-.53.37-.45,0-1-2.79-6.36-.42-1.4-.18-1.2-.05-.18-1-3-.19-1.75.19-3.3.21-1,.42-1.27,1.66-3.51.66-2,.37-3,.83-2.72,1.72-1.58,3.56-2.14,5.8-7.2.43-.35.87-.24.18-.45.07-1.56.08-.73,2.14-5,.37-1.27.14-1.47-.08-3.21.18-1.37.51-.9,3-3.37,1.57-1.22.72-.89.55-1.36.84-3.46.87-1.61,2.81-2.37,5.68-2.45,2.15-2.85.88-4-.62-3.61L310.07,462l-3-1.13,1.85-2.68v-.09l-.27-3.13-1.7-3.19-2.36-2.2-4.48-2.2-2.7-.2-.75-.59.68-1.35,0-1.1-4.72-3.31-2.61-2.59-1.53-2.54,3.86-3.79,1.4-3.07-.15-5.06-.45-1.76-.46-1.3-.35-1.58-.23-6.35v-.09l-.16-4.14.68-3.92,1.29-2.52,2-1.57,2.64-1,1.56-.31,1.12.23,5.18,2.69,1.38.33,1-.42,1.73,1.17L324.25,406l2.09-1.3-9-2.26-3.24-.85-3.52-2.43-4-5.58-3.28-1.42-1.48-1.62-1.21-2-.87-2-.92-4.44v-.74l-1.21-.42-.49,1.18v1.47l.44,1.85,3.68,6.12.82,2.7-.59,1.17-1.52.21-2-.08-1.92-.9-.81-2.15-.15-2.67.11-5.69.18-1.19,3.58-8.39,6.24-9.21.44-2.09-.35-.66-.9.7-1.19,1.51L298,374.56l-1.27,1.69-1.77,0-.57-1.22.32-4.48-.25-2-.81-1.6-1.08-.41-1.18,1.33.83,2.69.94,5.19.52,5.16-.32,2.29-1.1.41-.25,1.09.23,2.95-.12,2.94.1,2,.37,1.67-1.16.5-1.24-.42-1.28-.88-1.42-.43,0,1,1,.5,1,.87.83,1.14.31,1.76-.39,2.1-.86,1.43-1,1.15-.77,1.25-.49,1.73-.29,1.46-.4,1.36-.88,1.43-1.24,1.23-1,.14-2.6-.66-1.27-1.71-1-3.81-.63-4.26-.21-3-3.11-4.63-.36-1.86-.58-1.31-1.36,1,1.2,2.44,2.8,8.21.48,3.15-.76,1.43-1.57-.62-5.25-4.83-.69-1.87.14-3.12-.87,1.07-.83,1.89-.62,2.08-.25,1.46-.43,1.08L263,407.28l1.79,4.31.75,2.24.45,2.69-1.53-.07-3.54-2.28L258.14,413l-.8-1.23-.36-3.7-.46-.57-.63-.4-.61-.76-.24-1V404l.21-2.75.24-1.18.9-1.52.24-1.28-.09-1.29-.82-4.36,2.14-2.28L267.63,374l4.9-1.8,3.58-2.59.83-.79,3.22-6.66,1.41-1.86,2.56-1.64,3.22-1.24,2.95-2,1.78-3.88-1.47,1-3.21,3.36-1.41.67-3.38,0-1.41.59-1.28,1.13-1,1.8-2.23,5-.81,1.07-10.16,6.24-7.34,10.22-.77.42-1.49,0-.67.43v.73l-.51,2.09-.58,1.81-.24-.2-.85,1.62-1.83.46-2-.29-1.52-.53,0-.74.06-1.28-.16-.93-.61.34-.34.72-.08,1v.92l-1,7.95.27.29,1.19.79.49.12.68,3,.24,1.76v1.38l.25,1.12,1,1,0,.92-.56,0-.05,1,.32.2.82.77-.43.26-.41.53-.4.26,4.34,5.26,1.92,3.59.57,3.79-.67,2.08-1.2.86-2.87.78-1.31.86-4,4.12-1,1.33-.86,1.61-.68,1.8-.28,1.28-.36,2.55-.24,1.18L240.5,443l.12.56.3.75.14.37-.3,3.39.73.95,1,.33.58,1.5-.62,2-1.35.48-1,.78.37,2.87-1.94,3.39-.59,1.44-.12.73-.06,2.84-.17,1.19-.29.08-.35-.2-.41.34-2.1,4.86L233,473.63l-2,1.09,0,.91,1.07-.12.82.41.71.86.73,1.14,1.21,3.37,0,.64,1,1-1,2.25-3,3.8-1.43,1.4-1.74,1.19-1.94.92-2,.26-.8-.23-1.61-.91-1-.15-.91.33-2,1.36-1,.22-2.45-.22-1.47-.63-.78-1.88-.65-6.38v-3.31l.62-2.91,2.46-1.79,3.38-3.68.92-1.42.19-3.12-.24-3.41,0-3.31,1.4-4.25-.3-1.11-.5-1-.2-1,.4-1.64,2.21-4.29,2-5.13.49-2.92-.85-2.16,4.74-3.61.68-1.62.62-2,1.38-2.5,1.56-2.12,1.13-.86,2.46-.89,3-2.6,2.8-3.72,1.78-4.42-8.54,8.76-3.1,2.32-1,.41-1.11-.06.67-1.89-2.23-.94-1.1-.8-1.06-1.52-.51-2.05.11-3.95-.35-1.22,3.78-5.13.58-1.16.62-1.9,1.34-1.49,1.57-1.39,1.34-1.59-1.9.92-3,3.15-2.26,1.08-1.55,1.48-.77,0-.54-1-.43-1.68L225.4,402l9.83-13.73.79-1.8-.3-.66.51-.52.5-.71-1-.51-1.08.49-1.15.95-1.36.76-.63,2.72-3.81,3.94-.1,3.3L226,398.82l-.34.44-.8-.42-.21-.83.18-1,.38-.9.68-3.92,3.35-5.89,6.68-8.75.29-.53.16-.64.26-.63.53-.25.53.12.65.4.47.4v.18l.22.29.67.49.63.12.17-.81-.33-1-.51-.58-.49-.39-.25-.2-.39-2.41-.09-1.29.38-.9,2.88-4.08.63-1.26.59-2-2.52.61-2,2.19-1.8,2.49-2,1.45.7-3.08,1.23-3,1.55-2.76,1.65-2.22-.61-2.05,1.08-1.51,1.84-.91,1.63-.29.94-.5.21-1.09-.46-1-1.09-.61-3.48.93-.74.51-.84.88-.83.69-.81-.13-.41-1.4.29-1.64,1.05-3,1.28-5.54.92-1.88,1.64-1.67,1.48,1,2.22-.07,4.21-1.54,0-.91-2,.08-3.6,1-1.81-.55,1.93-4.77.67-1.16.92-.51,1.07-.49.69-.61-.29-1.3,2.23-2.83,2.81-1.15,8.28-.33,6.52,2.15,2.77-.51,2.27-1.82,5.53-6.83,3-6,1.83-2.3-1.84.93-1.17,2.15-1,2.52-1.34,2.24-3.49,2.87-2,3.12-1,.88-3.5.29-8.61-2.43-2.38,1.9-1.3-1-1-5.75-1.14.49-1,1.24-1.71,3.13-1.07-1,3.22-6.92.59-2.08,1.85,2,2,.92H258l1.52-.57,4.05-2.83,2.13-.91,1-.69.92-1.24-2.81,1.61-.92.14-1.64-.17-.34.08-1.42,1-.9.32-1.85,1.38-1,.23-1-.51-1.25-1.53-1.08-.24.31-1.08.3-.45.4-.34.53-.53.37-.72.31-1.27.26-.54,2.32-3.93.76-1,3.48-2.86.58-1,.53-.89-1.52-1.18.06-1.1.73-.42,1.89-1.47,2.05.37,1.1-.13,2.47-2,1.82.09,3.48,1.26,1.68-.38,3.31-2,6.62-1.18,1.43-1-13.55,2.33L269,285.54l0-.91.9-2,.56-.71,5.75-5.8,1.6-2.41,1.49-2.78-5,4.09-.74,1.16-.37.9-.89.79-1,.5-.87.24-.7.42-.36,1.09-.21,1.27-.31,1.18-1.16,2.15L266.52,286l-1.23.4-1.44.11-.72.24-.83,1.34-1.74.56-.72.79-1,1.79L256.37,294l-1.33.76-1.66.29-.86.6-1.3,2.6-.81.6-1,.22-1,.69-.94,1-3.51,4.79-5.76,6.13-5.76,4.29-.57.16-.71-.59-.83-2-.86-.5-1.33-.35-1.51-.73L225.24,311l-.93-1.24,1.35-2.32.42-1.17.23-1.46-.61,0-3.27,4.05-4.9-1.29L206,296.73l-.46-1.22.26-2.28.9-1.15,1.21-.29,4.08,0,2.77.71,2.55,1.52,2.12,2.33.69-1.07-1.88-1.67-.75-1.05.08-1.46,8.93-5.39,2-.08,5,2.94,2,.57,4.36-.14,2.4-.52,1.77-1-7.59.61-1.78-.37-3.94-2.88-3.3-1.1-9.15,4.46-3.11.74-.85,0-1-.52-1.74-1.39-1-.34-5.68.13-5.87-2.09-2.09.15-1.68,1.46-1.55.92-2-.58-1.8-1.22-1-1.07-.38-.85-.3-.85-.17-.84,0-1,.24-1.46.4,0,.54.31.63-.33,2-2.73,1.11-.85,12.54-.53,1-.5,3-1.94,1.21-.39,1.37.36.77,1,.7,1.05,1.16,1,4.17,2.17.67.59,0-1.66-.32-1.58-.76-1.15-1.45-.26.06-1.1,1-.13,1,.15.93.51.84.78,1.27-1.49,1.87-.45,2,.67,1.61.55-5.92-3.37-1.45-2,.06-1.56,1.17-1.13,8.46-.72,3.42-1.29,2.76-2.52-1-.6-1.51.1-1.38.66-1.41,2.41-1.63-.19-3.14-1,.76-1.43,3.43-3.39-3.62-.94-7.72,1.32L215,256.42l2.75-.57,2.87,0,.06-1.1-.58-.5-1.56-1.74,1.53-1.66,1.07-3,.92-3.44,1.05-2.88,1.5-1.76,2.36-1.43,2.53-.78,2.08.48.69,1,1.47,3,.86,1.25,1.1,1,1.22.71,2.63.51,4.46-.78,4-1.81.05-1-1.4.39-1.34.66-1.19.4-1.07-.7-1.87,1.19-1.73-.55L237.78,242l-1.61-.74-1.18-.89.4-1.81.26-2.1-1.71-1.38-.73.14-1.69.64-.88,0-.8-.41-1.31-1.36-.83-.42-.83-1.15,1.35-2.31,3.59-4.22,1-1.6.6-.51,1,0,2.36.4.86-.69,1.46-.75,2,.94,3.25,2.74,1.6,1,7.91.5.42-.44.65-1.06,1.36,0,1.3.44.56.3.55,0,.05-1.1-1.54-1.09-6.8.85-1.93.63-1.08.13-.52-.58L245,223.41l-.87-1-6.62-2.37-.92-1.62.71-2.44,3-4,1.16-2-1.36-2.55,2.09-2.74,3.46-1.93,2.79-.5,2.49,2.06,2.37,3.25,2.61,2.15,3.18-.85.05-1-3.31-1-.71-.68L254,204.11l-.74-1.05-.74-.49-.72-1,1.15-2.15,2.05-2,2-.63.05-1.1-1.91-.93-1.4,1.12-1.09,1.79-1,.86-1.41.39-2.91,1.87-1.65.47-1.64-.36-3-1.54-1.54-.45-3.51.91-1.63-.18-.59-2.06.36-.53,2.1-4.39.69-.7,1.82-1,.7-.7.78-.6.54.67.4.94.36.57,1.88-.26,9.16-3.75,3.74-3.21.91-4.09-1.34-.44-2.27,2.18-3.91,4.95-2.14,1.45-1.84-.37-1.88-1-2.31-.49,2-1.18.73-1-.11-1.3-.57-1.87-.1-.92-.37,0-1.33,1.22-5.76,6.86-2.06.89-4.2.42-1.8-1.12-1-5.85.2.1.4-.16.37-.44.18-.45-.19-.56-.69-1.14-.09-.47.06-2,.33-1,.92-.87-.81-.59-2.43-.88-.5-.3-.08-1.66-.6-2.52L224,168l.31-1.09,1.23-2.41.35-.9.22-2.1.08-1.93.41-1.08,1.23.07-.13-.75-.18-1.66-.13-.65,1.46-.56,1.39.35,1.33,1,4,4.72,1.3,1.09.72-.61,1.24,2.28.68.59,2.31,1.77.85.33-.38-.85-.2-.84-.13-.74-.22-.66,5.78-.7,3.27.72h1.86l.36-.9-2.3-2.24-3.56-1-3.54.27-2.3,1.9-2.54-3.36.44-.43.75-1.43-2.63-.7L236,153.14l-.83-3-1.34-2.47-1.2-.53-1.22-.25-.93-.69-.31-1.86.54-1.72,1.72-1.74-.36-1.4.06-1.1,3-1.49h1.5l2.18,2.79,1-.13.9-1.05.7-1.62-.88-.23-.51-.86-.47-.94-.73-1.05-.9-.6-6.48-1.93-.19-1.57.61-3.83,0-1.75.26-1.18-.51-3.06v-1.84l.38-1.54.67-1.44.9-1.14,1.08-.86,2-.72,2.08.12,2,.75,1.86,1.39-.4,2,.08,3,.37,3.06.48,2.14.7,1.6,1,1.15,1.16.71,1.3,0-.55-.68-.33-.75L246,124.9l1,.06.75.22,1.42,1-.36-2.87.45-2.09.23-1.92-1-2.35-2.87-3-.94-1.79.91-1.43-.6-.21-.23-.29-.19-.56.83-1.34,2-2.37.7-1.16,1.06,1.53.83.59,2.88.15-.66,4,2.07,3.14,3.13,1.91,2.53.4-.44-1,1-1.23,1.15-4.18.83-1.52,1,.05,3.49,1.74,1.05,1.07,2.09,2.76,2.55,1.78,5.59,2.48-1-2.07-.84-1-2.26-1.21-3.27-3.75-4.94-2.54-.6-.68-.08-.83-.18-.37,0-.37.42-1,.49-.07.58.67.55.12.53-1.72,1.44,1,2.06,3.41,1.66,1,.91,0,1.52-.67.87-.14.95.42,1.72,1.37.75.31,1,.69,2.74,3,3.26,1.72,2.08,4.23,1.57,1.08-.43-.75-.48-1.4-.4-1.49-.15-1-.37-1-7.56-7.24-1.9-.64.05-1.1,1.56.07.66-1.07,0-1.66-.62-2-.91-.87-2.51-.58-1.07-1.15-2.28-.76-3-4.28-2-.47.19-.36.05-.18.39-.35L268.17,91l-1.53-.63-3.22,0,.3-.63.18-.54.24-.45.46-.44,0-1-2.36-4.9,1.59-1.95,2.94,1.07,1.68,4,1.79-1.39,1.65.73,1.71.27,2-2.3-.49,0,.46-1.45,0-1.37-.33-1.22-.48-1,1.06,0,.05-1-1.54-1.18,1.08-.77,2.26-.44,1.07-.5.05-1.1-2.57,0-1.23-.33L274,71.55l.63-.89-.55-.76-.62-.67-.66-.4-.74-.32.21-.72.33-1.73.2-.63-1-.05-.75-.59L267.73,59l.18-2.47,1.3-.39,1.75.91,3.17,2.46,1.29.43,1.35-.31,3.19-2,1.67-.48,1.69.27,1.57,1.45.66-1.07,1.09-1,1.12-.68.71-.15,1.35.52,2.28,2.13,1,.59,3.91-.19,1.17.42,5.19,4.27-.71-1.5-.83-1-2.06-1.66,1.06-.87,2.24-.27,1.09-.69-4.88-1.31-1.55,0-.64.34-1,1.24-.84.33-.78-.4L293,56.55l-.83-.31-1.12-.88-2.14-3.59-.75-.86-.07-.56-1.37-2.27-.28-.29L286,45.84l-.22-1.12-.11-1.1,1.56.07-.72-1.6.12-1.46.6-1.44.82-1.53.1-.73-.05-1,0-.83.33-.35L289,35l1,.69.48.11,4.36,3.42,3.25,0L296,37.29l-.67-1,.29-1.18L295.12,34l-.74.79-.81.33-.82,0-.86-.22.05-1.1.77.13.24-.08.05-1-.53-.12-.32-.29-.69-.77,4.4-2.37,1.88,1L300,32.05l-8.16-7.91.1-2.66.22-1.27.64-.71L297,17.31l1.21-1.24,1-2.25-.53,0,.74-3,.42-3,.62-2.54,1.36-1.5,9.83,2.63,1.77,1.27,1.31,1.89,0,.83.31,2.31.37,2,.25-.18-.14,1.65-.25,1.28-.38,1.08-.55,1.08,1.46-1,.66-1.35.23-1.55,0-1.56.42-2.1.71-.89.48-1.08L318,7.56l1.31,1.25,2.24,3.3,1.27.7L325,14.64l1,.31.77.59,0,1.19-.37,1.36L326,19l-1,1.16L322.2,22.8l-1.55,3.61-1.6,2.78-.8,2L319.7,31,324.5,26l.76-.43.59-2.27,1.32-1,1.58-.67,1.48-1.41,1-2.54.56-2.64.87-2.08,1.9-.75,3.31.77,3.2,1.58,3.69,3,0,1.1-.14.54-.06.09.12,1.48-1.9,2-1.25,2.71-1.1,3-1.49,3.16,1.34-.5,1.38-1.33,2.22-3,.12-.55-.07-.73V25l.32-.27.34-.17,3.24-3.28.26-.36,3-2,2.13-.93.77-.07,1.51.61,2.23,2.28,1.74.51-1.07-1.14.86-.61.48-.81.4-.91.52-.53.89-.06,1.43.78,1.05.22.71-.44.64-1.91.9-.43,2.95.1,1.59.6.67,0,.9-.53.71-1.08,1.06-2.44.71-.44.7-.16.15-.18.06.37,1.35,3,.42.38,1.73-.32,6.59,1.29,6.67-.91,3.37-1.48,5.39-3.9,3-1.39,4.83-.8,2.49.15,1.72.87-.76.81-.31.17,1.82,1.79,2.19-.14,4.44-1.46,4.24,2.11,2.11-.05,1.09-2.91-1.31-.58-1.39-1.13-1.21-1.5-.77-2,1.79-2.35,1.19-.8,1.29.3.29.83.16,1.38ZM206.19,39l1,.43,1.16,0-.06,1.1-1.72.81-3.67,2.44-1.37,1.39.33,1.3-.18.91-.62.61-1,.21-.94.4-.88,2-2.36.86-.23,1,.13,1.39-.17,1.09-.75.69-.89.22-2.15,0,1.27,2.47,2.82,1,3.14,0,2.21-.87,4-3.8,1.23-.66,1.48-.37.82.15L208,54.74l-.06.92.46,0-.4.62-.43,1-.34.44.16.56.29,1.49-2.11.88-.73.42-.58.61-.84,1.42-.32.43-1.45.65-1.08-.25-2.2-1.7-1.27-.55-3.52.24-1.27-.54-2.22-1.71-1.21-.08L190.34,65l.74,1.8-.7.6-.3.53v.83l.27,1.12-1.45,1-4,.66L182,74.7l-1.21.66-.75-.14L179,74.31l-.75-.14L175.93,76l-4.15.82-1.25-.17-.07,1,3,.3,10.33-1.79,2.5-1.31,1.08-.11,1,.8.7,1.51.29,2L189.09,81l.3.3.7.87-.64.79-.69.51-.71.32-.76.13.81.7.9.43,1,.15,1,0-1.57,1.55-1.2,1.58-1.32,1.2L185,89.9l-7.28-1.77-1.61-.85-.44,0-.51,1.07.62.69,1.63.85,1.16,1.27,2.72,1,1,1.63-.06,1-.8.59L180,97.58l-.73,1-1.48.92-1-.16-1-.62-1.41-.46-.08,1.1.35.3.33.48.33.3-.08,1.1-1.81.8-1.45-.38-1.11-1.27L170,99,169.48,97l-.36-.76-.73-.42-.44.71.29,1.77.64,1.79.51,1-.6.88-2.4-1.46-.72-.78L165.3,99l-.36-1.87-1.84-4.55-.49-2.06,0-2.11,1.41-3.77,2.41-2.05,2.93-.71h2.93l.06-.91-7.53-.52-.06.91L164.33,83l-2,2.25-2.36,2-1.6.9.9,1.72,1.32,4.51.82,1,1.08.63.82,1.25.68,1.43.66,1.06-.43.24-.37.35-.41.33-.57.06.47.95.65.51.6.22.34.39.15,1,.1,3.13-6.33-2L156.22,103l-.79.4-.47.79-.45.89-.71,1,.83.7,1.63.85.68.51,1.59,3.52.26.85-.5,1.16-1.12.66-1.44.17-1.38-.28-.07,1,.58,0-.06.91-1.74-.4-3.47-3-.64,1.06.41.4.59,1.06.47.58-1,1.41-1,.94-2.2,1.5.37.3.36.49.32.3-1.74,1.62-5.09,3L139,126.84l-.54-.32-3.66-5.06L134,121l-4.32-6.41-.8-.7-.29-1-.48-1.23,0-.92,1.28-.27,1,.25.61.79.32,1.22.18,1.85,6.9-5.56,1.1-1.58,1.82-.42,3.78.37-3.59-3.21.07-1,4.2-2.08,2.38-.38,2.3.72,1.47,1.39-.7-.79-.74-.69-.59-.6-.21-.48-.21-.47,1.56-.9.61,0,.07-1-4.53-.33-1.06-.53-1.89-2.35L143.08,94l-4.54-.15-2-.89-.48-2.43-1.06.75-.68-.05-3.46-3.11,1.35-1,1-1.12,1.09-.84,1.55.21.07-.92L135.7,84l0-.09,0-.19-.11-.47,2.41-.19,2.62-.73,4.94-2.4L138,81.45l-2.31-.18.47-1.34.66-.69.82-.12.88.34.07-.92-2.19-.16.77-.5.65-.59.55-.79.45-1.07-3.59,2.22-.63,0-1.94-5-.55-.78.54-1.71-.38-.76-.68-.33-.28-.85.38-1.81,1-1.22.06-1.47.7-.22.31-.35.26-.53.42-.71-.56-.32-.51-.68-.39-.21.07-.92,5.89,0,1.64-.52-2-1.16-.74-.79-.2-1.86.3-1.82.53-.88L140.08,51l1.09.91,2.9,2,.59.13.62-.51,4.11,2.33-.08,1-2.3-.35.38,2.14,1.43,2.6.91,1.26-.28,2.19.6,3.17,1,2.93.91,1.54L151.89,71l0-.82.31-1.91-.47-1-1-2.74-.38-1.41.84-.49.34-1.08.17-1,.28-.44,3.55-.67.81-.58,1.34-.28,1.93,1.16,1.76,2L162.2,64l2.35-3-1.87-1.42-.6-.78-.25-.94-.27-2.32-.31-.85-.44-.22-1.18.2-.45-.13-.12-.47-.22-1.3-.09-.38L158,51l-.33-.77-.28-.85.44-.33.33-.34.39-.25.53,0-.33-1.13-.31-.75-.49-.31-.84-.07L163.8,41l1.83-2.26.9.71.61-.42.52-.61.69-.5,2.65.18,2.11-.41,5.1-2.32.74-.59,2.13-2.53,14.48-9.81,4.14-4.8,2.37-2.05,1.86.3,1.45,1.84,1.2,2.74.81,2.91.21,2.4,1.24,2.47.17,1.58-1.46.55-.63.79-2.16,6,.61,1.05ZM153.38,50.71l2.31,3,.85-.4.65.78.52,1,.41,1,.26,1.4L152,57.05l.08-1,.82.06h.24l.07-1-.92-.61-.7-1.44-.17-1.67L152,50Zm-30.15,77.71-2.36.84-1.84-.42,3.62-3.41,1.54-.25.59,1.7Z"/>
    </g>
  </g>
</svg>
